<svg width="30" height="15" viewBox="0 0 30 15" fill="none" xmlns="http://www.w3.org/2000/svg">
<path fill-rule="evenodd" clip-rule="evenodd" d="M26.25 2.8125H28.125C29.16 2.8125 30 3.65344 30 4.6875V10.3125C30 11.3475 29.16 12.1875 28.125 12.1875H26.25C26.25 13.7381 24.9881 15 23.4375 15H2.8125C1.26188 15 0 13.7381 0 12.1875V2.8125C0 1.26188 1.26188 0 2.8125 0H23.4375C24.9881 0 26.25 1.26188 26.25 2.8125ZM23.4375 13.125C23.955 13.125 24.375 12.705 24.375 12.1875V2.8125C24.375 2.295 23.955 1.875 23.4375 1.875H2.8125C2.295 1.875 1.875 2.295 1.875 2.8125V12.1875C1.875 12.705 2.295 13.125 2.8125 13.125H23.4375ZM28.125 10.3125H26.25V4.6875H28.125V10.3125ZM11.25 3.75C11.7656 3.75 12.3759 4.12687 12.6066 4.58906L15.5184 10.4109C15.7491 10.8731 15.5156 11.25 15 11.25H4.6875C4.17188 11.25 3.75 10.8281 3.75 10.3125V4.6875C3.75 4.17188 4.17188 3.75 4.6875 3.75H11.25Z" fill="#B3A6BA"/>
</svg>
