<svg width="70" height="27" viewBox="0 0 70 27" fill="none" xmlns="http://www.w3.org/2000/svg">
<path fill-rule="evenodd" clip-rule="evenodd" d="M69.8782 24.2754C69.8782 25.7262 68.7022 26.9024 67.2516 26.9024H2.62695C1.176 26.9024 0 25.7262 0 24.2754V12.2023C0 10.7515 1.176 9.5752 2.62695 9.5752H67.2516C68.7022 9.5752 69.8782 10.7515 69.8782 12.2023V24.2754Z" fill="#009640"/>
<mask id="mask0" mask-type="alpha" maskUnits="userSpaceOnUse" x="0" y="0" width="70" height="27">
<path d="M0 26.9026H69.8782V0H0V26.9026Z" fill="white"/>
</mask>
<g mask="url(#mask0)">
<path fill-rule="evenodd" clip-rule="evenodd" d="M0 1.77731H28.6275V0H0V1.77731Z" fill="#0062AE"/>
<path fill-rule="evenodd" clip-rule="evenodd" d="M28.6276 1.77731H69.8783V0H28.6276V1.77731Z" fill="#E63438"/>
<path fill-rule="evenodd" clip-rule="evenodd" d="M0 13.6172H11.84V1.77686H0V13.6172Z" fill="#5BC4F1"/>
<path fill-rule="evenodd" clip-rule="evenodd" d="M11.8409 13.6172H23.681V1.77686H11.8409V13.6172Z" fill="#76B72A"/>
<path fill-rule="evenodd" clip-rule="evenodd" d="M23.6804 13.6172H35.5205V1.77686H23.6804V13.6172Z" fill="#962456"/>
<path fill-rule="evenodd" clip-rule="evenodd" d="M14.9494 5.66291C14.5727 5.66291 14.104 5.78021 13.8192 5.93077L13.5094 5.11855C13.9112 4.93428 14.4722 4.76709 15.1756 4.76709C16.2889 4.76709 17.0425 5.36964 17.0425 6.17339C17.0425 6.98562 16.4649 7.4627 15.9539 7.58V7.62188C16.6071 7.68884 17.2265 8.09064 17.2265 8.91949C17.2265 9.93246 16.2552 10.6274 15.1756 10.6274C14.4971 10.6274 13.9027 10.4262 13.5011 10.2254L13.7522 9.36301C14.0116 9.51373 14.5977 9.72325 15.0498 9.72325C15.6359 9.72325 16.1046 9.43013 16.1046 8.83559C16.1046 8.30832 15.6776 8.09064 15.0165 8.09064H14.6646V7.2367H14.9242C15.5772 7.2367 15.8954 6.85984 15.8954 6.39107C15.8954 5.90553 15.527 5.66291 14.9494 5.66291Z" fill="#FEFEFE"/>
<path fill-rule="evenodd" clip-rule="evenodd" d="M22.2917 10.1252C21.5298 10.4685 20.9437 10.6277 20.2488 10.6277C18.566 10.6277 17.7036 9.4555 17.7036 7.66387C17.7036 5.94783 18.566 4.80908 20.3241 4.80908C21.178 4.80908 21.739 5.0183 22.1828 5.3031L21.7222 6.14026C21.404 5.92258 20.91 5.78033 20.3409 5.78033C19.3194 5.78033 18.8591 6.52543 18.8591 7.64693C18.8591 8.97811 19.3528 9.68981 20.3241 9.68981C20.6843 9.68981 21.0108 9.63962 21.2787 9.51385V8.46747H20.5084L20.4412 7.6554H22.2917V10.1252Z" fill="#FEFEFE"/>
<path fill-rule="evenodd" clip-rule="evenodd" d="M27.459 8.25401V6.16972L26.128 8.25401H27.459ZM28.5474 9.14967V10.5229H27.459V9.14967H25.1567V8.46322L27.4422 4.83008H28.5474V8.25401H29.2003V9.14967H28.5474Z" fill="#FEFEFE"/>
<path fill-rule="evenodd" clip-rule="evenodd" d="M34.1313 10.1045C33.3695 10.4476 32.7834 10.6067 32.0885 10.6067C30.406 10.6067 29.5436 9.4345 29.5436 7.64287C29.5436 5.92683 30.406 4.78809 32.1641 4.78809C33.018 4.78809 33.5787 4.9973 34.0225 5.2821L33.5622 6.11926C33.244 5.90189 32.75 5.75934 32.1808 5.75934C31.1594 5.75934 30.6988 6.50444 30.6988 7.62625C30.6988 8.95742 31.1928 9.66912 32.1641 9.66912C32.524 9.66912 32.8505 9.61893 33.1184 9.49316V8.44647H32.348L32.2812 7.63471H34.1313V10.1045Z" fill="#FEFEFE"/>
<path fill-rule="evenodd" clip-rule="evenodd" d="M1.93444 5.93924L1.62439 5.12702C2.05175 4.93458 2.64583 4.76709 3.30733 4.76709C4.47933 4.76709 5.36668 5.37795 5.36668 6.39954C5.36668 7.32892 4.81432 8.19948 2.88044 9.698C3.08965 9.65628 3.44958 9.63119 3.70098 9.63119H5.39223V10.5438H1.66657V9.72325C3.83476 7.99012 4.23671 7.14464 4.23671 6.53363C4.23671 5.95602 3.80982 5.66291 3.13137 5.66291C2.71295 5.66291 2.25249 5.78021 1.93444 5.93924Z" fill="#FEFEFE"/>
<path fill-rule="evenodd" clip-rule="evenodd" d="M10.4488 10.1252C9.68697 10.4685 9.10089 10.6277 8.40598 10.6277C6.72349 10.6277 5.86108 9.4555 5.86108 7.66387C5.86108 5.94783 6.72349 4.80908 8.48156 4.80908C9.33551 4.80908 9.89618 5.0183 10.34 5.3031L9.87971 6.14026C9.5615 5.92258 9.06748 5.78033 8.49834 5.78033C7.47691 5.78033 7.0163 6.52543 7.0163 7.64724C7.0163 8.97842 7.51031 9.69011 8.48156 9.69011C8.84149 9.69011 9.16801 9.63962 9.43588 9.51415V8.46747H8.66553L8.59872 7.65571H10.4488V10.1252Z" fill="#FEFEFE"/>
<path fill-rule="evenodd" clip-rule="evenodd" d="M47.36 13.6172H69.8782V1.77686H47.36V13.6172Z" fill="#0062AE"/>
<path fill-rule="evenodd" clip-rule="evenodd" d="M50.2023 12.7878C49.5 12.7878 49.1228 12.3221 49.1228 11.49C49.1228 10.7137 49.4963 10.2183 50.2023 10.2183C50.5427 10.2183 50.8493 10.2922 51.0528 10.429L50.8679 10.8208C50.7383 10.7209 50.5129 10.647 50.2543 10.647C49.8399 10.647 49.6331 10.9392 49.6331 11.4865C49.6331 12.0632 49.8399 12.359 50.2468 12.359C50.4909 12.359 50.7348 12.2553 50.9049 12.1297L51.0601 12.5216C50.8124 12.6916 50.5316 12.7878 50.2023 12.7878Z" fill="#FEFEFE"/>
<path fill-rule="evenodd" clip-rule="evenodd" d="M52.2477 10.6359C51.8115 10.6359 51.6969 11.0316 51.6969 11.4791C51.6969 11.9745 51.8076 12.3814 52.2477 12.3814C52.6765 12.3814 52.8023 11.9817 52.8023 11.4791C52.8023 11.0243 52.684 10.6359 52.2477 10.6359ZM52.2477 12.7879C51.423 12.7879 51.1863 12.1631 51.1863 11.4826C51.1863 10.8284 51.4158 10.2183 52.2477 10.2183C53.0944 10.2183 53.3163 10.8208 53.3163 11.4826C53.3163 12.152 53.0721 12.7879 52.2477 12.7879Z" fill="#FEFEFE"/>
<path fill-rule="evenodd" clip-rule="evenodd" d="M55.8163 12.751L55.7645 10.6436H55.7498C55.7053 10.9096 55.6611 11.1021 55.6277 11.2462L55.273 12.751H54.5591L54.2191 11.2462C54.1857 11.1021 54.1415 10.9096 54.0935 10.6436H54.0787L54.0453 12.751H53.6014L53.6977 10.2554H54.5297C54.5297 10.2554 54.8033 11.5125 54.9476 12.3186H54.9585C55.1251 11.5162 55.4503 10.2554 55.4503 10.2554H56.2676L56.3636 12.751H55.8163Z" fill="#FEFEFE"/>
<path fill-rule="evenodd" clip-rule="evenodd" d="M57.4663 10.6658H57.2038V11.5014H57.4663C57.7508 11.5014 57.9137 11.3276 57.9137 11.0539C57.9137 10.7986 57.7436 10.6658 57.4663 10.6658ZM57.4774 11.882H57.2038V12.751H56.7194V10.2554H57.4774C57.9874 10.2554 58.4276 10.4992 58.4276 11.0353C58.4276 11.516 58.0653 11.882 57.4774 11.882Z" fill="#FEFEFE"/>
<path fill-rule="evenodd" clip-rule="evenodd" d="M59.219 10.6806L58.9454 11.7973H59.6259L59.3708 10.6806H59.219ZM58.7237 12.751H58.2505L58.9271 10.2554H59.7332L60.3874 12.751H59.8441L59.7145 12.1891H58.8566L58.7237 12.751Z" fill="#FEFEFE"/>
<path fill-rule="evenodd" clip-rule="evenodd" d="M61.2459 10.6658V12.751H60.7431V10.6658H60.1403V10.2554H61.8671V10.6658H61.2459Z" fill="#FEFEFE"/>
<path fill-rule="evenodd" clip-rule="evenodd" d="M62.1484 12.7515H62.6328V10.2559H62.1484V12.7515Z" fill="#FEFEFE"/>
<path fill-rule="evenodd" clip-rule="evenodd" d="M63.9198 11.6604H63.5873V12.3333C63.6684 12.3627 63.7721 12.3923 63.9125 12.3923C64.1529 12.3923 64.3525 12.2741 64.3525 12.0116C64.3525 11.7674 64.2009 11.6604 63.9198 11.6604ZM63.8386 10.651H63.5873V11.3017H63.8386C64.0863 11.3017 64.2195 11.2055 64.2195 10.9466C64.2195 10.7434 64.0863 10.651 63.8386 10.651ZM63.9125 12.7879C63.5317 12.7879 63.332 12.7362 63.1028 12.6512V10.2554H63.857C64.3895 10.2554 64.7295 10.4884 64.7295 10.8989C64.7295 11.2055 64.545 11.3793 64.3267 11.4457V11.4645C64.6296 11.5197 64.8627 11.7269 64.8627 12.0339C64.8627 12.4848 64.4709 12.7879 63.9125 12.7879Z" fill="#FEFEFE"/>
<path fill-rule="evenodd" clip-rule="evenodd" d="M65.1481 12.751V10.2554H65.6322V12.3444H66.6825V12.751H65.1481Z" fill="#FEFEFE"/>
<path fill-rule="evenodd" clip-rule="evenodd" d="M66.8934 12.751V10.2554H68.4281V10.6658H67.3777V11.2794H68.1803L68.1433 11.7086H67.3777V12.3481H68.4281V12.751H66.8934Z" fill="#FEFEFE"/>
<path fill-rule="evenodd" clip-rule="evenodd" d="M55.41 8.73933C55.1646 8.69638 54.916 8.67406 54.6683 8.67406C54.4207 8.67406 54.1718 8.69638 53.9267 8.73933C54.262 8.16557 54.5125 7.5444 54.6683 6.89859C54.8245 7.54409 55.0747 8.16557 55.41 8.73933ZM55.2245 5.522C55.2245 5.21457 54.9756 4.96533 54.6683 4.96533C54.3613 4.96533 54.1119 5.21457 54.1119 5.522C54.1119 5.74969 54.2494 5.9452 54.4451 6.0311C54.3059 7.27299 53.8056 8.4513 52.9995 9.41608C53.5283 9.16869 54.0982 9.04538 54.6683 9.04538C55.2384 9.04538 55.8084 9.16869 56.3372 9.41608C55.5309 8.4513 55.0308 7.27299 54.8914 6.0311C55.0873 5.9452 55.2245 5.74969 55.2245 5.522Z" fill="#FEFEFE"/>
<path fill-rule="evenodd" clip-rule="evenodd" d="M53.4607 4.40723L53.854 4.80056C53.4568 5.19836 53.4568 5.84555 53.854 6.24366L53.4607 6.63714C52.8464 6.02197 52.8464 5.02178 53.4607 4.40723Z" fill="#FEFEFE"/>
<path fill-rule="evenodd" clip-rule="evenodd" d="M53.0674 7.02991L52.674 7.42355C52.1662 6.91568 51.8866 6.24062 51.8866 5.52215C51.8866 4.80384 52.1662 4.12817 52.674 3.62061L53.0674 4.01394C52.6645 4.41651 52.4431 4.9524 52.4431 5.52215C52.4431 6.09145 52.6645 6.62734 53.0674 7.02991Z" fill="#FEFEFE"/>
<path fill-rule="evenodd" clip-rule="evenodd" d="M55.4822 6.24366C55.6749 6.05122 55.7807 5.79444 55.7807 5.52211C55.7807 5.24978 55.6749 4.9933 55.4822 4.80056L55.8755 4.40723C56.1731 4.70527 56.3374 5.10091 56.3374 5.52211C56.3374 5.943 56.1731 6.33926 55.8755 6.63699L55.4822 6.24366Z" fill="#FEFEFE"/>
<path fill-rule="evenodd" clip-rule="evenodd" d="M57.4499 5.52215C57.4499 6.24062 57.1706 6.91568 56.6624 7.42355L56.2688 7.02991C56.6717 6.62734 56.8937 6.09145 56.8937 5.52215C56.8937 4.95209 56.6717 4.41651 56.2688 4.01394L56.6624 3.62061C57.1706 4.12817 57.4499 4.80353 57.4499 5.52215Z" fill="#FEFEFE"/>
<path fill-rule="evenodd" clip-rule="evenodd" d="M62.4094 6.42464C63.8902 4.89257 65.3325 3.40052 66.7571 1.92725C67.3634 2.54873 67.87 3.06738 68.3243 3.53353C66.3861 5.51189 64.3914 7.5483 62.4061 9.57516C61.303 8.44966 60.2178 7.34324 59.1671 6.27162C59.6103 5.80316 60.1083 5.27682 60.655 4.6989C61.2268 5.26142 61.7854 5.81101 62.4094 6.42464Z" fill="#FEFEFE"/>
<path fill-rule="evenodd" clip-rule="evenodd" d="M35.5206 13.6172H47.3607V1.77686H35.5206V13.6172Z" fill="#ED7203"/>
<path fill-rule="evenodd" clip-rule="evenodd" d="M38.1535 13.1601C37.6342 13.1601 37.1961 12.9759 36.8846 12.7453L37.173 12.1513C37.3979 12.3475 37.8074 12.5263 38.1649 12.5263C38.5219 12.5263 38.7636 12.3071 38.7636 12.0131C38.7636 11.1889 36.9658 11.5984 36.9658 10.2264C36.9658 9.63831 37.4267 9.1543 38.3374 9.1543C38.7927 9.1543 39.1791 9.25221 39.496 9.41908L39.2422 10.0244C39.029 9.89786 38.6832 9.81119 38.3264 9.81119C37.9743 9.81119 37.744 9.92665 37.744 10.2147C37.744 10.9119 39.5538 10.6414 39.5538 11.9671C39.5538 12.5838 39.0405 13.1601 38.1535 13.1601Z" fill="#FEFEFE"/>
<path fill-rule="evenodd" clip-rule="evenodd" d="M41.2896 9.87447L40.8624 11.6155H41.9234L41.5256 9.87447H41.2896ZM40.5171 13.1023H39.7788L40.8338 9.21143H42.0906L43.1108 13.1023H42.2635L42.0615 12.2263H40.7247L40.5171 13.1023Z" fill="#FEFEFE"/>
<path fill-rule="evenodd" clip-rule="evenodd" d="M43.5665 13.1026V9.21191H45.9584V9.85172H44.3212V10.8088H45.5723L45.5152 11.4774H44.3212V12.4745H45.9584V13.1026H43.5665Z" fill="#FEFEFE"/>
<path fill-rule="evenodd" clip-rule="evenodd" d="M38.9545 2.8877C37.7281 2.8877 36.7292 3.88527 36.7292 5.11207C36.7292 6.34026 37.7281 7.33783 38.9545 7.33783C40.182 7.33783 41.1802 6.34026 41.1802 5.11207C41.1802 3.88527 40.182 2.8877 38.9545 2.8877Z" fill="#FEFEFE"/>
<path fill-rule="evenodd" clip-rule="evenodd" d="M45.6313 2.23389L44.9683 2.52562C45.2696 3.37879 45.4338 4.29616 45.4338 5.25155C45.4338 6.2502 45.2546 7.20821 44.9263 8.0951L45.5856 8.39406C45.9563 7.40172 46.1515 6.34195 46.1515 5.25155C46.1515 4.20641 45.9736 3.18913 45.6313 2.23389Z" fill="#FEFEFE"/>
<path fill-rule="evenodd" clip-rule="evenodd" d="M43.4848 3.18058C43.7007 3.83208 43.8177 4.52854 43.8177 5.25193C43.8177 6.01274 43.6884 6.74352 43.4502 7.42412L44.106 7.72216C44.3839 6.94966 44.5351 6.11865 44.5351 5.25193C44.5351 4.42539 44.3974 3.63134 44.1442 2.88916L43.4848 3.18058Z" fill="#FEFEFE"/>
<path fill-rule="evenodd" clip-rule="evenodd" d="M41.961 3.85127C42.0921 4.2951 42.163 4.76525 42.163 5.25157C42.163 5.76883 42.0834 6.2667 41.9354 6.73577L42.5929 7.03474C42.7797 6.4736 42.8808 5.87444 42.8808 5.25157C42.8808 4.66273 42.7903 4.09389 42.6225 3.55908L41.961 3.85127Z" fill="#FEFEFE"/>
<path fill-rule="evenodd" clip-rule="evenodd" d="M11.8655 16.2944L11.4885 17.8331H12.4261L12.0741 16.2944H11.8655ZM11.1826 19.1477H10.5305L11.463 15.7085H12.5737L13.4754 19.1477H12.7264L12.5481 18.3733H11.3661L11.1826 19.1477Z" fill="#FEFEFE"/>
<path fill-rule="evenodd" clip-rule="evenodd" d="M14.8865 16.2741H14.5247V17.4255H14.8865C15.2789 17.4255 15.5032 17.1861 15.5032 16.8091C15.5032 16.4574 15.2686 16.2741 14.8865 16.2741ZM14.9019 17.9504H14.5247V19.1477H13.8572V15.7085H14.9019C15.6048 15.7085 16.2112 16.0449 16.2112 16.7837C16.2112 17.4459 15.7118 17.9504 14.9019 17.9504Z" fill="#FEFEFE"/>
<path fill-rule="evenodd" clip-rule="evenodd" d="M17.6786 16.2741V19.1477H16.9855V16.2741H16.1552V15.7085H18.5347V16.2741H17.6786Z" fill="#FEFEFE"/>
<path fill-rule="evenodd" clip-rule="evenodd" d="M19.9662 16.2335C19.3648 16.2335 19.2069 16.7786 19.2069 17.3952C19.2069 18.0778 19.3598 18.6383 19.9662 18.6383C20.557 18.6383 20.7305 18.0881 20.7305 17.3952C20.7305 16.7684 20.5672 16.2335 19.9662 16.2335ZM19.9662 19.1988C18.8299 19.1988 18.5037 18.3376 18.5037 17.4002C18.5037 16.4984 18.8197 15.6577 19.9662 15.6577C21.1328 15.6577 21.4385 16.4881 21.4385 17.4002C21.4385 18.3224 21.1024 19.1988 19.9662 19.1988Z" fill="#FEFEFE"/>
<path fill-rule="evenodd" clip-rule="evenodd" d="M24.128 16.2741H23.7663V17.4255H24.128C24.5205 17.4255 24.7448 17.1861 24.7448 16.8091C24.7448 16.4574 24.5101 16.2741 24.128 16.2741ZM24.1434 17.9504H23.7663V19.1477H23.0988V15.7085H24.1434C24.8467 15.7085 25.4528 16.0449 25.4528 16.7837C25.4528 17.4459 24.9537 17.9504 24.1434 17.9504Z" fill="#FEFEFE"/>
<path fill-rule="evenodd" clip-rule="evenodd" d="M26.6452 16.2944L26.2682 17.8331H27.2057L26.8541 16.2944H26.6452ZM25.9623 19.1477H25.3102L26.2426 15.7085H27.3534L28.2553 19.1477H27.5064L27.3281 18.3733H26.1458L25.9623 19.1477Z" fill="#FEFEFE"/>
<path fill-rule="evenodd" clip-rule="evenodd" d="M29.6561 16.2282H29.3196V17.3286H29.6561C30.0942 17.3286 30.2776 17.1299 30.2776 16.7378C30.2776 16.3555 30.0587 16.2282 29.6561 16.2282ZM29.3196 19.1477H28.6576V15.7085H29.7631C30.4409 15.7085 30.9911 16.0244 30.9911 16.7429C30.9911 17.2064 30.7259 17.5528 30.339 17.7312C30.5782 18.2101 30.8278 18.6687 31.0675 19.1477H30.2827L29.7171 17.8484C29.5643 17.8536 29.4624 17.8536 29.3196 17.8536V19.1477Z" fill="#FEFEFE"/>
<path fill-rule="evenodd" clip-rule="evenodd" d="M32.494 16.2944L32.1169 17.8331H33.0545L32.7026 16.2944H32.494ZM31.8111 19.1477H31.1589L32.0914 15.7085H33.2021L34.1038 19.1477H33.3548L33.1766 18.3733H31.9946L31.8111 19.1477Z" fill="#FEFEFE"/>
<path fill-rule="evenodd" clip-rule="evenodd" d="M36.8904 16.2741V19.1477H36.1976V16.2741H35.3669V15.7085H37.7465V16.2741H36.8904Z" fill="#FEFEFE"/>
<path fill-rule="evenodd" clip-rule="evenodd" d="M39.178 16.2335C38.577 16.2335 38.4187 16.7786 38.4187 17.3952C38.4187 18.0778 38.5718 18.6383 39.178 18.6383C39.7692 18.6383 39.9424 18.0881 39.9424 17.3952C39.9424 16.7684 39.7793 16.2335 39.178 16.2335ZM39.178 19.1988C38.0417 19.1988 37.7158 18.3376 37.7158 17.4002C37.7158 16.4984 38.0316 15.6577 39.178 15.6577C40.3449 15.6577 40.6504 16.4881 40.6504 17.4002C40.6504 18.3224 40.3143 19.1988 39.178 19.1988Z" fill="#FEFEFE"/>
<path fill-rule="evenodd" clip-rule="evenodd" d="M42.3265 16.2485H41.8731V18.5668C41.9902 18.6025 42.2195 18.6381 42.4642 18.6381C42.9125 18.6381 43.2741 18.3784 43.2741 17.3899C43.2741 16.5595 43.0144 16.2485 42.3265 16.2485ZM42.4284 19.1986C41.929 19.1986 41.5215 19.1069 41.2056 19.0153V15.7085H42.352C43.3505 15.7085 43.9823 16.1161 43.9823 17.395C43.9823 18.5108 43.4984 19.1986 42.4284 19.1986Z" fill="#FEFEFE"/>
<path fill-rule="evenodd" clip-rule="evenodd" d="M45.4952 16.2944L45.1182 17.8331H46.0558L45.7041 16.2944H45.4952ZM44.8126 19.1477H44.1605L45.093 15.7085H46.2037L47.1054 19.1477H46.3564L46.1781 18.3733H44.9961L44.8126 19.1477Z" fill="#FEFEFE"/>
<path fill-rule="evenodd" clip-rule="evenodd" d="M48.4196 19.1988C47.961 19.1988 47.5738 19.0356 47.2987 18.8319L47.5533 18.3071C47.7521 18.4803 48.1139 18.6383 48.4297 18.6383C48.7458 18.6383 48.9596 18.4448 48.9596 18.1849C48.9596 17.4563 47.37 17.818 47.37 16.6054C47.37 16.0857 47.7776 15.6577 48.5826 15.6577C48.9852 15.6577 49.3265 15.7444 49.6067 15.8922L49.3827 16.427C49.1941 16.3151 48.8884 16.2386 48.5723 16.2386C48.2618 16.2386 48.0578 16.3405 48.0578 16.5953C48.0578 17.2118 49.6578 16.9723 49.6578 18.1441C49.6578 18.6892 49.2044 19.1988 48.4196 19.1988Z" fill="#FEFEFE"/>
<path fill-rule="evenodd" clip-rule="evenodd" d="M51.3438 19.1477V15.7085H52.0113V18.5871H53.4584V19.1477H51.3438Z" fill="#FEFEFE"/>
<path fill-rule="evenodd" clip-rule="evenodd" d="M54.915 16.2944L54.538 17.8331H55.4756L55.1239 16.2944H54.915ZM54.2324 19.1477H53.5803L54.5128 15.7085H55.6235L56.5252 19.1477H55.7762L55.5979 18.3733H54.4159L54.2324 19.1477Z" fill="#FEFEFE"/>
<path fill-rule="evenodd" clip-rule="evenodd" d="M57.8395 19.1988C57.3809 19.1988 56.9937 19.0356 56.7186 18.8319L56.9733 18.3071C57.172 18.4803 57.5338 18.6383 57.8497 18.6383C58.1657 18.6383 58.3796 18.4448 58.3796 18.1849C58.3796 17.4563 56.7899 17.818 56.7899 16.6054C56.7899 16.0857 57.1976 15.6577 58.0025 15.6577C58.4051 15.6577 58.7464 15.7444 59.0266 15.8922L58.8026 16.427C58.614 16.3151 58.3083 16.2386 57.9922 16.2386C57.6817 16.2386 57.4777 16.3405 57.4777 16.5953C57.4777 17.2118 59.0777 16.9723 59.0777 18.1441C59.0777 18.6892 58.6243 19.1988 57.8395 19.1988Z" fill="#FEFEFE"/>
<path fill-rule="evenodd" clip-rule="evenodd" d="M4.87572 23.3408H4.41711V24.268C4.52934 24.3088 4.6719 24.3498 4.86556 24.3498C5.19685 24.3498 5.47196 24.1866 5.47196 23.825C5.47196 23.4886 5.26305 23.3408 4.87572 23.3408ZM4.76349 21.9499H4.41711V22.8466H4.76349C5.1051 22.8466 5.28861 22.7143 5.28861 22.3574C5.28861 22.0772 5.1051 21.9499 4.76349 21.9499ZM4.86556 24.8949C4.34076 24.8949 4.06565 24.8235 3.74976 24.7063V21.4048H4.7892C5.52276 21.4048 5.99153 21.7258 5.99153 22.2914C5.99153 22.7143 5.7369 22.9536 5.43624 23.0454V23.0708C5.85405 23.1472 6.17488 23.4326 6.17488 23.8555C6.17488 24.4771 5.63499 24.8949 4.86556 24.8949Z" fill="#FEFEFE"/>
<path fill-rule="evenodd" clip-rule="evenodd" d="M7.71369 21.9907L7.33667 23.5294H8.27421L7.92259 21.9907H7.71369ZM7.03078 24.844H6.37866L7.31112 21.4048H8.42184L9.32382 24.844H8.57487L8.3966 24.0696H7.21428L7.03078 24.844Z" fill="#FEFEFE"/>
<path fill-rule="evenodd" clip-rule="evenodd" d="M11.3768 24.844L10.3067 22.1385H10.2862L10.3323 24.844H9.73096V21.4048H10.755L11.8405 24.1664H11.8607L11.8149 21.4048H12.4313V24.844H11.3768Z" fill="#FEFEFE"/>
<path fill-rule="evenodd" clip-rule="evenodd" d="M14.2245 21.9448H13.7712V24.2631C13.8883 24.2988 14.1175 24.3344 14.3623 24.3344C14.8106 24.3344 15.1722 24.0747 15.1722 23.0862C15.1722 22.2558 14.9125 21.9448 14.2245 21.9448ZM14.3264 24.8949C13.827 24.8949 13.4195 24.8032 13.1036 24.7116V21.4048H14.2501C15.2486 21.4048 15.8804 21.8124 15.8804 23.0913C15.8804 24.2071 15.3962 24.8949 14.3264 24.8949Z" fill="#FEFEFE"/>
<path fill-rule="evenodd" clip-rule="evenodd" d="M17.3933 21.9907L17.0162 23.5294H17.9538L17.6022 21.9907H17.3933ZM16.7103 24.844H16.0582L16.9907 21.4048H18.1014L19.0034 24.844H18.2544L18.0762 24.0696H16.8939L16.7103 24.844Z" fill="#FEFEFE"/>
<path fill-rule="evenodd" clip-rule="evenodd" d="M20.3177 24.8946C19.8591 24.8946 19.4719 24.7314 19.1968 24.5277L19.4514 24.0029C19.6502 24.1761 20.0119 24.3341 20.3278 24.3341C20.6436 24.3341 20.8577 24.1406 20.8577 23.8807C20.8577 23.1521 19.2681 23.5138 19.2681 22.3012C19.2681 21.7815 19.6757 21.3535 20.4807 21.3535C20.8833 21.3535 21.2246 21.4402 21.5047 21.588L21.2804 22.1228C21.0919 22.0109 20.7864 21.9344 20.4704 21.9344C20.1596 21.9344 19.9559 22.0363 19.9559 22.2911C19.9559 22.9076 21.5555 22.6681 21.5555 23.8399C21.5555 24.385 21.1022 24.8946 20.3177 24.8946Z" fill="#FEFEFE"/>
<path fill-rule="evenodd" clip-rule="evenodd" d="M24.3371 21.9448H23.8837V24.2631C24.0009 24.2988 24.2301 24.3344 24.4749 24.3344C24.9231 24.3344 25.2848 24.0747 25.2848 23.0862C25.2848 22.2558 25.0251 21.9448 24.3371 21.9448ZM24.439 24.8949C23.9399 24.8949 23.5321 24.8032 23.2162 24.7116V21.4048H24.3626C25.3611 21.4048 25.9932 21.8124 25.9932 23.0913C25.9932 24.2071 25.5091 24.8949 24.439 24.8949Z" fill="#FEFEFE"/>
<path fill-rule="evenodd" clip-rule="evenodd" d="M26.594 24.844V21.4048H28.7083V21.9704H27.2615V22.8162H28.3672L28.3163 23.4072H27.2615V24.2887H28.7083V24.844H26.594Z" fill="#FEFEFE"/>
<path fill-rule="evenodd" clip-rule="evenodd" d="M30.3947 24.844V21.4048H31.0622V24.2834H32.509V24.844H30.3947Z" fill="#FEFEFE"/>
<path fill-rule="evenodd" clip-rule="evenodd" d="M33.966 21.9907L33.589 23.5294H34.5265L34.1746 21.9907H33.966ZM33.2831 24.844H32.631L33.5634 21.4048H34.6742L35.5758 24.844H34.8269L34.6486 24.0696H33.4666L33.2831 24.844Z" fill="#FEFEFE"/>
<path fill-rule="evenodd" clip-rule="evenodd" d="M36.8904 24.8946C36.4317 24.8946 36.0446 24.7314 35.7695 24.5277L36.0242 24.0029C36.2229 24.1761 36.5847 24.3341 36.9003 24.3341C37.2163 24.3341 37.4305 24.1406 37.4305 23.8807C37.4305 23.1521 35.8408 23.5138 35.8408 22.3012C35.8408 21.7815 36.2482 21.3535 37.0534 21.3535C37.4557 21.3535 37.7973 21.4402 38.0775 21.588L37.8532 22.1228C37.6646 22.0109 37.3592 21.9344 37.0431 21.9344C36.7323 21.9344 36.5283 22.0363 36.5283 22.2911C36.5283 22.9076 38.1283 22.6681 38.1283 23.8399C38.1283 24.385 37.6749 24.8946 36.8904 24.8946Z" fill="#FEFEFE"/>
<path fill-rule="evenodd" clip-rule="evenodd" d="M41.1696 24.8946C40.2018 24.8946 39.6819 24.2526 39.6819 23.1062C39.6819 22.0363 40.1967 21.3535 41.1696 21.3535C41.6384 21.3535 42.0614 21.4554 42.3416 21.644L42.087 22.1841C41.9084 22.0464 41.5978 21.9445 41.2412 21.9445C40.6705 21.9445 40.3851 22.3471 40.3851 23.1011C40.3851 23.8959 40.6705 24.3036 41.2309 24.3036C41.5671 24.3036 41.9036 24.1609 42.1378 23.9875L42.3519 24.5277C42.0103 24.7622 41.6233 24.8946 41.1696 24.8946Z" fill="#FEFEFE"/>
<path fill-rule="evenodd" clip-rule="evenodd" d="M44.0889 21.9293C43.4879 21.9293 43.3296 22.4744 43.3296 23.091C43.3296 23.7736 43.4827 24.3341 44.0889 24.3341C44.68 24.3341 44.8532 23.7839 44.8532 23.091C44.8532 22.4642 44.6902 21.9293 44.0889 21.9293ZM44.0889 24.8946C42.9526 24.8946 42.6267 24.0334 42.6267 23.096C42.6267 22.1942 42.9425 21.3535 44.0889 21.3535C45.2558 21.3535 45.5612 22.1839 45.5612 23.096C45.5612 24.0182 45.2252 24.8946 44.0889 24.8946Z" fill="#FEFEFE"/>
<path fill-rule="evenodd" clip-rule="evenodd" d="M49.1076 24.844L49.036 21.9398H49.0158C48.9545 22.3066 48.8934 22.5715 48.8475 22.7703L48.3586 24.844H47.375L46.9063 22.7703C46.8606 22.5715 46.7993 22.3066 46.7331 21.9398H46.7126L46.6669 24.844H46.0554L46.188 21.4048H47.3344C47.3344 21.4048 47.7116 23.1371 47.91 24.2479H47.9253C48.1548 23.1422 48.6031 21.4048 48.6031 21.4048H49.729L49.8616 24.844H49.1076Z" fill="#FEFEFE"/>
<path fill-rule="evenodd" clip-rule="evenodd" d="M51.4814 21.9704H51.1197V23.1218H51.4814C51.8738 23.1218 52.0978 22.8824 52.0978 22.5054C52.0978 22.1537 51.8635 21.9704 51.4814 21.9704ZM51.4968 23.6467H51.1197V24.844H50.4521V21.4048H51.4968C52.1997 21.4048 52.8061 21.7412 52.8061 22.4799C52.8061 23.1422 52.3067 23.6467 51.4968 23.6467Z" fill="#FEFEFE"/>
<path fill-rule="evenodd" clip-rule="evenodd" d="M53.9979 21.9907L53.6209 23.5294H54.5584L54.2068 21.9907H53.9979ZM53.3153 24.844H52.6632L53.5957 21.4048H54.7064L55.6081 24.844H54.8591L54.6808 24.0696H53.4988L53.3153 24.844Z" fill="#FEFEFE"/>
<path fill-rule="evenodd" clip-rule="evenodd" d="M57.6459 21.1143L57.1314 20.9462C56.9683 20.8952 56.8409 20.9665 56.7847 21.1041L56.4639 20.9564C56.4895 20.6047 56.7898 20.355 57.1721 20.4825L57.6459 20.6405C57.8037 20.6914 57.9313 20.6301 57.9872 20.4877L58.2879 20.6151C58.2725 21.0021 58.0229 21.2365 57.6459 21.1143ZM57.6715 24.844L56.6014 22.1384H56.5812L56.627 24.844H56.0256V21.4048H57.0497L58.1352 24.1663H58.1556L58.1096 21.4048H58.726V24.844H57.6715Z" fill="#FEFEFE"/>
<path fill-rule="evenodd" clip-rule="evenodd" d="M59.495 24.8439H60.1625V21.4048H59.495V24.8439ZM59.1742 21.2162C59.1691 21.1652 59.1281 20.885 59.123 20.8341L60.5293 20.6455L60.5241 21.1347L59.1742 21.2162Z" fill="#FEFEFE"/>
<path fill-rule="evenodd" clip-rule="evenodd" d="M61.9659 21.9907L61.5889 23.5294H62.5265L62.1748 21.9907H61.9659ZM61.2833 24.844H60.6312L61.5637 21.4048H62.6744L63.5761 24.844H62.8271L62.6488 24.0696H61.4668L61.2833 24.844Z" fill="#FEFEFE"/>
<path fill-rule="evenodd" clip-rule="evenodd" d="M64.8903 24.8946C64.4317 24.8946 64.0445 24.7314 63.7694 24.5277L64.024 24.0029C64.2228 24.1761 64.5846 24.3341 64.9005 24.3341C65.2165 24.3341 65.4303 24.1406 65.4303 23.8807C65.4303 23.1521 63.8407 23.5138 63.8407 22.3012C63.8407 21.7815 64.2483 21.3535 65.0533 21.3535C65.4559 21.3535 65.7972 21.4402 66.0774 21.588L65.8534 22.1228C65.6648 22.0109 65.3591 21.9344 65.043 21.9344C64.7325 21.9344 64.5285 22.0363 64.5285 22.2911C64.5285 22.9076 66.1285 22.6681 66.1285 23.8399C66.1285 24.385 65.6751 24.8946 64.8903 24.8946Z" fill="#FEFEFE"/>
</g>
</svg>
