<svg width="48" height="38" viewBox="0 0 48 38" fill="none" xmlns="http://www.w3.org/2000/svg">
<path fill-rule="evenodd" clip-rule="evenodd" d="M44.1187 17.9998H38.8601L38.8329 18H30.8311H30.5H28.6645H4.83112V28.8332H9.53439C10.4267 26.3087 12.8344 24.5 15.6645 24.5C18.4946 24.5 20.9022 26.3087 21.7945 28.8332H31.2011C32.0934 26.3087 34.5011 24.5 37.3311 24.5C40.1612 24.5 42.5689 26.3087 43.4612 28.8332H45.6663L44.1187 17.9998ZM4.83112 15.8333V2.83317H28.6645V15.8333H4.83112ZM44.1187 15.8332H41.0008C41.0004 15.6472 40.9758 15.4573 40.9243 15.2669L38.577 6.60027C38.3213 5.65581 37.4642 5 36.4857 5H30.8311L30.8311 2.83317C30.8311 1.63655 29.8611 0.666504 28.6645 0.666504H4.83112C3.63451 0.666504 2.66446 1.63655 2.66446 2.83317V25.5775C2.66133 24.9819 2.17751 24.5 1.58114 24.5C0.98283 24.5 0.497803 24.985 0.497803 25.5833V27.75C0.497803 28.3483 0.98283 28.8333 1.58114 28.8333C2.17751 28.8333 2.66133 28.3514 2.66446 27.7558V28.8332C2.66446 30.0298 3.63451 30.9998 4.83112 30.9998H9.16447V31C9.16447 34.5899 12.0746 37.5 15.6645 37.5C19.2543 37.5 22.1645 34.5899 22.1645 31V30.9998H30.8311V31C30.8311 34.5899 33.7413 37.5 37.3311 37.5C40.921 37.5 43.8311 34.5899 43.8311 31V30.9998H45.6663C46.9848 30.9998 47.9976 29.832 47.8112 28.5268L46.2635 17.6934C46.1111 16.626 45.1969 15.8332 44.1187 15.8332ZM38.8329 15.8332H30.8311L30.8311 7.16667H36.4857L38.8329 15.8332ZM41.7511 31C41.7511 33.4411 39.7722 35.42 37.3311 35.42C34.89 35.42 32.9111 33.4411 32.9111 31C32.9111 28.5589 34.89 26.58 37.3311 26.58C39.7722 26.58 41.7511 28.5589 41.7511 31ZM20.0845 31C20.0845 33.4411 18.1056 35.42 15.6645 35.42C13.2234 35.42 11.2445 33.4411 11.2445 31C11.2445 28.5589 13.2234 26.58 15.6645 26.58C18.1056 26.58 20.0845 28.5589 20.0845 31ZM42.7478 20.1667C43.3461 20.1667 43.8311 20.6517 43.8311 21.25V23.4167C43.8311 24.015 43.3461 24.5 42.7478 24.5C42.1495 24.5 41.6645 24.015 41.6645 23.4167V21.25C41.6645 20.6517 42.1495 20.1667 42.7478 20.1667ZM25.4145 7.16667C26.0128 7.16667 26.4978 7.65169 26.4978 8.25C26.4978 8.84831 26.0128 9.33333 25.4145 9.33333H8.08114C7.48283 9.33333 6.9978 8.84831 6.9978 8.25C6.9978 7.65169 7.48283 7.16667 8.08114 7.16667H25.4145ZM26.4978 12.5833C26.4978 11.985 26.0128 11.5 25.4145 11.5H8.08114C7.48283 11.5 6.9978 11.985 6.9978 12.5833C6.9978 13.1816 7.48283 13.6667 8.08114 13.6667H25.4145C26.0128 13.6667 26.4978 13.1816 26.4978 12.5833Z" fill="url(#paint0_linear)"/>
<defs>
<linearGradient id="paint0_linear" x1="24.1656" y1="-1.08309" x2="24.1656" y2="33.08" gradientUnits="userSpaceOnUse">
<stop stop-color="#E92070"/>
<stop offset="1" stop-color="#5C3E8D"/>
</linearGradient>
</defs>
</svg>
