<svg width="21" height="37" viewBox="0 0 21 37" fill="none" xmlns="http://www.w3.org/2000/svg">
<path fill-rule="evenodd" clip-rule="evenodd" d="M19.3517 36.8332C19.5271 36.8332 19.6961 36.8033 19.8589 36.7436C20.0217 36.6838 20.1657 36.5942 20.2909 36.4747C20.5414 36.2358 20.6666 35.9491 20.6666 35.6145C20.6666 35.28 20.5414 34.9933 20.2909 34.7543L3.12222 18.3744L20.028 2.2812C20.2784 2.04225 20.4036 1.74954 20.4036 1.40306C20.4036 1.05659 20.2784 0.763877 20.028 0.524927C19.7775 0.285977 19.4707 0.166504 19.1075 0.166504C18.7444 0.166504 18.4376 0.285977 18.1871 0.524927L0.417305 17.5142C0.166849 17.7531 0.0416241 18.0399 0.0416241 18.3744C0.0416241 18.7089 0.166849 18.9957 0.417305 19.2346L18.4501 36.4747C18.5753 36.5942 18.7193 36.6838 18.8821 36.7436C19.0449 36.8033 19.2015 36.8332 19.3517 36.8332Z" fill="#7C6C8A"/>
</svg>
