<svg width="296" height="14" viewBox="0 0 296 14" fill="none" xmlns="http://www.w3.org/2000/svg">
<mask id="mask0" mask-type="alpha" maskUnits="userSpaceOnUse" x="0" y="0" width="74" height="13">
<path d="M0 0.600098H73.8V12.6001H0V0.600098Z" fill="white"/>
</mask>
<g mask="url(#mask0)">
<path fill-rule="evenodd" clip-rule="evenodd" d="M54.726 1.2733H54.84C54.7488 1.5079 53.2032 2.2615 52.6062 2.9551C51.6882 4.0207 51.0714 4.6159 51.174 6.2785C51.234 7.2445 51.9876 8.6755 52.8642 9.1885C53.133 9.3451 53.9862 9.8209 54.783 9.8557C55.9434 9.9079 55.4808 9.6733 55.6494 9.7657V2.7493C55.6494 2.6623 55.4394 2.2009 55.2414 2.2009C55.1838 2.2009 55.098 2.3083 55.098 2.3749V7.2169C55.098 7.3981 54.9318 7.6579 54.1242 8.2033C53.2962 8.7601 53.0412 8.9479 52.95 8.9281C52.9698 8.8759 53.0958 8.6845 53.1504 8.6383V3.5923C53.1504 3.0943 53.8692 2.8015 54.4968 2.3167C55.5306 1.5169 56.0892 1.3309 56.1006 1.3309H56.3586C57.0468 1.3309 57.4758 2.1721 57.5616 2.2591C57.5676 2.2651 57.7596 2.3311 57.8196 2.4037H58.2204C58.3356 2.4037 58.6218 2.2297 58.7934 2.2591C58.3296 2.6677 56.8512 3.6217 56.817 3.6217H56.5878C56.4816 3.6217 56.3184 3.4567 56.1294 3.3607V9.6817C56.2098 9.6937 56.1984 9.6817 56.2434 9.6817C56.5248 9.6817 57.5676 8.9197 57.6192 8.8411H57.705V9.0439C57.699 9.0529 57.2778 9.8503 57.2754 9.8557C56.3814 10.8913 55.3782 11.4025 53.949 11.4127C51.4482 11.4319 49.674 9.5977 49.4838 6.7531C49.2942 3.9223 51.2634 1.5967 53.58 1.4467C53.9178 1.4251 54.33 1.4497 54.3822 1.4467C54.3822 1.4467 54.7002 1.2931 54.726 1.2727V1.2733ZM70.7808 5.8861L72.0852 7.2445L70.7892 8.0905L70.7808 5.8861V5.8861ZM64.5648 4.7425H64.5936L65.4816 5.6413V9.7585L66.0258 10.2805L64.9944 11.2951L64.0206 10.3093V6.1921L63.5622 5.7571L64.5642 4.7425H64.5648ZM71.583 4.9003C71.637 4.9003 73.4448 6.9043 73.473 6.9883L70.752 8.9305V9.7135L72.294 10.4191C72.294 10.4191 73.104 10.3111 73.3878 10.0615L73.8 10.1653C73.7658 10.2175 71.9064 11.3665 71.583 11.3665C71.511 11.3665 70.125 10.8265 69.549 10.4383V6.0019C69.549 5.8057 71.577 4.9003 71.583 4.9003V4.9003ZM64.536 2.0161H64.5648L65.5386 3.0019V3.0313L64.5366 4.0459L63.5334 3.0313L64.536 2.0161V2.0161ZM60.2676 2.0161V6.2203L61.7574 4.7419L62.8746 5.8723V11.2081L61.4706 12.6001H61.4424V6.5983L60.8982 6.0763L60.2682 6.6271V9.7873L60.8124 10.3093V10.3387L59.8098 11.3527L58.836 10.3675V3.4663L60.2676 2.0461V2.0161V2.0161ZM68.2026 9.8581L68.7186 10.3507L67.6872 11.3365L66.7134 10.3507V3.6823L68.2026 2.2039V9.8581ZM42.366 5.8219L43.7316 7.2709L42.366 8.2873V5.8213V5.8219ZM37.2672 5.7343L38.6418 6.3727V10.3447H38.613L37.2672 9.7363V5.7343V5.7343ZM43.1964 4.8361L45.0582 6.9235L42.3372 8.9533V9.5041C42.3372 9.6211 43.9404 10.3615 43.9404 10.3615C43.9404 10.3615 44.7354 9.8113 45.087 10.0261C45.0666 10.0519 43.1676 11.3017 43.1676 11.3017L41.1336 10.4029V5.8213L43.1964 4.8361V4.8361ZM37.8972 2.1679C37.983 2.1679 38.361 2.3161 38.9856 2.6323C39.3234 2.8033 39.9312 2.9323 39.9312 3.2413V10.4323L38.04 11.3311L35.9484 10.3159V5.7637L37.9536 4.8649C38.0256 4.8733 38.67 5.1259 38.67 5.1259V3.6763L36.9978 2.9533C36.726 2.9707 36.4038 3.2341 36.0774 3.2917L36.1494 3.0091C36.1494 3.0091 37.6554 2.1679 37.8966 2.1679H37.8972ZM11.7996 7.7743L13.6902 8.7331V10.5289L11.8002 9.6391V7.7743H11.7996ZM28.2564 5.7319L29.5884 6.3703V10.3423L28.242 9.7333L28.2564 5.7319ZM12.9162 4.7881C14.3082 5.4925 14.9214 5.5789 14.9214 5.8903V9.6001L15.8094 10.4989L14.9784 11.3107C14.3712 10.8091 14.148 10.5859 14.148 10.5859L12.6216 11.3599L10.539 10.3939V7.9477L12.573 6.9325L13.6896 7.3963V6.3823L11.9052 5.7541L11.01 5.8633L10.968 5.7145L12.9162 4.7869V4.7881ZM24.2022 4.8919L26.4366 5.8489C26.3334 5.9791 25.6518 6.4837 25.4052 6.5449C25.4052 6.5449 23.5812 5.8225 23.5434 5.8195V9.5893L25.0794 10.3621C25.0794 10.3621 25.9638 10.0531 26.1792 10.0531C26.202 10.0531 26.2416 10.0621 26.2932 10.0531V10.1401L24.546 11.2999H24.3168L22.1112 10.2853V5.9059L24.2022 4.8913V4.8919ZM19.476 4.7299L20.7078 5.9767V9.8047L21.2808 10.3843L20.3352 11.3119L19.3332 10.3555V6.7891C19.3152 6.7771 18.705 6.1621 18.588 6.1219L17.9004 6.7597V9.8335L18.4164 10.3555L17.442 11.3119L16.554 10.4419V6.5851C16.554 6.5851 16.1328 6.2287 15.9528 6.0055L17.1558 4.7587L18.33 5.8897L19.476 4.7293V4.7299ZM28.8714 4.8625L30.9054 5.8777V10.3429L28.986 11.2999L26.9238 10.4011V5.7331L28.8714 4.8631V4.8625ZM6.9894 6.1099C7.0782 6.1333 7.5906 6.4435 7.5906 6.6607V9.9955C7.4478 10.0615 7.5624 9.9955 7.4766 9.9955C7.2954 9.9955 6.9894 9.8509 6.9894 9.6763V6.1093V6.1099ZM6.9894 2.6887C6.9894 2.6887 7.9062 3.7003 7.9062 4.3123C7.9062 4.7761 7.5534 4.9561 6.9894 5.2981V2.6881V2.6887ZM7.6482 0.687098C7.9914 0.687098 8.2008 1.0615 8.7942 1.8469C8.94 2.0413 9.6246 2.8879 9.6246 3.2971V3.6157C9.6246 4.4419 7.4766 5.2717 7.4766 5.6161C7.4766 5.8513 8.6046 5.7409 9.1086 6.0799C9.5904 6.4051 9.7962 7.0909 9.7962 7.4719V8.4577C9.7962 9.0475 8.997 9.2695 8.0202 10.0237C7.5906 10.3537 6.1242 11.3575 6.0156 11.3575C6.0156 11.3575 4.3332 10.4299 3.5232 10.4299H2.4348C1.9782 10.4299 0.8592 10.8355 0.7728 10.8355C0.7728 10.8355 2.4648 9.1537 4.182 9.1537H5.328C5.5638 9.1537 6.3762 9.4897 6.588 9.5599V2.1949C6.588 2.1229 6.4968 1.9915 6.3588 1.9915C6.0408 1.9915 5.8152 2.5777 5.8152 2.6011V6.9793C5.8152 7.1737 5.07 7.7593 4.6692 7.9939C4.0704 8.3449 3.684 8.6815 3.3228 8.8639V8.7769C3.3228 8.7769 3.6378 8.4289 3.6378 8.2261V3.4705C3.6378 3.4123 4.1418 2.7745 5.5284 1.9627C6.333 1.4929 7.1526 0.687098 7.6482 0.687098V0.687098ZM3.0648 0.600098H3.609C3.9966 0.600098 5.328 0.976898 5.328 0.976898H5.5572C5.646 0.976898 5.7888 0.907298 5.8434 0.861098C5.88573 0.87099 5.92504 0.890956 5.958 0.919298L3.6948 2.5429C3.6924 2.5429 3.0078 2.8867 3.0078 3.2095V7.2979L0.7734 8.8639C0.8046 8.6467 1.0884 8.4481 1.0884 8.1391V4.1089C1.0884 3.7969 3.2364 2.6617 3.2364 2.3401C3.2364 2.0209 1.9764 1.7599 1.9764 1.7599C1.65196 1.74527 1.32704 1.74527 1.0026 1.7599C0.6042 1.7743 0.1548 2.0299 0 2.0209C0.4866 1.6933 1.7964 0.600098 3.0648 0.600098Z" fill="#101A62"/>
</g>
<path fill-rule="evenodd" clip-rule="evenodd" d="M248.592 5.35451C248.592 5.59031 248.625 5.73431 248.692 5.78591C248.759 5.83571 248.947 5.86211 249.256 5.86211H249.542C251.498 5.86211 252.476 5.20751 252.476 3.89891C252.476 2.50271 251.596 1.80551 249.837 1.80551C249.365 1.80551 249.05 1.84931 248.887 1.93511C248.69 2.04191 248.592 2.26511 248.592 2.60231V5.35451V5.35451ZM252.429 5.97431C254.318 6.27431 255.262 7.21751 255.262 8.80151C255.262 9.70871 254.888 10.4383 254.14 10.9885C253.391 11.5405 252.419 11.8141 251.225 11.8141C250.79 11.8141 247.485 11.8303 246.616 11.8303V1.21631C247.196 1.21631 248.594 1.27031 249.344 1.26131C253.378 1.21631 254.549 2.10731 254.549 3.79931C254.549 4.85771 253.843 5.58131 252.429 5.97431V5.97431ZM248.866 6.38831C248.683 6.38831 248.592 6.45971 248.592 6.59891V9.98111C248.592 10.8079 249.174 11.2219 250.341 11.2219C251.268 11.2219 251.975 10.9711 252.459 10.4719C252.889 10.0315 253.102 9.44531 253.102 8.70791C253.102 7.98971 252.852 7.42271 252.354 7.00991C251.854 6.59591 251.139 6.38891 250.203 6.38891H248.866V6.38831ZM259.844 5.00651C260.35 5.00651 260.832 5.06831 261.291 5.19431C261.903 5.36231 262.209 5.59871 262.209 5.90531C262.209 6.70151 262.026 7.09931 261.66 7.09931C261.48 7.09931 261.299 6.95531 261.112 6.66731C261.078 6.61007 261.045 6.55247 261.012 6.49451C260.567 5.75591 260.108 5.38691 259.635 5.38691C258.917 5.38691 258.356 5.75891 257.95 6.50351C257.645 7.07231 257.492 7.65851 257.492 8.26511C257.492 9.01931 257.694 9.66131 258.1 10.1899C258.528 10.7485 259.122 11.0701 259.884 11.1553C260.022 11.1703 260.48 11.2177 261.438 10.8931C261.654 10.8199 261.84 10.7131 262.044 10.6201C262.146 10.5721 262.355 10.5379 262.384 10.6915C262.414 10.8559 262.266 11.0329 262.154 11.1385C261.972 11.3095 261.345 11.8753 259.709 11.9905C259.637 11.9959 259.565 11.9965 259.494 11.9965C258.257 11.9965 257.292 11.6323 256.601 10.9021C255.995 10.2673 255.693 9.48611 255.693 8.55551C255.693 7.57271 256.035 6.75431 256.721 6.10151C257.479 5.37191 258.521 5.00651 259.844 5.00651ZM262.933 11.8249H264.56L264.55 5.42831C264.55 5.42831 264.256 5.42231 263.771 5.38631C263.418 5.35871 262.934 5.33351 262.934 5.33351" fill="#010101"/>
<mask id="mask1" mask-type="alpha" maskUnits="userSpaceOnUse" x="236" y="2" width="10" height="11">
<path d="M236.418 2.55762H245.371V12.0088H236.418V2.55762Z" fill="white"/>
</mask>
<g mask="url(#mask1)">
<path fill-rule="evenodd" clip-rule="evenodd" d="M236.493 10.5129C236.857 9.39325 237.895 8.76745 238.797 8.15905C239.463 7.71085 240.142 7.28365 240.814 6.84685C241.057 6.68965 241.295 6.52765 241.536 6.37045C242.108 5.99785 242.563 5.45665 242.893 4.85365C243.061 4.54585 243.199 4.22785 243.333 3.90385C243.519 3.45625 243.668 2.87185 244.122 2.64085C244.447 2.47705 244.869 2.56585 245.115 2.83645C245.355 3.10045 245.411 3.48805 245.346 3.83365C245.21 4.56565 244.802 5.22565 244.288 5.73565C243.986 6.03565 243.645 6.25705 243.288 6.47725C242.816 6.76765 242.342 7.05505 241.866 7.34065C241.241 7.71865 240.623 8.07865 240.038 8.52085C239.451 8.96578 238.904 9.46084 238.402 10.0005C238.027 10.4025 237.792 10.8825 237.544 11.3727C237.454 11.5509 237.367 11.8083 237.204 11.9319C237.09 12.0165 236.903 12.0399 236.781 11.9643C236.345 11.6925 236.376 10.9413 236.493 10.5141" fill="#FF2F41"/>
</g>
<path fill-rule="evenodd" clip-rule="evenodd" d="M244.275 10.8281C243.978 10.5929 244.082 10.1663 244.061 9.83205C244.037 9.43305 243.966 8.99325 243.797 8.63085C243.612 8.23905 243.195 8.15085 242.865 7.94085C242.553 7.74285 242.579 7.34505 242.896 7.16925C243.553 6.80625 244.313 7.24425 244.665 7.83885C244.886 8.21085 245.023 8.64105 245.154 9.05325C245.289 9.47565 245.466 10.0192 245.255 10.4428C245.088 10.777 244.608 11.0909 244.275 10.8281" fill="#219B33"/>
<mask id="mask2" mask-type="alpha" maskUnits="userSpaceOnUse" x="238" y="0" width="5" height="8">
<path d="M238.538 0.634766H242.667V7.34097H238.538V0.634766Z" fill="white"/>
</mask>
<g mask="url(#mask2)">
<path fill-rule="evenodd" clip-rule="evenodd" d="M241.788 7.29074C240.283 6.67214 238.716 5.48354 238.549 3.67634C238.507 3.21674 238.582 2.75114 238.699 2.30774C238.797 1.93454 238.909 1.53494 239.089 1.19474C239.402 0.600739 240.154 0.469339 240.686 0.844339C241.31 1.28534 240.918 2.08094 240.768 2.67194C240.665 3.06921 240.58 3.47104 240.514 3.87614C240.451 4.27634 240.441 4.68794 240.569 5.07614C240.674 5.39621 240.863 5.6822 241.116 5.90414C241.399 6.14834 241.764 6.27554 242.094 6.43514C242.323 6.54554 242.785 6.70814 242.639 7.06274C242.5 7.39694 242.068 7.36754 241.788 7.29074" fill="#006AD2"/>
</g>
<mask id="mask3" mask-type="alpha" maskUnits="userSpaceOnUse" x="162" y="1" width="65" height="12">
<path d="M162.6 1.2002H226.8V12.6002H162.6V1.2002Z" fill="white"/>
</mask>
<g mask="url(#mask3)">
<path fill-rule="evenodd" clip-rule="evenodd" d="M226.8 6.3644C226.8 6.7496 226.746 7.18819 226.692 7.43659C226.396 7.40779 226.126 7.3802 225.776 7.3802C225.479 7.3802 225.182 7.40779 224.886 7.43659V12.2708H223.672V6.6122C224.186 6.4202 225.075 6.28279 225.748 6.28279C226.098 6.30979 226.531 6.30979 226.8 6.36499V6.3644ZM218.606 8.80999H221.354C221.354 7.87579 220.87 7.32619 220.035 7.32619C219.146 7.35379 218.687 7.84819 218.606 8.80999ZM222.514 9.85339H218.606C218.768 10.8698 219.333 11.3366 220.439 11.3366C221.113 11.3366 221.786 11.1998 222.38 10.8986C222.325 11.2268 222.272 11.6666 222.191 12.0236C221.625 12.2714 221.059 12.3806 220.385 12.3806C218.336 12.3806 217.367 11.2268 217.367 9.30379C217.367 7.62859 218.121 6.28279 220.061 6.28279C221.813 6.28279 222.569 7.4372 222.569 8.86459C222.569 9.24859 222.569 9.52399 222.514 9.85339ZM215.156 10.9796V7.49119C214.833 7.43719 214.51 7.38079 214.186 7.38079C212.974 7.38079 212.408 8.15059 212.408 9.44119C212.408 10.5956 212.866 11.4188 213.944 11.4188C214.383 11.3993 214.806 11.246 215.156 10.9796V10.9796ZM216.37 4.3604V12.2702H215.238L215.183 11.5556C214.861 12.0776 214.402 12.4076 213.593 12.4076C212.138 12.4076 211.142 11.3084 211.142 9.41359C211.142 7.436 212.192 6.28159 214.241 6.28159C214.564 6.28159 214.861 6.30859 215.156 6.36379V4.4966C215.534 4.3874 215.966 4.3598 216.37 4.3598L216.37 4.3604ZM210.198 8.47819V12.2702H208.958V8.69839C208.958 7.79239 208.661 7.37959 207.449 7.37959C207.152 7.37959 206.828 7.40719 206.479 7.46299V12.2702H205.266V6.6122C206.047 6.4202 206.91 6.28279 207.476 6.28279C209.524 6.30979 210.198 7.10719 210.198 8.47939V8.47819ZM202.705 10.9796V7.4372C202.463 7.3808 202.166 7.38079 201.815 7.38079C200.549 7.38079 199.955 8.17699 199.955 9.44119C199.955 10.5956 200.415 11.4188 201.493 11.4188C202.004 11.3918 202.409 11.2268 202.705 10.9796ZM203.945 6.6122V12.2714H202.814L202.759 11.5844C202.436 12.0794 201.977 12.4082 201.196 12.4082C199.741 12.4082 198.743 11.3102 198.743 9.41419C198.743 7.43719 199.794 6.28279 201.843 6.28279C202.652 6.30979 203.299 6.39199 203.945 6.61279V6.6122ZM197.396 11.3648C197.746 11.3648 198.097 11.3096 198.338 11.1998C198.312 11.5292 198.258 11.9138 198.204 12.2438C197.881 12.3806 197.504 12.4358 197.18 12.4358C195.994 12.4358 195.239 11.8868 195.239 10.5134V4.5518C195.617 4.4138 196.075 4.3598 196.453 4.3598V6.5018H198.393C198.373 6.86021 198.337 7.21756 198.286 7.5728H196.452V10.3472C196.452 11.0612 196.802 11.3636 197.396 11.3636L197.396 11.3648ZM194 8.47879V12.2708H192.786V8.69899C192.786 7.793 192.49 7.3802 191.277 7.3802C190.981 7.3802 190.657 7.4078 190.307 7.4636V12.2708H189.094V6.6122C189.875 6.4202 190.738 6.28279 191.304 6.28279C193.352 6.30979 193.999 7.10719 193.999 8.47939L194 8.47879ZM186.534 10.979V7.43659C186.291 7.38019 185.995 7.3802 185.644 7.3802C184.377 7.3802 183.784 8.17639 183.784 9.44059C183.784 10.595 184.243 11.4182 185.32 11.4182C185.833 11.3912 186.21 11.2262 186.534 10.979V10.979ZM187.746 6.6116V12.2708H186.614L186.56 11.5838C186.237 12.0788 185.779 12.4076 184.997 12.4076C183.542 12.4076 182.545 11.3096 182.545 9.41359C182.545 7.43659 183.596 6.2822 185.644 6.2822C186.452 6.3092 187.126 6.3914 187.746 6.6122V6.6116ZM176.669 12.023C176.696 11.5562 176.75 11.2538 176.884 10.8692C177.505 11.1716 178.313 11.309 178.906 11.309C179.93 11.309 180.523 10.979 180.523 10.2926C180.523 9.63319 180.092 9.33079 179.068 8.86399L178.502 8.64439C177.451 8.17639 176.75 7.5728 176.75 6.3914C176.75 5.1002 177.639 4.2764 179.419 4.2764C180.146 4.2764 180.82 4.3874 181.439 4.6064C181.417 4.98982 181.344 5.36866 181.223 5.73319C180.635 5.52423 180.016 5.41277 179.392 5.4032C178.421 5.4032 177.989 5.7872 177.989 6.3914C177.989 6.9686 178.421 7.32559 179.203 7.65559L179.795 7.90279C181.197 8.50699 181.79 9.16639 181.79 10.265C181.79 11.5562 180.82 12.4634 178.933 12.4634C178.044 12.4634 177.289 12.3254 176.669 12.023ZM171.09 6.446C171.063 6.0344 170.956 5.6222 170.74 5.2652L168.907 1.9964C168.769 1.74723 168.669 1.47887 168.61 1.2002L168.529 1.3382C168.304 1.73604 168.186 2.18529 168.186 2.6423C168.186 3.0993 168.304 3.54855 168.529 3.9464L170.012 6.557C170.237 6.95491 170.356 7.40441 170.356 7.86169C170.356 8.31898 170.237 8.76848 170.012 9.1664L169.931 9.30319C169.873 9.02442 169.773 8.75603 169.634 8.507L168.287 6.1178L167.425 4.5794C167.286 4.3302 167.186 4.06158 167.128 3.7826L167.047 3.9194C166.589 4.7156 166.589 5.705 167.047 6.52939L168.529 9.13819C168.754 9.53624 168.873 9.98582 168.873 10.4432C168.873 10.9006 168.754 11.3501 168.529 11.7482L168.449 11.8862C168.391 11.6073 168.291 11.3388 168.152 11.09L166.292 7.81999C166.05 7.38019 165.942 6.88639 165.942 6.39199C163.975 6.91339 162.6 8.04019 162.6 9.33019C162.6 11.1446 165.242 12.6002 168.503 12.6002C171.764 12.6002 174.405 11.1446 174.405 9.33079C174.432 8.09479 173.085 6.96859 171.09 6.446" fill="#ED1A01"/>
</g>
<path d="M130.736 4.7544C130.897 3.8196 130.463 3.5904 129.698 3.5904H128.779C128.194 3.5904 128.048 3.6324 127.952 4.1688L127.546 6.4308H128.947C129.349 6.4308 129.589 6.303 129.747 6.138C129.823 6.054 129.886 5.9592 129.933 5.8566C129.971 5.7726 130.006 5.688 130.036 5.601L130.058 5.5482L130.439 5.5422L129.995 8.0124H129.61C129.719 7.3626 129.529 7.0212 128.849 7.0212H127.435L126.978 9.5688C126.866 10.1916 126.994 10.2078 127.577 10.2078H128.891C129.548 10.2078 129.908 9.9702 130.138 9.0942H130.52L130.175 10.8H125.4L126.515 4.5828C126.619 4.0068 126.657 3.7368 126.55 3.5832C126.442 3.4296 126.216 3.3936 125.743 3.3144L125.612 3.2904L125.678 3H131.4L131.12 4.7568L130.736 4.7544Z" fill="#1F1A17"/>
<path d="M132.678 7.3789C132.806 7.4611 132.954 7.5427 133.097 7.6231C133.668 7.9711 134.238 8.4049 134.08 9.2617C133.879 10.3603 132.842 10.8001 131.69 10.8001C131.388 10.801 131.087 10.7761 130.789 10.7257C130.558 10.6867 130.327 10.6267 130.2 10.5937L130.38 9.6757C130.727 9.9343 131.196 10.2679 131.822 10.2679C132.541 10.2679 132.859 9.9235 132.928 9.5509C132.977 9.2923 132.863 9.0931 132.661 8.9161C132.549 8.82132 132.431 8.73564 132.306 8.6599C132.177 8.5771 132.028 8.4949 131.885 8.4157C131.315 8.0749 130.738 7.6711 130.88 6.8947C131.029 6.0889 131.735 5.4001 133.112 5.4001C133.376 5.4013 133.64 5.4271 133.9 5.4769C134.075 5.5099 134.218 5.5465 134.315 5.5711L134.4 5.5945L134.24 6.4807C134.158 6.4207 134.102 6.3769 134.033 6.3277C133.944 6.26372 133.851 6.2056 133.754 6.1537C133.504 6.0131 133.222 5.9374 132.935 5.9335C132.567 5.9335 132.122 6.0643 132.035 6.5173C131.988 6.7615 132.104 6.9565 132.306 7.1275C132.418 7.2175 132.538 7.2991 132.664 7.3717L132.678 7.3789ZM135.958 5.4889L136.109 4.6291L137.466 3.6001L137.131 5.4889H138.6L138.513 5.9809H137.043L136.477 9.1741C136.34 9.9463 136.336 10.2631 137.173 10.2631C137.318 10.2631 137.464 10.2481 137.606 10.2181L137.524 10.7095C137.269 10.7618 137.011 10.7921 136.751 10.8001C135.67 10.8001 135.046 10.6291 135.275 9.3433L135.872 5.9755H135L135.087 5.4841L135.958 5.4889V5.4889ZM141.397 7.8001L141.514 7.2583C141.644 6.5491 141.774 5.8279 141.075 5.8279C140.356 5.8279 140.179 6.3919 140.083 6.8659C140.083 6.8809 140.073 6.9259 140.071 6.9415H138.616C138.902 6.1657 139.445 5.4001 141.131 5.4001C142.816 5.4001 142.928 6.2239 142.725 7.3159L142.101 10.6783H140.877L140.989 10.0777C140.912 10.1497 140.859 10.1995 140.809 10.2421C140.701 10.3357 140.584 10.4209 140.461 10.4965C140.134 10.6974 139.758 10.8026 139.375 10.8001C138.45 10.8001 137.893 10.1737 138.017 9.5083C138.305 7.9627 140.616 7.8223 141.395 7.8019L141.397 7.8001ZM139.396 9.3319C139.303 9.8311 139.505 10.1599 139.916 10.1599C140.577 10.1599 141.086 9.5935 141.226 8.8519L141.339 8.2423C140.832 8.2591 139.581 8.3515 139.399 9.3301L139.396 9.3319ZM139.399 9.3301C139.305 9.8299 139.508 10.1593 139.918 10.1593C140.58 10.1593 141.088 9.5923 141.228 8.8501L141.341 8.2411C140.834 8.2579 139.583 8.3503 139.401 9.3289L139.399 9.3301ZM141.397 7.8001L141.514 7.2589C141.644 6.5497 141.774 5.8285 141.075 5.8285C140.356 5.8285 140.179 6.3925 140.083 6.8665C140.083 6.8815 140.073 6.9265 140.071 6.9421H138.616C138.902 6.1663 139.445 5.4007 141.131 5.4007C142.816 5.4007 142.928 6.2245 142.725 7.3165L142.101 10.6789H140.877L140.989 10.0783C140.912 10.1503 140.859 10.2001 140.809 10.2427C140.701 10.3363 140.584 10.4215 140.461 10.4971C140.134 10.698 139.758 10.8032 139.375 10.8007C138.45 10.8007 137.893 10.1743 138.017 9.5089C138.305 7.9633 140.616 7.8229 141.395 7.8025" fill="#1F1A17"/>
<path d="M148.8 2.3999L147.354 10.6697H146.129L146.237 10.0517C146.139 10.1333 146.068 10.1903 145.991 10.2491C145.867 10.3451 145.736 10.4315 145.601 10.5095C145.272 10.6981 144.901 10.7981 144.522 10.7999C142.97 10.7999 142.621 9.4979 142.876 8.0243C143.136 6.5315 143.998 5.0285 145.565 5.0285C146.497 5.0285 146.8 5.4869 146.963 5.8709C146.993 5.76766 147.016 5.66239 147.031 5.5559L147.139 4.9151C147.215 4.4591 147.292 4.0175 147.292 4.0175C147.428 3.2363 147.3 3.0317 146.705 2.9855L146.585 2.9759L146.643 2.6969L148.8 2.3999ZM146.671 7.5671C146.788 6.8999 146.863 5.7203 145.784 5.7203C144.731 5.7203 144.392 7.0403 144.248 7.8707C144.086 8.7899 143.954 10.1159 145.019 10.1159C146.12 10.1159 146.479 8.6831 146.59 8.0477L146.671 7.5671V7.5671ZM151.417 5.4011C153.184 5.4011 153.833 6.5195 153.527 8.1095C153.184 9.9095 152.189 10.7999 150.394 10.7999C148.433 10.7999 147.992 9.6479 148.28 8.1011C148.633 6.2573 149.644 5.3999 151.417 5.3999V5.4011ZM152.152 8.1011C152.348 7.0745 152.474 5.8229 151.352 5.8229C150.188 5.8229 149.849 7.1351 149.662 8.1095C149.484 9.0389 149.317 10.3775 150.469 10.3775C151.621 10.3775 151.94 9.2147 152.152 8.1023V8.1011ZM152.152 8.1023C152.348 7.0757 152.474 5.8241 151.352 5.8241C150.188 5.8241 149.849 7.1363 149.662 8.1107C149.484 9.0407 149.317 10.3787 150.469 10.3787C151.621 10.3787 151.94 9.2147 152.152 8.1023ZM151.417 5.4011C153.184 5.4011 153.833 6.5195 153.527 8.1095C153.184 9.9095 152.189 10.7999 150.394 10.7999C148.433 10.7999 147.992 9.6479 148.28 8.1011C148.633 6.2573 149.644 5.3999 151.417 5.3999V5.4011ZM101.056 9.7637C100.982 10.1981 101.392 10.2059 102.025 10.2059C103.243 10.2059 103.853 9.6509 104.051 8.4899C104.241 7.3739 103.505 6.9767 102.525 6.9767H101.532L101.056 9.7637V9.7637ZM105.566 4.8947C105.38 5.9951 104.556 6.4487 103.975 6.6455C104.713 6.8195 105.543 7.2665 105.298 8.7173C105.118 9.7583 104.448 10.2851 103.721 10.5407C103.366 10.6609 102.998 10.7369 102.625 10.7669C102.277 10.7999 101.962 10.7999 101.731 10.7999H99.6L100.655 4.5869C100.752 4.0109 100.79 3.7409 100.69 3.5879C100.589 3.4343 100.318 3.3731 99.8124 3.2879L99.8622 2.9999H103.207C104.488 2.9999 105.834 3.3107 105.566 4.8959V4.8947V4.8947ZM101.63 6.3839H102.35C103.306 6.3839 104.088 6.0659 104.273 4.9439C104.448 3.9299 103.952 3.5915 102.944 3.5915C102.275 3.5915 102.099 3.6263 102.006 4.1693L101.63 6.3833V6.3839Z" fill="#191313"/>
<path d="M108.398 7.7987L108.516 7.2575C108.646 6.5483 108.775 5.8265 108.076 5.8265C107.377 5.8265 107.185 6.3761 107.09 6.8483C107.09 6.8687 107.078 6.9209 107.074 6.9419H105.621C105.908 6.1655 106.449 5.3999 108.133 5.3999C109.817 5.3999 109.927 6.2237 109.725 7.3163L109.099 10.6781H107.876L107.989 10.0769C107.912 10.1489 107.859 10.1987 107.809 10.2413C107.699 10.3352 107.582 10.4204 107.459 10.4963C107.133 10.6976 106.757 10.8028 106.373 10.7999C105.449 10.7999 104.893 10.1735 105.017 9.5075C105.305 7.9619 107.612 7.8215 108.391 7.8011L108.398 7.7987ZM106.393 9.3311C106.3 9.8309 106.501 10.1597 106.912 10.1597C107.571 10.1597 108.08 9.5933 108.22 8.8505L108.333 8.2415C107.827 8.2583 106.577 8.3507 106.395 9.3299L106.393 9.3311ZM106.395 9.3299C106.302 9.8297 106.503 10.1585 106.915 10.1585C107.574 10.1585 108.082 9.5921 108.223 8.8493L108.335 8.2403C107.83 8.2571 106.58 8.3495 106.398 9.3287L106.395 9.3299ZM108.398 7.7987L108.516 7.2575C108.646 6.5483 108.775 5.8265 108.076 5.8265C107.377 5.8265 107.185 6.3761 107.09 6.8483C107.09 6.8687 107.078 6.9209 107.074 6.9419H105.621C105.908 6.1655 106.449 5.3999 108.133 5.3999C109.817 5.3999 109.927 6.2237 109.725 7.3163L109.099 10.6781H107.876L107.989 10.0769C107.912 10.1489 107.859 10.1987 107.809 10.2413C107.699 10.3352 107.582 10.4204 107.459 10.4963C107.133 10.6976 106.757 10.8028 106.373 10.7999C105.449 10.7999 104.893 10.1735 105.017 9.5075C105.305 7.9619 107.612 7.8215 108.391 7.8011" fill="#191313"/>
<path d="M113.778 7.8641C113.941 6.9581 114.069 6.2201 113.326 6.2201C112.582 6.2201 111.727 7.2485 111.584 8.0411L111.084 10.7999H109.866L110.553 7.0091C110.689 6.2615 110.553 6.0743 109.906 6.0419L109.8 6.0329L109.852 5.7677L112.069 5.3999L111.818 6.7859C112.194 6.2525 112.96 5.4047 114.006 5.4047C115.091 5.4047 115.312 6.1529 115.154 7.0169L114.464 10.7999H113.246L113.778 7.8641ZM119.15 6.9539C119.24 6.4475 119.23 5.8217 118.554 5.8217C117.788 5.8217 117.464 6.6083 117.263 7.6697C116.963 9.2915 117.588 10.1573 118.621 10.1573C118.991 10.1534 119.36 10.1059 119.719 10.0157L119.775 9.9983L119.682 10.5365C119.469 10.6121 119.25 10.6733 119.028 10.7207C118.681 10.7807 118.33 10.8065 117.978 10.7987C116.329 10.7987 115.558 9.6923 115.867 8.0243C116.146 6.5123 117.008 5.3999 118.69 5.3999C119.951 5.3999 120.703 5.9867 120.589 6.8573C120.589 6.8765 120.578 6.9317 120.576 6.9509L119.15 6.9533V6.9539Z" fill="#191313"/>
<path d="M123.216 5.4011C124.981 5.4011 125.631 6.5195 125.327 8.1095C124.982 9.9095 123.989 10.7999 122.192 10.7999C120.234 10.7999 119.791 9.6479 120.08 8.1011C120.434 6.2573 121.447 5.3999 123.216 5.3999V5.4011ZM123.951 8.1011C124.147 7.0745 124.273 5.8229 123.151 5.8229C121.982 5.8241 121.639 7.1411 121.456 8.1095C121.279 9.0389 121.113 10.3775 122.264 10.3775C123.416 10.3775 123.74 9.2147 123.952 8.1023L123.951 8.1011ZM123.952 8.1023C124.148 7.0757 124.274 5.8241 123.152 5.8241C121.982 5.8241 121.639 7.1411 121.456 8.1101C121.279 9.0389 121.113 10.3781 122.264 10.3781C123.416 10.3781 123.74 9.2141 123.952 8.1023ZM123.217 5.4011C124.982 5.4011 125.632 6.5195 125.328 8.1095C124.982 9.9095 123.988 10.7999 122.192 10.7999C120.234 10.7999 119.791 9.6479 120.08 8.1011C120.434 6.2573 121.447 5.3999 123.216 5.3999" fill="#191313"/>
<path d="M83.4 0.600098H96V13.2001H83.4V0.600098Z" fill="#C1133B"/>
<path d="M96 6.9179L90.6012 2.3999L90.6 2.4011V10.7987L96 10.7999V6.9179Z" fill="#F39800"/>
<path d="M90.3204 3.6077V2.3999C89.7046 3.08144 88.8798 3.53902 87.9756 3.7007V4.6355L87.1158 5.0279V5.8319L83.4 7.3457V10.7999H91.2V3.2171L90.3204 3.6077V3.6077Z" fill="white"/>
<path d="M88.2 5.3999L87.4584 5.6819C87.4155 5.69936 87.3783 5.72842 87.351 5.76582C87.3236 5.80323 87.3072 5.84751 87.3036 5.8937V6.4697C87.3011 6.51498 87.2845 6.55835 87.2562 6.59382C87.228 6.62928 87.1894 6.6551 87.1458 6.6677L83.4 8.1179V8.9999L87.162 7.5299C87.2045 7.51196 87.2411 7.48262 87.2679 7.44513C87.2947 7.40764 87.3106 7.36347 87.3138 7.3175V6.7451C87.3163 6.70191 87.3312 6.66035 87.3568 6.62544C87.3823 6.59052 87.4174 6.56373 87.4578 6.5483L88.2 6.2663V5.3999ZM88.2 7.1999L87.4584 7.4801C87.4154 7.49766 87.3782 7.52683 87.3509 7.56434C87.3236 7.60185 87.3072 7.64622 87.3036 7.6925V8.2673C87.3009 8.31253 87.2843 8.35582 87.256 8.39125C87.2278 8.42669 87.1893 8.45255 87.1458 8.4653L83.4 9.9359V10.7999L87.162 9.3251C87.2045 9.30722 87.2412 9.27789 87.268 9.24039C87.2948 9.20289 87.3107 9.15869 87.3138 9.1127V8.5427C87.3166 8.49965 87.3316 8.45829 87.3571 8.42352C87.3826 8.38874 87.4176 8.36202 87.4578 8.3465L88.2 8.0645V7.1999Z" fill="#C1133B"/>
<path d="M83.4 10.8003H96V12.6003H83.4V10.8003Z" fill="#07498F"/>
<path d="M86.7864 11.9867L86.7744 12.0773C86.7581 12.169 86.7201 12.2554 86.6634 12.3293C86.6421 12.3645 86.6099 12.3919 86.5716 12.4073C86.5524 12.4073 86.5416 12.3773 86.5422 12.3311C86.5476 12.2387 86.5668 12.1487 86.5992 12.0671C86.6214 12.0017 86.6652 11.9549 86.7168 11.9411C86.742 11.9411 86.7672 11.9555 86.7852 11.9801L86.7864 11.9861V11.9867ZM87 11.3999L86.862 11.4215L86.8044 11.8379C86.7739 11.8203 86.7387 11.8123 86.7036 11.8151C86.5434 11.8151 86.4048 12.0671 86.4 12.3791C86.4 12.5171 86.436 12.5999 86.5044 12.5999C86.5622 12.5894 86.6144 12.5585 86.6514 12.5129C86.6766 12.4853 86.6994 12.4529 86.7186 12.4169C86.7288 12.3971 86.7384 12.3767 86.7468 12.3551L86.7204 12.5723H86.8494L87 11.3999ZM87.4266 12.1499C87.4259 12.1622 87.4222 12.1742 87.4158 12.1847L87.1758 12.2921C87.1923 12.2364 87.2224 12.1856 87.2634 12.1445C87.29 12.1161 87.3266 12.0993 87.3654 12.0977C87.405 12.0977 87.4254 12.1157 87.4242 12.1505L87.4266 12.1499ZM87.6 12.1181C87.6 12.0401 87.5364 11.9999 87.405 11.9999C87.1734 11.9999 87.0072 12.1631 87 12.3983C87 12.5333 87.06 12.5999 87.1938 12.5999C87.259 12.599 87.3234 12.5853 87.3834 12.5597C87.411 12.5477 87.4374 12.5345 87.4632 12.5195C87.5028 12.4961 87.5208 12.4865 87.564 12.4595L87.4968 12.3725C87.4464 12.407 87.392 12.4355 87.3348 12.4571C87.3066 12.4661 87.2774 12.4714 87.2478 12.4727C87.2352 12.4726 87.2227 12.47 87.2112 12.465C87.1996 12.4599 87.1892 12.4525 87.1806 12.4433C87.1705 12.4283 87.1643 12.411 87.1626 12.3929L87.4704 12.2615C87.5454 12.2399 87.5964 12.1835 87.6 12.1181V12.1181ZM88.2 12.0299C88.1284 12.0087 88.0539 11.9986 87.9792 11.9999C87.7968 11.9999 87.6906 12.0617 87.6882 12.1661C87.6879 12.183 87.6912 12.1998 87.6979 12.2153C87.7047 12.2309 87.7146 12.2448 87.7272 12.2561C87.747 12.2741 87.7674 12.2903 87.789 12.3065C87.7968 12.3065 87.8274 12.3305 87.8796 12.3659C87.9324 12.4013 87.9336 12.4097 87.9336 12.4313C87.9336 12.4529 87.8952 12.4799 87.8352 12.4799C87.775 12.478 87.7152 12.4679 87.6576 12.4499L87.6 12.5681C87.6897 12.5877 87.7812 12.5982 87.873 12.5993C87.9364 12.6044 87.9996 12.589 88.0536 12.5555C88.0764 12.5424 88.0958 12.524 88.1101 12.5018C88.1244 12.4797 88.1332 12.4545 88.1358 12.4283C88.1358 12.3683 88.104 12.3305 87.9924 12.2597C87.906 12.2057 87.8952 12.1979 87.882 12.1805C87.8763 12.1738 87.8731 12.1653 87.873 12.1565C87.873 12.1295 87.9114 12.1133 87.9744 12.1133C88.0314 12.1139 88.0878 12.1265 88.1358 12.1505L88.2 12.0305V12.0299ZM89.1834 11.9921L89.1714 12.0839C89.1547 12.1765 89.1165 12.2638 89.0598 12.3389C89.0385 12.3742 89.0063 12.4016 88.968 12.4169C88.9488 12.4169 88.938 12.3869 88.9392 12.3401C88.9452 12.2465 88.9668 12.1553 89.0004 12.0737C89.0226 12.0077 89.0664 11.9603 89.1174 11.9465C89.1432 11.9465 89.1678 11.9609 89.1858 11.9861L89.1834 11.9921V11.9921ZM89.4 11.3999L89.2608 11.4215L89.2044 11.8415C89.1751 11.8201 89.1399 11.8081 89.1036 11.8073C88.9434 11.8073 88.8054 12.0623 88.8 12.3773C88.8 12.5153 88.8366 12.5999 88.905 12.5999C88.9628 12.5893 89.0147 12.5582 89.0514 12.5123C89.0778 12.483 89.1002 12.4503 89.118 12.4151C89.1288 12.3953 89.1378 12.3743 89.1468 12.3527L89.121 12.5831H89.25L89.4 11.3999ZM89.823 12.1511C89.8225 12.1631 89.8192 12.1748 89.8134 12.1853L89.5758 12.2933C89.5919 12.2376 89.6218 12.1868 89.6628 12.1457C89.6885 12.1174 89.7243 12.1004 89.7624 12.0983C89.8014 12.0983 89.8218 12.1169 89.8206 12.1511H89.823ZM89.9928 12.1181C89.9928 12.0401 89.9286 11.9999 89.8008 11.9999C89.5698 11.9999 89.4072 12.1631 89.4 12.3983C89.4 12.5333 89.4594 12.5999 89.5914 12.5999C89.6574 12.5999 89.7228 12.5861 89.7816 12.5609C89.8086 12.5489 89.835 12.5357 89.8596 12.5207C89.8992 12.4973 89.9166 12.4877 89.9598 12.4607L89.8998 12.3725C89.8497 12.4072 89.7955 12.4356 89.7384 12.4571C89.7109 12.4661 89.6822 12.4714 89.6532 12.4727C89.6408 12.4727 89.6285 12.4701 89.6171 12.465C89.6057 12.46 89.5956 12.4526 89.5872 12.4433C89.5769 12.4284 89.5709 12.411 89.5698 12.3929L89.8728 12.2615C89.9466 12.2393 89.997 12.1829 90 12.1181H89.9928ZM91.2 11.9999H91.086L90.6 12.1091L90.654 12.2261L90.9114 12.1637L90.7842 12.5999H91.0236L91.2 11.9999ZM91.611 12.2741C91.6008 12.3779 91.5384 12.4541 91.4658 12.4517C91.3968 12.4517 91.3518 12.3953 91.353 12.3107C91.3566 12.2383 91.3862 12.1697 91.4364 12.1175L91.506 12.0515L91.5792 12.1517C91.6024 12.1866 91.6137 12.2281 91.6116 12.2699L91.611 12.2741ZM91.6476 11.6621C91.648 11.7039 91.6323 11.7443 91.6038 11.7749L91.5318 11.8409L91.488 11.7635C91.4737 11.7357 91.4667 11.7047 91.4676 11.6735C91.4754 11.6015 91.5198 11.5493 91.5708 11.5535C91.5906 11.5517 91.611 11.5619 91.6248 11.5829C91.64 11.606 91.6473 11.6333 91.6458 11.6609L91.6476 11.6621ZM91.8 11.6189C91.8 11.4773 91.7256 11.3999 91.5948 11.3999C91.4328 11.3999 91.3164 11.5085 91.314 11.6651C91.3152 11.7431 91.3368 11.8169 91.374 11.8721L91.4262 11.9501L91.3224 12.0485C91.248 12.1282 91.2046 12.2318 91.2 12.3407C91.2 12.5099 91.278 12.5999 91.4316 12.5999C91.6272 12.5999 91.7646 12.4727 91.7664 12.2867C91.7661 12.2007 91.737 12.1172 91.6836 12.0497L91.6038 11.9513L91.6818 11.8733C91.7175 11.841 91.746 11.8017 91.7657 11.7578C91.7853 11.7139 91.7956 11.6664 91.7958 11.6183L91.8 11.6189ZM92.4 11.3999H92.0052L91.9254 11.9939H92.0082C92.0511 11.9958 92.0925 12.0104 92.127 12.0359C92.157 12.0659 92.1714 12.1157 92.1666 12.1655C92.169 12.3053 92.0898 12.4235 91.9854 12.4355C91.936 12.4319 91.8884 12.4153 91.8474 12.3875L91.8 12.5513C91.854 12.5825 91.9128 12.5993 91.9716 12.5999C92.1642 12.5969 92.3214 12.3941 92.3298 12.1379C92.3382 12.0299 92.2968 11.9279 92.2254 11.8775C92.1875 11.8539 92.1441 11.8409 92.0994 11.8397L92.1354 11.5757H92.3736L92.4 11.3999ZM93 11.3999H92.604L92.5248 11.9939H92.6076C92.6505 11.9959 92.6918 12.0105 92.7264 12.0359C92.7414 12.0537 92.7526 12.0744 92.7594 12.0967C92.7662 12.1189 92.7685 12.1423 92.766 12.1655C92.769 12.3053 92.6892 12.4235 92.5848 12.4355C92.5354 12.4318 92.4878 12.4153 92.4468 12.3875L92.4 12.5513C92.454 12.5825 92.5128 12.5993 92.5722 12.5999C92.7648 12.5969 92.9226 12.3941 92.931 12.1379C92.9388 12.0305 92.8974 11.9279 92.826 11.8775C92.7875 11.8538 92.7434 11.8408 92.6982 11.8397L92.7336 11.5757H92.9718L93 11.3999Z" fill="white"/>
<path d="M275.143 13.7154C274.895 13.717 274.656 13.62 274.479 13.4458C274.302 13.2715 274.202 13.0342 274.2 12.786V0.93C274.2 0.417 274.623 0 275.143 0H294.256C294.776 0 295.2 0.417 295.2 0.9294V12.786C295.2 13.2984 294.777 13.7154 294.257 13.7154H275.143V13.7154Z" fill="url(#paint0_linear)"/>
<path d="M275.143 13.5995C274.926 13.601 274.717 13.5161 274.562 13.3636C274.407 13.211 274.319 13.0033 274.317 12.7859V0.929922C274.317 0.481122 274.688 0.115723 275.143 0.115723H294.256C294.712 0.115723 295.082 0.481122 295.082 0.929922V12.7859C295.082 13.2347 294.712 13.5995 294.256 13.5995H275.143V13.5995Z" fill="#D4D5D6"/>
<path d="M289.517 13.5996C287.693 7.44004 285.286 3.63123 281.863 0.426034L281.517 0.115234H275.143C274.687 0.115234 274.317 0.480635 274.317 0.929435V12.786C274.317 13.2348 274.688 13.5996 275.143 13.5996H289.517V13.5996Z" fill="#3397C9"/>
<path d="M287.355 13.5996C286.406 8.17144 284.536 3.61083 281.35 0.426034L281.003 0.115234H275.143C274.687 0.115234 274.317 0.480635 274.317 0.929435V12.786C274.317 13.2348 274.688 13.5996 275.143 13.5996H287.355V13.5996Z" fill="#0071CE"/>
<path d="M275.994 5.62929C275.994 5.62929 275.798 6.28689 275.665 6.81729L275.61 7.02429C275.585 7.12029 275.65 7.12389 275.65 7.12389H276.018L275.928 7.45389H275.524C275.524 7.45389 275.328 7.46409 275.238 7.36989C275.148 7.27569 275.17 7.16289 275.177 7.10649C275.183 7.06269 275.357 6.41349 275.357 6.41349L275.58 5.62929H275.994ZM277.262 6.59829C277.187 6.71349 277.132 6.93549 277.214 7.08129C277.3 7.23369 277.595 7.23549 277.736 7.12929C277.889 7.01469 277.94 6.67629 277.997 6.46989C277.756 6.26049 277.397 6.39429 277.262 6.59889V6.59829ZM278.597 5.62809L278.299 6.82209C278.115 7.43829 277.484 7.45089 277.484 7.45089C277.121 7.47849 276.807 7.33389 276.773 7.01589C276.703 6.34689 277.433 5.93169 278.071 6.18789C278.11 5.99589 278.181 5.81949 278.22 5.62629L278.597 5.62809ZM279.205 6.66309C279.367 6.65229 279.659 6.59829 279.605 6.44589C279.573 6.35289 279.385 6.33789 279.271 6.35709C279.094 6.38829 278.965 6.51849 278.895 6.63909C278.997 6.66309 279.101 6.67089 279.205 6.66309ZM278.822 6.87249C278.755 7.30089 279.41 7.23669 279.622 7.07349C279.598 7.17069 279.595 7.28769 279.574 7.38669C279.059 7.53969 278.474 7.43049 278.423 6.97629C278.36 6.43029 278.819 6.14229 279.295 6.10809C279.568 6.08829 279.88 6.13569 279.964 6.32529C280.016 6.43989 279.973 6.59289 279.907 6.67089C279.715 6.90129 279.198 6.95709 278.822 6.87189V6.87249ZM281.221 6.13209L281.115 6.42969C281.01 6.39969 280.965 6.34389 280.822 6.35769C280.451 6.39369 280.364 6.85749 280.294 7.23009L280.257 7.45449H279.873C279.977 7.02369 280.084 6.55929 280.192 6.13269H280.572L280.552 6.23709C280.708 6.13509 280.973 6.07269 281.221 6.13269V6.13209ZM276.82 6.13929C276.722 6.57309 276.607 7.01649 276.512 7.45449H276.12C276.201 7.10769 276.284 6.76269 276.365 6.41709L276.161 6.41649L276.232 6.13929H276.82V6.13929ZM276.893 5.79969C276.893 5.93469 276.782 5.99109 276.646 5.99109C276.509 5.99109 276.398 5.90529 276.398 5.79969C276.398 5.69469 276.509 5.60889 276.646 5.60889C276.782 5.60889 276.893 5.69409 276.893 5.79969Z" fill="white"/>
<path d="M283.062 6.03396C283.137 6.03396 283.198 5.99556 283.206 5.94636L283.28 5.12796C283.28 5.04756 283.183 4.98096 283.063 4.98096C282.942 4.98096 282.845 5.04696 282.845 5.12796L282.919 5.94696C282.927 5.99616 282.988 6.03396 283.063 6.03396H283.062ZM282.613 6.28956C282.65 6.22596 282.647 6.15516 282.608 6.12336L281.925 5.65116C281.854 5.61096 281.748 5.65956 281.687 5.76336C281.627 5.86656 281.638 5.98116 281.708 6.02136L282.464 6.36816C282.512 6.38496 282.576 6.35196 282.613 6.28896L282.613 6.28956ZM283.512 6.28956C283.549 6.35256 283.613 6.38556 283.66 6.36816L284.416 6.02136C284.487 5.98116 284.497 5.86536 284.438 5.76336C284.378 5.66136 284.27 5.61156 284.2 5.65176L283.517 6.12396C283.478 6.15636 283.475 6.22716 283.512 6.29016V6.28956V6.28956ZM283.062 7.05576C283.137 7.05576 283.198 7.09416 283.206 7.14336L283.28 7.96116C283.28 8.04216 283.183 8.10876 283.063 8.10876C282.942 8.10876 282.845 8.04216 282.845 7.96116L282.919 7.14336C282.927 7.09416 282.988 7.05636 283.063 7.05636L283.062 7.05576ZM283.512 6.80076C283.549 6.73716 283.613 6.70476 283.66 6.72216L284.416 7.06836C284.487 7.10856 284.497 7.22436 284.438 7.32696C284.378 7.43016 284.27 7.47936 284.2 7.43856L283.517 6.96696C283.478 6.93456 283.475 6.86376 283.512 6.80076V6.80076ZM282.613 6.80076C282.65 6.86436 282.647 6.93516 282.608 6.96756L281.925 7.43856C281.854 7.47936 281.748 7.43016 281.687 7.32756C281.627 7.22496 281.638 7.10916 281.708 7.06836L282.464 6.72216C282.512 6.70416 282.576 6.73836 282.613 6.80136L282.613 6.80076ZM284.893 7.33596C284.954 7.33689 285.014 7.35349 285.067 7.38417C285.12 7.41484 285.164 7.45857 285.195 7.51116C285.225 7.56456 285.242 7.62516 285.242 7.68696C285.242 7.74852 285.225 7.80889 285.194 7.86212C285.163 7.91536 285.119 7.95962 285.066 7.99056C284.985 8.03607 284.89 8.04798 284.801 8.02372C284.711 7.99946 284.635 7.94098 284.589 7.86096C284.543 7.7801 284.53 7.68421 284.555 7.59433C284.579 7.50445 284.638 7.42793 284.719 7.38156C284.772 7.35188 284.832 7.33619 284.893 7.33596V7.33596ZM284.893 7.39536C284.816 7.39567 284.743 7.42618 284.688 7.4803C284.634 7.53441 284.603 7.60779 284.602 7.68456C284.602 7.73571 284.615 7.78609 284.64 7.83058C284.665 7.87508 284.702 7.9121 284.746 7.93788C284.79 7.96366 284.84 7.97728 284.891 7.97736C284.943 7.97745 284.993 7.96399 285.037 7.93836C285.093 7.90701 285.138 7.85779 285.163 7.79848C285.188 7.73917 285.193 7.67315 285.176 7.61086C285.16 7.54856 285.123 7.49355 285.072 7.45453C285.02 7.4155 284.958 7.39468 284.893 7.39536ZM284.739 7.87836V7.50276H284.869C284.901 7.50145 284.933 7.50488 284.964 7.51296C284.983 7.51896 285 7.53216 285.011 7.54896C285.023 7.5653 285.029 7.58484 285.028 7.60476C285.028 7.61803 285.026 7.63121 285.021 7.64348C285.016 7.65576 285.008 7.66687 284.999 7.67616C284.978 7.69692 284.951 7.70916 284.922 7.71036C284.933 7.71504 284.944 7.72175 284.953 7.73016C284.974 7.75275 284.993 7.77794 285.008 7.80516L285.056 7.87836H284.982L284.949 7.81956C284.934 7.78667 284.912 7.75696 284.886 7.73196C284.872 7.72235 284.855 7.71771 284.838 7.71876H284.802V7.87836H284.739V7.87836ZM284.8 7.66656H284.873C284.898 7.66908 284.923 7.66362 284.945 7.65096C284.955 7.64235 284.962 7.63041 284.964 7.61737C284.965 7.60434 284.962 7.5911 284.955 7.58016C284.949 7.57072 284.94 7.56356 284.929 7.55976C284.91 7.55421 284.889 7.55217 284.869 7.55376H284.8V7.66656V7.66656Z" fill="#FFB71B"/>
<path d="M287.499 7.79895C287.503 7.88661 287.542 7.96908 287.606 8.02825C287.671 8.08742 287.757 8.11846 287.845 8.11455C287.888 8.11331 287.931 8.10345 287.971 8.08553C288.011 8.06762 288.047 8.042 288.077 8.01015C288.107 7.97892 288.13 7.94207 288.145 7.90178C288.16 7.86149 288.167 7.81856 288.166 7.77555C288.166 7.53855 288.304 7.37775 288.493 7.19655C288.691 7.05315 288.971 6.87855 289.369 6.66015C289.862 6.40155 290.183 6.09615 290.254 5.84775L290.256 5.83995C290.268 5.78996 290.269 5.73774 290.258 5.68746C290.246 5.63719 290.224 5.59024 290.191 5.55037C290.158 5.5105 290.117 5.47881 290.07 5.45784C290.023 5.43686 289.971 5.42717 289.92 5.42955C289.832 5.43244 289.749 5.46997 289.688 5.53395C289.659 5.56517 289.636 5.60201 289.62 5.64229C289.605 5.68258 289.598 5.7255 289.6 5.76855C289.6 6.01815 289.447 6.18315 289.241 6.37695C288.98 6.57855 288.697 6.74895 288.397 6.88395C287.903 7.14195 287.582 7.44795 287.511 7.69635L287.509 7.70415C287.5 7.73495 287.497 7.767 287.499 7.79895V7.79895Z" fill="#EA3942"/>
<path d="M289.487 6.80112C289.487 6.80112 289.845 6.89472 289.733 7.39092C289.725 7.42893 289.724 7.46837 289.732 7.50653C289.74 7.54469 289.756 7.58067 289.78 7.61199C289.803 7.64331 289.833 7.66923 289.867 7.68797C289.901 7.70671 289.939 7.71782 289.978 7.72054C290.017 7.72326 290.056 7.71752 290.092 7.70372C290.129 7.68992 290.162 7.66839 290.189 7.6406C290.216 7.61282 290.237 7.57944 290.251 7.54276C290.264 7.50608 290.269 7.46697 290.266 7.42812C290.241 7.08312 289.581 6.66012 289.492 6.67212C289.492 6.67212 289.44 6.67332 289.438 6.73872C289.438 6.75317 289.442 6.76732 289.451 6.77872C289.46 6.79012 289.473 6.79804 289.487 6.80112V6.80112Z" fill="#0F9247"/>
<path d="M289.376 6.96429C289.376 6.96429 289.61 7.02549 289.538 7.34949C289.538 7.34949 289.46 7.65549 288.964 7.73649C288.402 7.82769 288.411 7.62489 288.411 7.62489C288.407 7.52409 288.368 7.40229 288.925 7.06929C288.925 7.06869 289.207 6.90009 289.376 6.96429V6.96429Z" fill="#F6D208"/>
<path d="M288.021 5.46374C288.054 5.90534 288.695 6.43334 289.079 6.63854C289.183 6.69434 289.313 6.68234 289.35 6.66854C289.526 6.58934 289.337 6.52334 289.337 6.52334C289.337 6.52334 288.731 6.36494 288.921 5.52734C288.935 5.46327 288.936 5.39684 288.922 5.33259C288.908 5.26834 288.881 5.2078 288.842 5.15509C288.803 5.10239 288.753 5.05878 288.695 5.02723C288.637 4.99569 288.574 4.97696 288.508 4.97233C288.443 4.96769 288.377 4.97727 288.315 5.00039C288.254 5.02352 288.198 5.05965 288.152 5.10631C288.106 5.15297 288.07 5.20907 288.048 5.27076C288.025 5.33245 288.016 5.39827 288.021 5.46374V5.46374Z" fill="#2C72B3"/>
<path d="M294.116 7.88096H294.542V6.06896H294.116V7.88096ZM294.329 5.87696C294.39 5.876 294.448 5.85078 294.491 5.80684C294.533 5.7629 294.557 5.70384 294.556 5.64266C294.555 5.58147 294.53 5.52317 294.486 5.48058C294.442 5.43799 294.383 5.4146 294.322 5.41556C294.26 5.41651 294.202 5.44176 294.159 5.48576C294.117 5.52976 294.093 5.58889 294.094 5.65016C294.095 5.71142 294.12 5.7698 294.164 5.81244C294.208 5.85509 294.267 5.87851 294.329 5.87756V5.87696ZM292.172 7.17596C292.172 6.96596 292.096 6.76376 291.921 6.64496C292.036 6.52856 292.1 6.37076 292.099 6.20696C292.099 5.84216 291.902 5.53916 291.316 5.53916H290.486V7.88096H291.332C291.956 7.88096 292.172 7.56896 292.172 7.17596V7.17596ZM290.913 5.95436H291.325C291.592 5.95436 291.636 6.07916 291.636 6.20756C291.636 6.33236 291.582 6.46376 291.35 6.46376H290.913V5.95436V5.95436ZM290.913 6.87836H291.351C291.614 6.87836 291.712 6.97256 291.712 7.17596C291.712 7.31936 291.649 7.46576 291.344 7.46576H290.913V6.87896V6.87836ZM293.243 7.50476C292.971 7.50476 292.75 7.27496 292.75 6.99296V6.98696C292.75 6.70316 292.964 6.48056 293.237 6.48056C293.38 6.48056 293.495 6.53396 293.618 6.65516L293.911 6.35096C293.768 6.21296 293.564 6.06896 293.24 6.06896C292.996 6.06927 292.762 6.16645 292.59 6.33913C292.417 6.51182 292.321 6.7459 292.321 6.98996V6.99596C292.32 7.50296 292.73 7.91456 293.237 7.91636C293.492 7.91636 293.709 7.82636 293.896 7.64396L293.594 7.35596C293.483 7.45796 293.372 7.50476 293.243 7.50476V7.50476Z" fill="#211E1E"/>
<path d="M291.921 10.6567H292.866V12.3313H291.921V10.6567Z" fill="#E86D00"/>
<path d="M291.981 11.4943C291.981 11.1661 292.134 10.8565 292.394 10.6567C292.203 10.5085 291.968 10.4283 291.726 10.4287C291.13 10.4287 290.645 10.9057 290.645 11.4943C290.645 12.0823 291.129 12.5593 291.726 12.5593C291.968 12.5598 292.203 12.4795 292.394 12.3313C292.265 12.2327 292.162 12.1059 292.09 11.9608C292.018 11.8157 291.981 11.6561 291.981 11.4943V11.4943Z" fill="#DB0A14"/>
<path d="M294.184 12.8124V12.2328H294.292V12.1128H294.018V12.2328H294.126V12.8124H294.184ZM294.718 12.8124V12.1128H294.634L294.536 12.594L294.44 12.1128H294.355V12.8124H294.415V12.2844L294.506 12.7416H294.566L294.659 12.282V12.8124H294.718V12.8124Z" fill="black"/>
<path d="M294.143 11.4942C294.143 12.0822 293.659 12.5592 293.062 12.5592C292.82 12.5598 292.585 12.4795 292.394 12.3312C292.522 12.2326 292.626 12.1059 292.698 11.9608C292.769 11.8156 292.806 11.656 292.806 11.4942C292.806 11.3324 292.769 11.1728 292.698 11.0276C292.626 10.8825 292.522 10.7558 292.394 10.6572C292.585 10.5089 292.82 10.4286 293.062 10.4292C293.659 10.4292 294.143 10.9056 294.143 11.4942V11.4942Z" fill="#F3A400"/>
<path d="M291.281 13.372V13.0708C291.281 12.9568 291.238 12.8806 291.169 12.8788C291.128 12.8746 291.09 12.9076 291.068 12.9646C291.047 12.9088 291.011 12.8758 290.973 12.8788C290.939 12.8758 290.907 12.9028 290.889 12.9508V12.8908H290.826V13.372H290.89V13.1056C290.89 13.0234 290.917 12.9778 290.96 12.9778C291.002 12.9778 291.022 13.0228 291.022 13.1044V13.372H291.085V13.1056C291.085 13.0234 291.114 12.9778 291.155 12.9778C291.197 12.9778 291.218 13.0228 291.218 13.1044V13.372H291.281V13.372ZM292.214 12.8908H292.112V12.7456H292.049V12.8908H291.991V12.9868H292.049V13.2058C292.049 13.3174 292.075 13.3834 292.149 13.3834C292.164 13.383 292.178 13.3796 292.192 13.3733C292.205 13.367 292.217 13.358 292.227 13.3468L292.209 13.2568C292.195 13.2726 292.175 13.2824 292.154 13.2844C292.123 13.2844 292.112 13.252 292.112 13.2034V12.9862H292.214V12.8908ZM292.747 12.8788C292.715 12.877 292.687 12.9046 292.671 12.9496V12.8908H292.609V13.372H292.672V13.102C292.672 13.0228 292.692 12.9784 292.733 12.9784C292.746 12.9784 292.759 12.9826 292.772 12.9904L292.791 12.892C292.778 12.8838 292.762 12.8793 292.747 12.8788V12.8788ZM291.941 12.9292C291.926 12.9129 291.908 12.9 291.887 12.8913C291.867 12.8826 291.845 12.8783 291.823 12.8788C291.751 12.8788 291.704 12.9376 291.704 13.033C291.704 13.111 291.739 13.1596 291.803 13.1746L291.833 13.1818C291.866 13.1896 291.883 13.2052 291.883 13.2316C291.883 13.2694 291.86 13.2904 291.817 13.2904C291.783 13.2922 291.749 13.2748 291.722 13.24L291.692 13.3222C291.729 13.3648 291.773 13.3864 291.817 13.3846C291.899 13.3846 291.947 13.3192 291.947 13.228C291.947 13.1428 291.91 13.099 291.847 13.084L291.818 13.0768C291.791 13.0708 291.77 13.0618 291.77 13.0288C291.77 12.997 291.79 12.973 291.824 12.973C291.858 12.9749 291.89 12.99 291.914 13.015L291.941 12.9292V12.9292ZM293.614 12.8788C293.582 12.877 293.554 12.904 293.537 12.9496V12.8908H293.476V13.372H293.54V13.102C293.54 13.0228 293.56 12.9784 293.601 12.9784C293.615 12.9784 293.628 12.9826 293.64 12.9904L293.659 12.892C293.646 12.8838 293.63 12.8793 293.615 12.8788H293.614ZM292.809 13.1314C292.809 13.2772 292.869 13.3834 292.962 13.3834C292.999 13.387 293.036 13.3666 293.065 13.3264L293.035 13.2424C293.014 13.27 292.987 13.2844 292.96 13.2856C292.912 13.282 292.873 13.2136 292.873 13.1314C292.873 13.0486 292.912 12.9814 292.96 12.9778C292.987 12.9778 293.014 12.9934 293.035 13.021L293.065 12.9364C293.036 12.8962 292.999 12.8758 292.962 12.8788C292.87 12.8788 292.809 12.9856 292.809 13.1314V13.1314ZM293.393 13.1314V12.8914H293.331V12.9496C293.309 12.9028 293.276 12.8764 293.24 12.8788C293.16 12.8836 293.096 12.9952 293.096 13.1314C293.096 13.2676 293.16 13.3792 293.24 13.3834C293.276 13.3864 293.309 13.3606 293.331 13.3138V13.372H293.395L293.393 13.132V13.1314ZM293.161 13.1314C293.163 13.051 293.203 12.9874 293.25 12.9898C293.298 12.9922 293.335 13.0582 293.335 13.1392C293.335 13.2196 293.296 13.285 293.248 13.2856C293.224 13.2856 293.201 13.27 293.185 13.2406C293.168 13.207 293.159 13.1693 293.161 13.1314V13.1314ZM292.408 12.8794C292.324 12.8794 292.265 12.9814 292.265 13.1314C292.265 13.2814 292.326 13.3834 292.412 13.3834C292.454 13.3864 292.496 13.3624 292.529 13.3168L292.499 13.2388C292.475 13.2712 292.445 13.2886 292.415 13.2892C292.375 13.2892 292.339 13.258 292.33 13.1716H292.543L292.544 13.1314C292.544 12.9814 292.488 12.8794 292.408 12.8794V12.8794ZM292.406 12.9724C292.447 12.9724 292.472 13.0144 292.479 13.0888H292.331C292.337 13.0198 292.363 12.9724 292.408 12.9724H292.406ZM293.972 13.1314V12.6982H293.911V12.9496C293.888 12.9028 293.855 12.8764 293.82 12.8788C293.74 12.8836 293.676 12.9952 293.676 13.1314C293.676 13.2676 293.74 13.3792 293.82 13.3834C293.855 13.3864 293.888 13.3606 293.91 13.3138V13.372H293.975L293.973 13.132L293.972 13.1314ZM293.74 13.1314C293.743 13.051 293.782 12.9874 293.83 12.9898C293.877 12.9922 293.915 13.0582 293.914 13.1392C293.914 13.2196 293.875 13.285 293.828 13.2856C293.804 13.2856 293.781 13.27 293.764 13.2406C293.747 13.207 293.738 13.1693 293.74 13.1314V13.1314ZM291.632 13.1314V12.8914H291.569V12.9496C291.548 12.9028 291.514 12.8764 291.479 12.8788C291.398 12.8836 291.335 12.9952 291.335 13.1314C291.335 13.2676 291.398 13.3792 291.479 13.3834C291.514 13.3864 291.548 13.3606 291.569 13.3138V13.372H291.632V13.132V13.1314ZM291.4 13.1314C291.401 13.051 291.442 12.988 291.488 12.9904C291.536 12.9928 291.574 13.0588 291.572 13.1392C291.572 13.2202 291.534 13.285 291.487 13.2856C291.463 13.2856 291.44 13.2688 291.424 13.24C291.407 13.2067 291.399 13.1695 291.401 13.132H291.4V13.1314ZM294.083 13.3024C294.088 13.3024 294.092 13.3036 294.097 13.306C294.101 13.3084 294.104 13.312 294.108 13.3162C294.111 13.3204 294.113 13.3258 294.115 13.3318C294.117 13.3378 294.118 13.3438 294.118 13.3498C294.118 13.3618 294.115 13.3735 294.108 13.3834C294.105 13.3877 294.101 13.3912 294.096 13.3936C294.092 13.3963 294.087 13.3978 294.083 13.3978C294.078 13.3974 294.073 13.3959 294.069 13.3934C294.065 13.3909 294.061 13.3875 294.058 13.3834C294.055 13.3789 294.052 13.3738 294.05 13.3684C294.048 13.3597 294.047 13.3505 294.049 13.3415C294.05 13.3325 294.053 13.3239 294.058 13.3162C294.061 13.3121 294.065 13.3087 294.069 13.306C294.074 13.3033 294.079 13.302 294.085 13.3024H294.083ZM294.09 13.387C294.095 13.387 294.099 13.386 294.104 13.384C294.108 13.3824 294.112 13.38 294.115 13.3768C294.119 13.3713 294.123 13.3645 294.124 13.3572C294.125 13.3498 294.124 13.3423 294.122 13.3354C294.12 13.3311 294.118 13.327 294.115 13.3234C294.11 13.3183 294.104 13.3148 294.097 13.3134C294.09 13.312 294.083 13.3128 294.076 13.3156C294.072 13.3176 294.068 13.3203 294.065 13.3237C294.062 13.3271 294.059 13.3311 294.058 13.3354C294.055 13.3402 294.054 13.3453 294.055 13.3504C294.055 13.3552 294.056 13.36 294.058 13.3648C294.059 13.3693 294.062 13.3733 294.065 13.3768C294.068 13.3801 294.072 13.3825 294.076 13.384C294.081 13.3862 294.087 13.387 294.092 13.3864L294.09 13.387V13.387ZM294.104 13.3276C294.112 13.3276 294.121 13.3294 294.127 13.3336C294.13 13.3353 294.132 13.3376 294.134 13.3405C294.135 13.3433 294.136 13.3466 294.136 13.3498C294.136 13.3558 294.134 13.3606 294.129 13.3648C294.123 13.3686 294.117 13.3706 294.11 13.3708L294.137 13.3978H294.116L294.092 13.3714H294.083V13.3978H294.067V13.3276H294.104V13.3276ZM294.08 13.348V13.378H294.108C294.113 13.3787 294.119 13.3777 294.124 13.375C294.126 13.3738 294.127 13.372 294.128 13.3699C294.129 13.3677 294.13 13.3654 294.13 13.363C294.13 13.3608 294.129 13.3585 294.128 13.3565C294.127 13.3545 294.126 13.3528 294.124 13.3516C294.119 13.3491 294.113 13.3479 294.108 13.348H294.08V13.348Z" fill="black"/>
<path d="M276.36 3.00009V4.07229C276.36 4.08849 276.364 4.09149 276.379 4.09149H277.067C277.076 4.09149 277.082 4.08849 277.081 4.07709V4.06689V2.46849C277.081 2.44449 277.081 2.44449 277.105 2.44449H277.899C277.907 2.44449 277.915 2.44449 277.915 2.43249C277.915 2.38302 277.913 2.33355 277.909 2.28429C277.896 2.19136 277.852 2.1053 277.786 2.03949C277.745 1.99762 277.696 1.96449 277.641 1.94211C277.587 1.91973 277.529 1.90857 277.471 1.90929H276.38C276.364 1.90929 276.359 1.91349 276.359 1.92969V3.00009H276.36ZM275.884 3.55149H275.524C275.516 3.55149 275.509 3.55149 275.51 3.56229C275.508 3.61209 275.51 3.66189 275.515 3.71169C275.528 3.81609 275.58 3.91149 275.659 3.98109C275.729 4.04469 275.818 4.08309 275.911 4.08909C276.022 4.09629 276.132 4.09089 276.242 4.09209C276.254 4.09209 276.259 4.08789 276.259 4.07589V3.56949C276.259 3.55509 276.255 3.55149 276.241 3.55149H275.884V3.55149ZM276.258 2.17869V1.92669C276.258 1.91349 276.254 1.90869 276.24 1.90869H275.956C275.873 1.90857 275.792 1.9312 275.722 1.97408C275.652 2.01696 275.595 2.07842 275.557 2.15169C275.537 2.1887 275.524 2.22859 275.516 2.26989C275.51 2.3206 275.507 2.37178 275.509 2.42289C275.509 2.44449 275.509 2.44449 275.531 2.44449H276.24C276.251 2.44449 276.259 2.44449 276.258 2.42829V2.17869V2.17869ZM277.549 3.55149H277.226C277.183 3.55149 277.183 3.55149 277.183 3.59349V4.07349C277.183 4.08549 277.185 4.09149 277.199 4.09149H277.466C277.569 4.09335 277.67 4.05887 277.75 3.99406C277.831 3.92925 277.886 3.83823 277.906 3.73689C277.918 3.67869 277.914 3.61989 277.915 3.56109C277.915 3.55029 277.909 3.55029 277.901 3.55029L277.549 3.55149ZM275.883 2.94969H276.239C276.254 2.94969 276.259 2.94549 276.259 2.93049V2.81229V2.56629C276.259 2.55489 276.259 2.54769 276.242 2.54769H275.527C275.512 2.54769 275.509 2.55189 275.509 2.56569V2.93349C275.509 2.94549 275.512 2.94969 275.525 2.94969H275.883V2.94969ZM275.883 3.05169H275.527C275.514 3.05169 275.509 3.05529 275.509 3.06969C275.51 3.18669 275.509 3.30369 275.509 3.42069C275.509 3.44889 275.509 3.44889 275.537 3.44889H276.236C276.253 3.44889 276.258 3.44529 276.258 3.42789C276.257 3.30909 276.257 3.19029 276.258 3.07149C276.258 3.05469 276.253 3.05169 276.238 3.05169H275.884H275.883ZM277.555 2.94969H277.897C277.909 2.94969 277.915 2.94729 277.915 2.93349V2.56389C277.915 2.55189 277.912 2.54769 277.898 2.54769H277.205C277.184 2.54589 277.183 2.54649 277.183 2.56749V2.93349C277.183 2.94849 277.186 2.95389 277.201 2.95149C277.21 2.95011 277.22 2.94951 277.23 2.94969H277.555V2.94969ZM277.549 3.05229H277.204C277.183 3.05229 277.183 3.05229 277.183 3.07329V3.42789C277.183 3.44589 277.189 3.44949 277.205 3.44949H277.898C277.912 3.44949 277.915 3.44469 277.915 3.43149V3.07029C277.915 3.05409 277.909 3.05229 277.896 3.05229H277.549H277.549Z" fill="#46A8CE"/>
<path d="M276.36 3.00012V1.92912C276.36 1.91292 276.364 1.90872 276.38 1.90872H277.471C277.529 1.908 277.587 1.91916 277.641 1.94154C277.696 1.96392 277.745 1.99705 277.786 2.03893C277.853 2.10493 277.896 2.19132 277.909 2.28432C277.913 2.33352 277.915 2.38272 277.915 2.43192C277.915 2.44452 277.907 2.44452 277.898 2.44452H277.105C277.081 2.44452 277.081 2.44452 277.081 2.46852V4.07712C277.082 4.08792 277.076 4.09152 277.066 4.09152H276.379C276.364 4.09152 276.359 4.08793 276.359 4.07233V3.00012H276.36ZM275.884 3.55153H276.24C276.255 3.55153 276.258 3.55572 276.258 3.56952V4.07592C276.258 4.08792 276.254 4.09212 276.242 4.09212C276.132 4.09092 276.021 4.09693 275.911 4.08913C275.817 4.08256 275.729 4.0445 275.659 3.98112C275.58 3.91173 275.528 3.81576 275.514 3.71112C275.509 3.66168 275.508 3.61198 275.509 3.56232C275.509 3.55092 275.516 3.55153 275.524 3.55153H275.884V3.55153ZM276.258 2.17812V2.43012C276.258 2.44572 276.251 2.44572 276.24 2.44572H275.531C275.509 2.44572 275.509 2.44573 275.509 2.42413C275.507 2.37313 275.509 2.32212 275.516 2.27172C275.524 2.23042 275.537 2.19053 275.557 2.15353C275.595 2.08025 275.652 2.01879 275.722 1.97591C275.792 1.93303 275.873 1.9104 275.956 1.91052H276.241C276.254 1.91052 276.259 1.91533 276.259 1.92853V2.18053V2.17873L276.258 2.17812Z" fill="#46A8CE"/>
<path d="M277.549 3.55133H277.9C277.908 3.55133 277.914 3.55133 277.914 3.56153C277.913 3.62033 277.916 3.67912 277.905 3.73732C277.885 3.83866 277.83 3.92968 277.749 3.99449C277.669 4.0593 277.568 4.09378 277.465 4.09192H277.198C277.184 4.09192 277.182 4.08593 277.182 4.07393V3.59392C277.182 3.55192 277.182 3.55192 277.226 3.55192L277.549 3.55133V3.55133ZM275.883 2.94952H275.525C275.513 2.94952 275.509 2.94532 275.509 2.93332V2.56492C275.509 2.55112 275.513 2.54693 275.527 2.54693H276.001C276.082 2.54693 276.163 2.54813 276.243 2.54693C276.258 2.54693 276.259 2.55472 276.259 2.56552V2.93033C276.259 2.94533 276.255 2.94953 276.24 2.94893H275.884L275.883 2.94952ZM275.883 3.05152H276.238C276.254 3.05152 276.259 3.05452 276.259 3.07132V3.42772C276.259 3.44512 276.254 3.44872 276.237 3.44872H275.538C275.51 3.44872 275.51 3.44872 275.51 3.42052V3.06892C275.51 3.05452 275.515 3.05152 275.528 3.05152H275.883V3.05152ZM277.555 2.94952H277.23C277.22 2.94952 277.21 2.94952 277.2 2.95072C277.185 2.95372 277.181 2.94832 277.181 2.93332V2.56732C277.181 2.54632 277.183 2.54572 277.205 2.54752C277.223 2.54872 277.241 2.54752 277.258 2.54752H277.897C277.91 2.54752 277.913 2.55173 277.913 2.56373V2.93332C277.913 2.94712 277.907 2.94952 277.895 2.94952H277.555V2.94952ZM277.549 3.05152H277.895C277.909 3.05152 277.915 3.05392 277.914 3.06952V3.43072C277.914 3.44452 277.911 3.44872 277.897 3.44872H277.204C277.188 3.44872 277.182 3.44572 277.182 3.42772V3.07312C277.182 3.05212 277.182 3.05212 277.204 3.05212H277.549V3.05152Z" fill="#46A8CE"/>
<path d="M278.34 2.604C278.36 2.604 278.379 2.6112 278.394 2.6244C278.454 2.6754 278.501 2.73904 278.533 2.81069C278.565 2.88235 278.58 2.9602 278.578 3.0386C278.576 3.117 278.557 3.19396 278.521 3.26388C278.486 3.33381 278.435 3.39493 278.373 3.4428C278.364 3.45074 278.354 3.45681 278.343 3.46062C278.332 3.46442 278.32 3.46588 278.309 3.46491C278.297 3.46393 278.286 3.46053 278.276 3.45494C278.265 3.44934 278.256 3.44167 278.249 3.43242C278.242 3.42316 278.237 3.41251 278.234 3.40117C278.231 3.38982 278.231 3.37802 278.233 3.36652C278.235 3.35502 278.24 3.34407 278.246 3.33438C278.253 3.32468 278.261 3.31645 278.271 3.3102C278.313 3.27754 278.348 3.23579 278.372 3.18801C278.397 3.14023 278.41 3.08763 278.411 3.03404C278.413 2.98045 278.402 2.92723 278.38 2.87826C278.359 2.82929 278.326 2.78581 278.285 2.751C278.273 2.73981 278.264 2.72503 278.259 2.70862C278.255 2.69221 278.256 2.67492 278.262 2.65902C278.268 2.64313 278.278 2.62937 278.292 2.61955C278.306 2.60974 278.322 2.60432 278.339 2.604H278.34Z" fill="#46A8CE"/>
<path d="M278.65 2.41808C278.672 2.41748 278.693 2.42648 278.71 2.44268C279.024 2.76668 279.025 3.28088 278.712 3.60548C278.696 3.61894 278.676 3.62599 278.655 3.62528C278.634 3.62457 278.614 3.61614 278.599 3.60162C278.584 3.58711 278.575 3.56756 278.574 3.54676C278.573 3.52596 278.579 3.5054 278.592 3.48908C278.712 3.36409 278.779 3.19716 278.779 3.0236C278.779 2.85003 278.711 2.68345 278.59 2.55908C278.578 2.54721 278.571 2.53235 278.568 2.5163C278.565 2.50025 278.567 2.48371 278.573 2.4687C278.58 2.45369 278.59 2.44085 278.604 2.43176C278.617 2.42266 278.633 2.4177 278.65 2.41748V2.41808Z" fill="#46A8CE"/>
<path d="M278.933 2.20508C278.944 2.20506 278.956 2.2075 278.967 2.21226C278.978 2.21701 278.987 2.22397 278.995 2.23268C279.186 2.44601 279.293 2.72105 279.297 3.00722C279.302 3.29339 279.202 3.57145 279.018 3.79028C279.011 3.79983 279.003 3.80788 278.993 3.81392C278.983 3.81995 278.971 3.82384 278.96 3.82534C278.948 3.82684 278.937 3.82591 278.925 3.82261C278.914 3.81931 278.904 3.81372 278.895 3.80619C278.886 3.79866 278.879 3.78936 278.874 3.77888C278.868 3.76839 278.866 3.75695 278.865 3.7453C278.865 3.73364 278.867 3.72202 278.871 3.71117C278.875 3.70032 278.882 3.69048 278.89 3.68228C279.049 3.49432 279.134 3.25543 279.13 3.00958C279.127 2.76373 279.034 2.52746 278.87 2.34428C278.86 2.33218 278.853 2.31732 278.851 2.30145C278.848 2.28557 278.85 2.26936 278.857 2.25471C278.863 2.24007 278.874 2.22761 278.888 2.21882C278.901 2.21002 278.917 2.20525 278.933 2.20508V2.20508Z" fill="#46A8CE"/>
<defs>
<linearGradient id="paint0_linear" x1="278.265" y1="2.93771" x2="286.34" y2="14.4706" gradientUnits="userSpaceOnUse">
<stop stop-color="#C2D9E9"/>
<stop offset="0.28" stop-color="#C2DFF0"/>
<stop offset="0.46" stop-color="#C1E3F5"/>
<stop offset="0.52" stop-color="#ADC7D8"/>
<stop offset="0.57" stop-color="#9CB0BF"/>
<stop offset="0.64" stop-color="#909DAC"/>
<stop offset="0.71" stop-color="#87919F"/>
<stop offset="0.81" stop-color="#828997"/>
<stop offset="1" stop-color="#808795"/>
</linearGradient>
</defs>
</svg>
