<svg width="30" height="30" viewBox="0 0 30 30" fill="none" xmlns="http://www.w3.org/2000/svg">
<path d="M20.7673 8.97352C20.4691 8.67541 19.9858 8.67541 19.6877 8.97352L13.7501 14.9111L19.6877 20.8487C19.9858 21.1468 20.4691 21.1468 20.7673 20.8487C21.0654 20.5506 21.0654 20.0672 20.7673 19.7691L15.9092 14.9111L20.7673 10.0531C21.0654 9.75497 21.0654 9.27163 20.7673 8.97352Z" fill="#381451"/>
<path d="M8.97371 8.97352C9.27182 8.67541 9.75515 8.67541 10.0533 8.97352L15.9908 14.9111L10.0533 20.8487C9.75515 21.1468 9.27182 21.1468 8.97371 20.8487C8.67559 20.5506 8.67559 20.0672 8.97371 19.7691L13.8317 14.9111L8.97371 10.0531C8.67559 9.75497 8.67559 9.27163 8.97371 8.97352Z" fill="#381451"/>
</svg>
