<svg width="20" height="12" viewBox="0 0 20 12" fill="none" xmlns="http://www.w3.org/2000/svg">
<path fill-rule="evenodd" clip-rule="evenodd" d="M3.13504e-08 11.2828C2.71703e-08 11.3784 0.0162926 11.4706 0.0488777 11.5594C0.081461 11.6482 0.130337 11.7268 0.195505 11.7951C0.32584 11.9317 0.482243 12 0.664713 12C0.847183 12 1.00359 11.9317 1.13392 11.7951L10.0684 2.43033L18.8465 11.6516C18.9769 11.7883 19.1365 11.8566 19.3255 11.8566C19.5145 11.8566 19.6742 11.7883 19.8045 11.6516C19.9348 11.515 20 11.3477 20 11.1496C20 10.9515 19.9348 10.7842 19.8045 10.6475L10.5376 0.954917C10.4073 0.818305 10.2509 0.75 10.0684 0.75C9.88596 0.75 9.72956 0.818305 9.59922 0.954917L0.195505 10.791C0.130337 10.8593 0.081461 10.9378 0.0488778 11.0266C0.0162926 11.1154 3.49333e-08 11.2008 3.13504e-08 11.2828Z" fill="#381451"/>
</svg>
