<svg width="70" height="27" viewBox="0 0 70 27" fill="none" xmlns="http://www.w3.org/2000/svg">
<path fill-rule="evenodd" clip-rule="evenodd" d="M69.8782 24.2755C69.8782 25.7263 68.7022 26.9024 67.2516 26.9024H2.62695C1.176 26.9024 0 25.7263 0 24.2755V12.2024C0 10.7516 1.176 9.57526 2.62695 9.57526H67.2516C68.7022 9.57526 69.8782 10.7516 69.8782 12.2024V24.2755Z" fill="#009640"/>
<mask id="mask0" mask-type="alpha" maskUnits="userSpaceOnUse" x="0" y="0" width="70" height="27">
<path d="M0 26.9026H69.8782V0H0V26.9026Z" fill="white"/>
</mask>
<g mask="url(#mask0)">
<path fill-rule="evenodd" clip-rule="evenodd" d="M0 1.77731H28.6275V0H0V1.77731Z" fill="#0062AE"/>
<path fill-rule="evenodd" clip-rule="evenodd" d="M28.6276 1.77719H69.8783V-0.00012207H28.6276V1.77719Z" fill="#E63438"/>
<path fill-rule="evenodd" clip-rule="evenodd" d="M0 13.6174H11.84V1.77704H0V13.6174Z" fill="#5BC4F1"/>
<path fill-rule="evenodd" clip-rule="evenodd" d="M11.8409 13.6174H23.681V1.77704H11.8409V13.6174Z" fill="#76B72A"/>
<path fill-rule="evenodd" clip-rule="evenodd" d="M23.6804 13.6174H35.5205V1.77704H23.6804V13.6174Z" fill="#962456"/>
<path fill-rule="evenodd" clip-rule="evenodd" d="M14.9494 5.66297C14.5727 5.66297 14.104 5.78027 13.8192 5.93083L13.5094 5.11861C13.9112 4.93434 14.4722 4.76715 15.1756 4.76715C16.2889 4.76715 17.0425 5.3697 17.0425 6.17345C17.0425 6.98568 16.4649 7.46276 15.9539 7.58006V7.62194C16.6071 7.6889 17.2265 8.09071 17.2265 8.91955C17.2265 9.93252 16.2552 10.6274 15.1756 10.6274C14.4971 10.6274 13.9027 10.4262 13.5011 10.2255L13.7522 9.36307C14.0116 9.51379 14.5977 9.72331 15.0498 9.72331C15.6359 9.72331 16.1046 9.43019 16.1046 8.83565C16.1046 8.30839 15.6776 8.0907 15.0165 8.0907H14.6646V7.23676H14.9242C15.5772 7.23676 15.8954 6.8599 15.8954 6.39113C15.8954 5.90559 15.527 5.66297 14.9494 5.66297Z" fill="#FEFEFE"/>
<path fill-rule="evenodd" clip-rule="evenodd" d="M22.2917 10.1251C21.5298 10.4684 20.9437 10.6276 20.2488 10.6276C18.566 10.6276 17.7036 9.45544 17.7036 7.66381C17.7036 5.94776 18.566 4.80902 20.3241 4.80902C21.178 4.80902 21.739 5.01823 22.1828 5.30304L21.7222 6.1402C21.404 5.92252 20.91 5.78027 20.3409 5.78027C19.3194 5.78027 18.8591 6.52537 18.8591 7.64687C18.8591 8.97805 19.3528 9.68975 20.3241 9.68975C20.6843 9.68975 21.0108 9.63956 21.2787 9.51378V8.46741H20.5084L20.4412 7.65534H22.2917V10.1251Z" fill="#FEFEFE"/>
<path fill-rule="evenodd" clip-rule="evenodd" d="M27.459 8.25388V6.1696L26.128 8.25388H27.459ZM28.5474 9.14954V10.5227H27.459V9.14954H25.1567V8.4631L27.4422 4.82996H28.5474V8.25388H29.2003V9.14954H28.5474Z" fill="#FEFEFE"/>
<path fill-rule="evenodd" clip-rule="evenodd" d="M34.1313 10.1042C33.3695 10.4474 32.7834 10.6064 32.0885 10.6064C30.406 10.6064 29.5436 9.43426 29.5436 7.64263C29.5436 5.92659 30.406 4.78784 32.1641 4.78784C33.018 4.78784 33.5787 4.99706 34.0225 5.28186L33.5622 6.11902C33.244 5.90165 32.75 5.75909 32.1808 5.75909C31.1594 5.75909 30.6988 6.50419 30.6988 7.626C30.6988 8.95718 31.1928 9.66887 32.1641 9.66887C32.524 9.66887 32.8505 9.61869 33.1184 9.49291V8.44623H32.348L32.2812 7.63447H34.1313V10.1042Z" fill="#FEFEFE"/>
<path fill-rule="evenodd" clip-rule="evenodd" d="M1.93444 5.9393L1.62439 5.12708C2.05175 4.93464 2.64583 4.76715 3.30733 4.76715C4.47933 4.76715 5.36668 5.37801 5.36668 6.3996C5.36668 7.32898 4.81432 8.19955 2.88044 9.69806C3.08965 9.65634 3.44958 9.63125 3.70098 9.63125H5.39223V10.5438H1.66657V9.72331C3.83476 7.99018 4.23671 7.1447 4.23671 6.53369C4.23671 5.95608 3.80982 5.66297 3.13137 5.66297C2.71295 5.66297 2.25249 5.78027 1.93444 5.9393Z" fill="#FEFEFE"/>
<path fill-rule="evenodd" clip-rule="evenodd" d="M10.4488 10.1251C9.68697 10.4684 9.10089 10.6276 8.40598 10.6276C6.72349 10.6276 5.86108 9.45544 5.86108 7.66381C5.86108 5.94776 6.72349 4.80902 8.48156 4.80902C9.33551 4.80902 9.89618 5.01823 10.34 5.30304L9.87971 6.1402C9.5615 5.92252 9.06748 5.78027 8.49834 5.78027C7.47691 5.78027 7.0163 6.52537 7.0163 7.64718C7.0163 8.97836 7.51031 9.69005 8.48156 9.69005C8.84149 9.69005 9.16801 9.63956 9.43588 9.51409V8.46741H8.66553L8.59872 7.65565H10.4488V10.1251Z" fill="#FEFEFE"/>
<path fill-rule="evenodd" clip-rule="evenodd" d="M47.36 13.6174H69.8782V1.77704H47.36V13.6174Z" fill="#0062AE"/>
<path fill-rule="evenodd" clip-rule="evenodd" d="M50.2023 12.788C49.5 12.788 49.1228 12.3223 49.1228 11.4903C49.1228 10.7139 49.4963 10.2185 50.2023 10.2185C50.5427 10.2185 50.8493 10.2924 51.0528 10.4293L50.8679 10.8211C50.7383 10.7211 50.5129 10.6472 50.2543 10.6472C49.8399 10.6472 49.6331 10.9394 49.6331 11.4867C49.6331 12.0634 49.8399 12.3593 50.2468 12.3593C50.4909 12.3593 50.7348 12.2555 50.9049 12.1299L51.0601 12.5219C50.8124 12.6918 50.5316 12.788 50.2023 12.788Z" fill="#FEFEFE"/>
<path fill-rule="evenodd" clip-rule="evenodd" d="M52.2477 10.6362C51.8115 10.6362 51.6969 11.0318 51.6969 11.4793C51.6969 11.9747 51.8076 12.3816 52.2477 12.3816C52.6765 12.3816 52.8023 11.982 52.8023 11.4793C52.8023 11.0246 52.684 10.6362 52.2477 10.6362ZM52.2477 12.7882C51.423 12.7882 51.1863 12.1633 51.1863 11.4829C51.1863 10.8286 51.4158 10.2185 52.2477 10.2185C53.0944 10.2185 53.3163 10.8211 53.3163 11.4829C53.3163 12.1522 53.0721 12.7882 52.2477 12.7882Z" fill="#FEFEFE"/>
<path fill-rule="evenodd" clip-rule="evenodd" d="M55.8163 12.751L55.7645 10.6436H55.7498C55.7053 10.9096 55.6611 11.1021 55.6277 11.2462L55.273 12.751H54.5591L54.2191 11.2462C54.1857 11.1021 54.1415 10.9096 54.0935 10.6436H54.0787L54.0453 12.751H53.6014L53.6977 10.2554H54.5297C54.5297 10.2554 54.8033 11.5125 54.9476 12.3186H54.9585C55.1251 11.5162 55.4503 10.2554 55.4503 10.2554H56.2676L56.3636 12.751H55.8163Z" fill="#FEFEFE"/>
<path fill-rule="evenodd" clip-rule="evenodd" d="M57.4663 10.6658H57.2038V11.5014H57.4663C57.7508 11.5014 57.9137 11.3276 57.9137 11.0539C57.9137 10.7986 57.7436 10.6658 57.4663 10.6658ZM57.4774 11.882H57.2038V12.751H56.7194V10.2554H57.4774C57.9874 10.2554 58.4276 10.4992 58.4276 11.0353C58.4276 11.516 58.0653 11.882 57.4774 11.882Z" fill="#FEFEFE"/>
<path fill-rule="evenodd" clip-rule="evenodd" d="M59.219 10.6806L58.9454 11.7973H59.6259L59.3708 10.6806H59.219ZM58.7237 12.751H58.2505L58.9271 10.2554H59.7332L60.3874 12.751H59.8441L59.7145 12.1891H58.8566L58.7237 12.751Z" fill="#FEFEFE"/>
<path fill-rule="evenodd" clip-rule="evenodd" d="M61.2459 10.6658V12.751H60.7431V10.6658H60.1403V10.2554H61.8671V10.6658H61.2459Z" fill="#FEFEFE"/>
<path fill-rule="evenodd" clip-rule="evenodd" d="M62.1484 12.7512H62.6328V10.2556H62.1484V12.7512Z" fill="#FEFEFE"/>
<path fill-rule="evenodd" clip-rule="evenodd" d="M63.9198 11.6604H63.5873V12.3333C63.6684 12.3627 63.7721 12.3923 63.9125 12.3923C64.1529 12.3923 64.3525 12.2741 64.3525 12.0116C64.3525 11.7674 64.2009 11.6604 63.9198 11.6604ZM63.8386 10.651H63.5873V11.3017H63.8386C64.0863 11.3017 64.2195 11.2055 64.2195 10.9466C64.2195 10.7434 64.0863 10.651 63.8386 10.651ZM63.9125 12.7879C63.5317 12.7879 63.332 12.7362 63.1028 12.6512V10.2554H63.857C64.3895 10.2554 64.7295 10.4884 64.7295 10.8989C64.7295 11.2055 64.545 11.3793 64.3267 11.4457V11.4645C64.6296 11.5197 64.8627 11.7269 64.8627 12.0339C64.8627 12.4848 64.4709 12.7879 63.9125 12.7879Z" fill="#FEFEFE"/>
<path fill-rule="evenodd" clip-rule="evenodd" d="M65.1481 12.751V10.2554H65.6322V12.3444H66.6825V12.751H65.1481Z" fill="#FEFEFE"/>
<path fill-rule="evenodd" clip-rule="evenodd" d="M66.8934 12.751V10.2554H68.4281V10.6658H67.3777V11.2794H68.1803L68.1433 11.7086H67.3777V12.3481H68.4281V12.751H66.8934Z" fill="#FEFEFE"/>
<path fill-rule="evenodd" clip-rule="evenodd" d="M55.41 8.73946C55.1646 8.6965 54.916 8.67418 54.6683 8.67418C54.4207 8.67418 54.1718 8.6965 53.9267 8.73946C54.262 8.1657 54.5125 7.54452 54.6683 6.89872C54.8245 7.54421 55.0747 8.1657 55.41 8.73946ZM55.2245 5.52213C55.2245 5.21469 54.9756 4.96545 54.6683 4.96545C54.3613 4.96545 54.1119 5.21469 54.1119 5.52213C54.1119 5.74981 54.2494 5.94532 54.4451 6.03123C54.3059 7.27311 53.8056 8.45142 52.9995 9.41621C53.5283 9.16881 54.0982 9.0455 54.6683 9.0455C55.2384 9.0455 55.8084 9.16881 56.3372 9.41621C55.5309 8.45142 55.0308 7.27311 54.8914 6.03123C55.0873 5.94532 55.2245 5.74981 55.2245 5.52213Z" fill="#FEFEFE"/>
<path fill-rule="evenodd" clip-rule="evenodd" d="M53.4607 4.40723L53.854 4.80056C53.4568 5.19836 53.4568 5.84555 53.854 6.24366L53.4607 6.63714C52.8464 6.02197 52.8464 5.02178 53.4607 4.40723Z" fill="#FEFEFE"/>
<path fill-rule="evenodd" clip-rule="evenodd" d="M53.0674 7.02972L52.674 7.42337C52.1662 6.9155 51.8866 6.24044 51.8866 5.52197C51.8866 4.80366 52.1662 4.12798 52.674 3.62042L53.0674 4.01376C52.6645 4.41633 52.4431 4.95222 52.4431 5.52197C52.4431 6.09127 52.6645 6.62715 53.0674 7.02972Z" fill="#FEFEFE"/>
<path fill-rule="evenodd" clip-rule="evenodd" d="M55.4822 6.24341C55.6749 6.05098 55.7807 5.7942 55.7807 5.52186C55.7807 5.24953 55.6749 4.99306 55.4822 4.80032L55.8755 4.40698C56.1731 4.70502 56.3374 5.10067 56.3374 5.52186C56.3374 5.94275 56.1731 6.33901 55.8755 6.63675L55.4822 6.24341Z" fill="#FEFEFE"/>
<path fill-rule="evenodd" clip-rule="evenodd" d="M57.4499 5.52197C57.4499 6.24044 57.1706 6.9155 56.6624 7.42337L56.2688 7.02972C56.6717 6.62715 56.8937 6.09127 56.8937 5.52197C56.8937 4.95191 56.6717 4.41633 56.2688 4.01376L56.6624 3.62042C57.1706 4.12798 57.4499 4.80335 57.4499 5.52197Z" fill="#FEFEFE"/>
<path fill-rule="evenodd" clip-rule="evenodd" d="M62.4094 6.42489C63.8902 4.89281 65.3325 3.40076 66.7571 1.92749C67.3634 2.54897 67.87 3.06762 68.3243 3.53377C66.3861 5.51214 64.3914 7.54854 62.4061 9.57541C61.303 8.4499 60.2178 7.34349 59.1671 6.27186C59.6103 5.8034 60.1083 5.27706 60.655 4.69915C61.2268 5.26167 61.7854 5.81126 62.4094 6.42489Z" fill="#FEFEFE"/>
<path fill-rule="evenodd" clip-rule="evenodd" d="M35.5206 13.6174H47.3607V1.77704H35.5206V13.6174Z" fill="#ED7203"/>
<path fill-rule="evenodd" clip-rule="evenodd" d="M38.1535 13.16C37.6342 13.16 37.1961 12.9757 36.8846 12.7451L37.173 12.1511C37.3979 12.3473 37.8074 12.5262 38.1649 12.5262C38.5219 12.5262 38.7636 12.3069 38.7636 12.0129C38.7636 11.1887 36.9658 11.5982 36.9658 10.2262C36.9658 9.63812 37.4267 9.15411 38.3374 9.15411C38.7927 9.15411 39.1791 9.25202 39.496 9.4189L39.2422 10.0242C39.029 9.89768 38.6832 9.811 38.3264 9.811C37.9743 9.811 37.744 9.92646 37.744 10.2145C37.744 10.9117 39.5538 10.6412 39.5538 11.9669C39.5538 12.5836 39.0405 13.16 38.1535 13.16Z" fill="#FEFEFE"/>
<path fill-rule="evenodd" clip-rule="evenodd" d="M41.2896 9.87447L40.8624 11.6155H41.9234L41.5256 9.87447H41.2896ZM40.5171 13.1023H39.7788L40.8338 9.21143H42.0906L43.1108 13.1023H42.2635L42.0615 12.2263H40.7247L40.5171 13.1023Z" fill="#FEFEFE"/>
<path fill-rule="evenodd" clip-rule="evenodd" d="M43.5665 13.1024V9.21167H45.9584V9.85147H44.3212V10.8086H45.5723L45.5152 11.4771H44.3212V12.4743H45.9584V13.1024H43.5665Z" fill="#FEFEFE"/>
<path fill-rule="evenodd" clip-rule="evenodd" d="M38.9545 2.88776C37.7281 2.88776 36.7292 3.88533 36.7292 5.11213C36.7292 6.34032 37.7281 7.33789 38.9545 7.33789C40.182 7.33789 41.1802 6.34032 41.1802 5.11213C41.1802 3.88533 40.182 2.88776 38.9545 2.88776Z" fill="#FEFEFE"/>
<path fill-rule="evenodd" clip-rule="evenodd" d="M45.6313 2.23407L44.9683 2.5258C45.2696 3.37897 45.4338 4.29634 45.4338 5.25173C45.4338 6.25038 45.2546 7.20839 44.9263 8.09528L45.5856 8.39425C45.9563 7.40191 46.1515 6.34214 46.1515 5.25173C46.1515 4.20659 45.9736 3.18931 45.6313 2.23407Z" fill="#FEFEFE"/>
<path fill-rule="evenodd" clip-rule="evenodd" d="M43.4848 3.18046C43.7007 3.83196 43.8177 4.52842 43.8177 5.25181C43.8177 6.01261 43.6884 6.7434 43.4502 7.424L44.106 7.72204C44.3839 6.94953 44.5351 6.11853 44.5351 5.25181C44.5351 4.42527 44.3974 3.63121 44.1442 2.88904L43.4848 3.18046Z" fill="#FEFEFE"/>
<path fill-rule="evenodd" clip-rule="evenodd" d="M41.961 3.85139C42.0921 4.29522 42.163 4.76538 42.163 5.25169C42.163 5.76895 42.0834 6.26682 41.9354 6.73589L42.5929 7.03486C42.7797 6.47372 42.8808 5.87456 42.8808 5.25169C42.8808 4.66285 42.7903 4.09401 42.6225 3.5592L41.961 3.85139Z" fill="#FEFEFE"/>
<path fill-rule="evenodd" clip-rule="evenodd" d="M11.8655 16.2944L11.4885 17.8331H12.4261L12.0741 16.2944H11.8655ZM11.1826 19.1477H10.5305L11.463 15.7085H12.5737L13.4754 19.1477H12.7264L12.5481 18.3733H11.3661L11.1826 19.1477Z" fill="#FEFEFE"/>
<path fill-rule="evenodd" clip-rule="evenodd" d="M14.8865 16.2741H14.5247V17.4255H14.8865C15.2789 17.4255 15.5032 17.1861 15.5032 16.8091C15.5032 16.4574 15.2686 16.2741 14.8865 16.2741ZM14.9019 17.9504H14.5247V19.1477H13.8572V15.7085H14.9019C15.6048 15.7085 16.2112 16.0449 16.2112 16.7837C16.2112 17.4459 15.7118 17.9504 14.9019 17.9504Z" fill="#FEFEFE"/>
<path fill-rule="evenodd" clip-rule="evenodd" d="M17.6786 16.2741V19.1477H16.9855V16.2741H16.1552V15.7085H18.5347V16.2741H17.6786Z" fill="#FEFEFE"/>
<path fill-rule="evenodd" clip-rule="evenodd" d="M19.9662 16.2335C19.3648 16.2335 19.2069 16.7787 19.2069 17.3952C19.2069 18.0778 19.3598 18.6383 19.9662 18.6383C20.557 18.6383 20.7305 18.0881 20.7305 17.3952C20.7305 16.7685 20.5672 16.2335 19.9662 16.2335ZM19.9662 19.1989C18.8299 19.1989 18.5037 18.3377 18.5037 17.4003C18.5037 16.4985 18.8197 15.6578 19.9662 15.6578C21.1328 15.6578 21.4385 16.4882 21.4385 17.4003C21.4385 18.3224 21.1024 19.1989 19.9662 19.1989Z" fill="#FEFEFE"/>
<path fill-rule="evenodd" clip-rule="evenodd" d="M24.128 16.2741H23.7663V17.4255H24.128C24.5205 17.4255 24.7448 17.1861 24.7448 16.8091C24.7448 16.4574 24.5101 16.2741 24.128 16.2741ZM24.1434 17.9504H23.7663V19.1477H23.0988V15.7085H24.1434C24.8467 15.7085 25.4528 16.0449 25.4528 16.7837C25.4528 17.4459 24.9537 17.9504 24.1434 17.9504Z" fill="#FEFEFE"/>
<path fill-rule="evenodd" clip-rule="evenodd" d="M26.6452 16.2944L26.2682 17.8331H27.2057L26.8541 16.2944H26.6452ZM25.9623 19.1477H25.3102L26.2426 15.7085H27.3534L28.2553 19.1477H27.5064L27.3281 18.3733H26.1458L25.9623 19.1477Z" fill="#FEFEFE"/>
<path fill-rule="evenodd" clip-rule="evenodd" d="M29.6561 16.2282H29.3196V17.3286H29.6561C30.0942 17.3286 30.2776 17.1299 30.2776 16.7378C30.2776 16.3555 30.0587 16.2282 29.6561 16.2282ZM29.3196 19.1477H28.6576V15.7085H29.7631C30.4409 15.7085 30.9911 16.0244 30.9911 16.7429C30.9911 17.2064 30.7259 17.5528 30.339 17.7312C30.5782 18.2101 30.8278 18.6687 31.0675 19.1477H30.2827L29.7171 17.8484C29.5643 17.8536 29.4624 17.8536 29.3196 17.8536V19.1477Z" fill="#FEFEFE"/>
<path fill-rule="evenodd" clip-rule="evenodd" d="M32.494 16.2944L32.1169 17.8331H33.0545L32.7026 16.2944H32.494ZM31.8111 19.1477H31.1589L32.0914 15.7085H33.2021L34.1038 19.1477H33.3548L33.1766 18.3733H31.9946L31.8111 19.1477Z" fill="#FEFEFE"/>
<path fill-rule="evenodd" clip-rule="evenodd" d="M36.8904 16.2741V19.1477H36.1976V16.2741H35.3669V15.7085H37.7465V16.2741H36.8904Z" fill="#FEFEFE"/>
<path fill-rule="evenodd" clip-rule="evenodd" d="M39.178 16.2335C38.577 16.2335 38.4187 16.7787 38.4187 17.3952C38.4187 18.0778 38.5718 18.6383 39.178 18.6383C39.7692 18.6383 39.9424 18.0881 39.9424 17.3952C39.9424 16.7685 39.7793 16.2335 39.178 16.2335ZM39.178 19.1989C38.0417 19.1989 37.7158 18.3377 37.7158 17.4003C37.7158 16.4985 38.0316 15.6578 39.178 15.6578C40.3449 15.6578 40.6504 16.4882 40.6504 17.4003C40.6504 18.3224 40.3143 19.1989 39.178 19.1989Z" fill="#FEFEFE"/>
<path fill-rule="evenodd" clip-rule="evenodd" d="M42.3265 16.2485H41.8731V18.5668C41.9902 18.6025 42.2195 18.6381 42.4642 18.6381C42.9125 18.6381 43.2741 18.3784 43.2741 17.3899C43.2741 16.5595 43.0144 16.2485 42.3265 16.2485ZM42.4284 19.1986C41.929 19.1986 41.5215 19.1069 41.2056 19.0153V15.7085H42.352C43.3505 15.7085 43.9823 16.1161 43.9823 17.395C43.9823 18.5108 43.4984 19.1986 42.4284 19.1986Z" fill="#FEFEFE"/>
<path fill-rule="evenodd" clip-rule="evenodd" d="M45.4952 16.2944L45.1182 17.8331H46.0558L45.7041 16.2944H45.4952ZM44.8126 19.1477H44.1605L45.093 15.7085H46.2037L47.1054 19.1477H46.3564L46.1781 18.3733H44.9961L44.8126 19.1477Z" fill="#FEFEFE"/>
<path fill-rule="evenodd" clip-rule="evenodd" d="M48.4196 19.1986C47.961 19.1986 47.5738 19.0354 47.2987 18.8318L47.5533 18.307C47.7521 18.4801 48.1139 18.6381 48.4297 18.6381C48.7458 18.6381 48.9596 18.4446 48.9596 18.1847C48.9596 17.4561 47.37 17.8179 47.37 16.6052C47.37 16.0855 47.7776 15.6575 48.5826 15.6575C48.9852 15.6575 49.3265 15.7442 49.6067 15.892L49.3827 16.4268C49.1941 16.3149 48.8884 16.2384 48.5723 16.2384C48.2618 16.2384 48.0578 16.3403 48.0578 16.5951C48.0578 17.2116 49.6578 16.9721 49.6578 18.1439C49.6578 18.689 49.2044 19.1986 48.4196 19.1986Z" fill="#FEFEFE"/>
<path fill-rule="evenodd" clip-rule="evenodd" d="M51.3438 19.1477V15.7085H52.0113V18.5871H53.4584V19.1477H51.3438Z" fill="#FEFEFE"/>
<path fill-rule="evenodd" clip-rule="evenodd" d="M54.915 16.2944L54.538 17.8331H55.4756L55.1239 16.2944H54.915ZM54.2324 19.1477H53.5803L54.5128 15.7085H55.6235L56.5252 19.1477H55.7762L55.5979 18.3733H54.4159L54.2324 19.1477Z" fill="#FEFEFE"/>
<path fill-rule="evenodd" clip-rule="evenodd" d="M57.8395 19.1986C57.3809 19.1986 56.9937 19.0354 56.7186 18.8318L56.9733 18.307C57.172 18.4801 57.5338 18.6381 57.8497 18.6381C58.1657 18.6381 58.3796 18.4446 58.3796 18.1847C58.3796 17.4561 56.7899 17.8179 56.7899 16.6052C56.7899 16.0855 57.1976 15.6575 58.0025 15.6575C58.4051 15.6575 58.7464 15.7442 59.0266 15.892L58.8026 16.4268C58.614 16.3149 58.3083 16.2384 57.9922 16.2384C57.6817 16.2384 57.4777 16.3403 57.4777 16.5951C57.4777 17.2116 59.0777 16.9721 59.0777 18.1439C59.0777 18.689 58.6243 19.1986 57.8395 19.1986Z" fill="#FEFEFE"/>
<path fill-rule="evenodd" clip-rule="evenodd" d="M4.87572 23.3407H4.41711V24.2679C4.52934 24.3087 4.6719 24.3497 4.86556 24.3497C5.19685 24.3497 5.47196 24.1865 5.47196 23.8249C5.47196 23.4885 5.26305 23.3407 4.87572 23.3407ZM4.76349 21.9498H4.41711V22.8465H4.76349C5.1051 22.8465 5.28861 22.7141 5.28861 22.3573C5.28861 22.0771 5.1051 21.9498 4.76349 21.9498ZM4.86556 24.8948C4.34076 24.8948 4.06565 24.8234 3.74976 24.7062V21.4047H4.7892C5.52276 21.4047 5.99153 21.7256 5.99153 22.2912C5.99153 22.7141 5.7369 22.9535 5.43624 23.0453V23.0707C5.85405 23.147 6.17488 23.4324 6.17488 23.8553C6.17488 24.477 5.63499 24.8948 4.86556 24.8948Z" fill="#FEFEFE"/>
<path fill-rule="evenodd" clip-rule="evenodd" d="M7.71369 21.9906L7.33667 23.5293H8.27421L7.92259 21.9906H7.71369ZM7.03078 24.8438H6.37866L7.31112 21.4047H8.42184L9.32382 24.8438H8.57487L8.3966 24.0695H7.21428L7.03078 24.8438Z" fill="#FEFEFE"/>
<path fill-rule="evenodd" clip-rule="evenodd" d="M11.3768 24.8438L10.3067 22.1384H10.2862L10.3323 24.8438H9.73096V21.4047H10.755L11.8405 24.1663H11.8607L11.8149 21.4047H12.4313V24.8438H11.3768Z" fill="#FEFEFE"/>
<path fill-rule="evenodd" clip-rule="evenodd" d="M14.2245 21.9447H13.7712V24.263C13.8883 24.2987 14.1175 24.3343 14.3623 24.3343C14.8106 24.3343 15.1722 24.0746 15.1722 23.0861C15.1722 22.2557 14.9125 21.9447 14.2245 21.9447ZM14.3264 24.8948C13.827 24.8948 13.4195 24.803 13.1036 24.7114V21.4047H14.2501C15.2486 21.4047 15.8804 21.8123 15.8804 23.0911C15.8804 24.207 15.3962 24.8948 14.3264 24.8948Z" fill="#FEFEFE"/>
<path fill-rule="evenodd" clip-rule="evenodd" d="M17.3933 21.9906L17.0162 23.5293H17.9538L17.6022 21.9906H17.3933ZM16.7103 24.8438H16.0582L16.9907 21.4047H18.1014L19.0034 24.8438H18.2544L18.0762 24.0695H16.8939L16.7103 24.8438Z" fill="#FEFEFE"/>
<path fill-rule="evenodd" clip-rule="evenodd" d="M20.3177 24.8947C19.8591 24.8947 19.4719 24.7315 19.1968 24.5279L19.4514 24.0031C19.6502 24.1763 20.0119 24.3342 20.3278 24.3342C20.6436 24.3342 20.8577 24.1407 20.8577 23.8808C20.8577 23.1522 19.2681 23.514 19.2681 22.3013C19.2681 21.7816 19.6757 21.3536 20.4807 21.3536C20.8833 21.3536 21.2246 21.4403 21.5047 21.5881L21.2804 22.1229C21.0919 22.011 20.7864 21.9345 20.4704 21.9345C20.1596 21.9345 19.9559 22.0364 19.9559 22.2912C19.9559 22.9077 21.5555 22.6682 21.5555 23.84C21.5555 24.3852 21.1022 24.8947 20.3177 24.8947Z" fill="#FEFEFE"/>
<path fill-rule="evenodd" clip-rule="evenodd" d="M24.3371 21.9447H23.8837V24.263C24.0009 24.2987 24.2301 24.3343 24.4749 24.3343C24.9231 24.3343 25.2848 24.0746 25.2848 23.0861C25.2848 22.2557 25.0251 21.9447 24.3371 21.9447ZM24.439 24.8948C23.9399 24.8948 23.5321 24.803 23.2162 24.7114V21.4047H24.3626C25.3611 21.4047 25.9932 21.8123 25.9932 23.0911C25.9932 24.207 25.5091 24.8948 24.439 24.8948Z" fill="#FEFEFE"/>
<path fill-rule="evenodd" clip-rule="evenodd" d="M26.594 24.8438V21.4047H28.7083V21.9703H27.2615V22.816H28.3672L28.3163 23.407H27.2615V24.2885H28.7083V24.8438H26.594Z" fill="#FEFEFE"/>
<path fill-rule="evenodd" clip-rule="evenodd" d="M30.3947 24.8438V21.4047H31.0622V24.2833H32.509V24.8438H30.3947Z" fill="#FEFEFE"/>
<path fill-rule="evenodd" clip-rule="evenodd" d="M33.966 21.9906L33.589 23.5293H34.5265L34.1746 21.9906H33.966ZM33.2831 24.8438H32.631L33.5634 21.4047H34.6742L35.5758 24.8438H34.8269L34.6486 24.0695H33.4666L33.2831 24.8438Z" fill="#FEFEFE"/>
<path fill-rule="evenodd" clip-rule="evenodd" d="M36.8904 24.8947C36.4317 24.8947 36.0446 24.7315 35.7695 24.5279L36.0242 24.0031C36.2229 24.1763 36.5847 24.3342 36.9003 24.3342C37.2163 24.3342 37.4305 24.1407 37.4305 23.8808C37.4305 23.1522 35.8408 23.514 35.8408 22.3013C35.8408 21.7816 36.2482 21.3536 37.0534 21.3536C37.4557 21.3536 37.7973 21.4403 38.0775 21.5881L37.8532 22.1229C37.6646 22.011 37.3592 21.9345 37.0431 21.9345C36.7323 21.9345 36.5283 22.0364 36.5283 22.2912C36.5283 22.9077 38.1283 22.6682 38.1283 23.84C38.1283 24.3852 37.6749 24.8947 36.8904 24.8947Z" fill="#FEFEFE"/>
<path fill-rule="evenodd" clip-rule="evenodd" d="M41.1696 24.8947C40.2018 24.8947 39.6819 24.2528 39.6819 23.1063C39.6819 22.0364 40.1967 21.3536 41.1696 21.3536C41.6384 21.3536 42.0614 21.4555 42.3416 21.6441L42.087 22.1842C41.9084 22.0466 41.5978 21.9446 41.2412 21.9446C40.6705 21.9446 40.3851 22.3472 40.3851 23.1012C40.3851 23.8961 40.6705 24.3037 41.2309 24.3037C41.5671 24.3037 41.9036 24.161 42.1378 23.9877L42.3519 24.5279C42.0103 24.7623 41.6233 24.8947 41.1696 24.8947Z" fill="#FEFEFE"/>
<path fill-rule="evenodd" clip-rule="evenodd" d="M44.0889 21.9294C43.4879 21.9294 43.3296 22.4745 43.3296 23.0911C43.3296 23.7737 43.4827 24.3342 44.0889 24.3342C44.68 24.3342 44.8532 23.784 44.8532 23.0911C44.8532 22.4644 44.6902 21.9294 44.0889 21.9294ZM44.0889 24.8947C42.9526 24.8947 42.6267 24.0335 42.6267 23.0962C42.6267 22.1943 42.9425 21.3536 44.0889 21.3536C45.2558 21.3536 45.5612 22.184 45.5612 23.0962C45.5612 24.0183 45.2252 24.8947 44.0889 24.8947Z" fill="#FEFEFE"/>
<path fill-rule="evenodd" clip-rule="evenodd" d="M49.1076 24.8438L49.036 21.9396H49.0158C48.9545 22.3065 48.8934 22.5714 48.8475 22.7702L48.3586 24.8438H47.375L46.9063 22.7702C46.8606 22.5714 46.7993 22.3065 46.7331 21.9396H46.7126L46.6669 24.8438H46.0554L46.188 21.4047H47.3344C47.3344 21.4047 47.7116 23.137 47.91 24.2478H47.9253C48.1548 23.1421 48.6031 21.4047 48.6031 21.4047H49.729L49.8616 24.8438H49.1076Z" fill="#FEFEFE"/>
<path fill-rule="evenodd" clip-rule="evenodd" d="M51.4814 21.9703H51.1197V23.1216H51.4814C51.8738 23.1216 52.0978 22.8822 52.0978 22.5052C52.0978 22.1536 51.8635 21.9703 51.4814 21.9703ZM51.4968 23.6466H51.1197V24.8438H50.4521V21.4047H51.4968C52.1997 21.4047 52.8061 21.741 52.8061 22.4798C52.8061 23.1421 52.3067 23.6466 51.4968 23.6466Z" fill="#FEFEFE"/>
<path fill-rule="evenodd" clip-rule="evenodd" d="M53.9979 21.9906L53.6209 23.5293H54.5584L54.2068 21.9906H53.9979ZM53.3153 24.8438H52.6632L53.5957 21.4047H54.7064L55.6081 24.8438H54.8591L54.6808 24.0695H53.4988L53.3153 24.8438Z" fill="#FEFEFE"/>
<path fill-rule="evenodd" clip-rule="evenodd" d="M57.6459 21.1142L57.1314 20.9461C56.9683 20.8951 56.8409 20.9664 56.7847 21.104L56.4639 20.9562C56.4895 20.6046 56.7898 20.3549 57.1721 20.4824L57.6459 20.6403C57.8037 20.6913 57.9313 20.63 57.9872 20.4876L58.2879 20.6149C58.2725 21.002 58.0229 21.2364 57.6459 21.1142ZM57.6715 24.8439L56.6014 22.1382H56.5812L56.627 24.8439H56.0256V21.4047H57.0497L58.1352 24.1662H58.1556L58.1096 21.4047H58.726V24.8439H57.6715Z" fill="#FEFEFE"/>
<path fill-rule="evenodd" clip-rule="evenodd" d="M59.495 24.8438H60.1625V21.4046H59.495V24.8438ZM59.1742 21.216C59.1691 21.165 59.1281 20.8849 59.123 20.8339L60.5293 20.6453L60.5241 21.1346L59.1742 21.216Z" fill="#FEFEFE"/>
<path fill-rule="evenodd" clip-rule="evenodd" d="M61.9659 21.9906L61.5889 23.5293H62.5265L62.1748 21.9906H61.9659ZM61.2833 24.8438H60.6312L61.5637 21.4047H62.6744L63.5761 24.8438H62.8271L62.6488 24.0695H61.4668L61.2833 24.8438Z" fill="#FEFEFE"/>
<path fill-rule="evenodd" clip-rule="evenodd" d="M64.8903 24.8947C64.4317 24.8947 64.0445 24.7315 63.7694 24.5279L64.024 24.0031C64.2228 24.1763 64.5846 24.3342 64.9005 24.3342C65.2165 24.3342 65.4303 24.1407 65.4303 23.8808C65.4303 23.1522 63.8407 23.514 63.8407 22.3013C63.8407 21.7816 64.2483 21.3536 65.0533 21.3536C65.4559 21.3536 65.7972 21.4403 66.0774 21.5881L65.8534 22.1229C65.6648 22.011 65.3591 21.9345 65.043 21.9345C64.7325 21.9345 64.5285 22.0364 64.5285 22.2912C64.5285 22.9077 66.1285 22.6682 66.1285 23.84C66.1285 24.3852 65.6751 24.8947 64.8903 24.8947Z" fill="#FEFEFE"/>
</g>
</svg>
