<svg width="1440" height="578" viewBox="0 0 1440 578" fill="none" xmlns="http://www.w3.org/2000/svg">
<path opacity="0.3" fill-rule="evenodd" clip-rule="evenodd" d="M-239.983 352.001L1680.02 351.998C1680.02 351.998 1680.02 35.6841 1680.02 35.686C1601.96 43.9513 1523.91 48.0839 1445.85 48.0839C1215.27 48.0839 1215.27 6.10352e-05 984.682 6.10352e-05C754.099 6.10352e-05 754.099 48.0839 523.516 48.0839C292.932 48.0839 292.932 6.10352e-05 62.3489 6.10352e-05C-98.4189 6.10352e-05 -147.096 23.3745 -239.986 37.529C-239.988 37.5341 -239.983 352.001 -239.983 352.001Z" fill="#2D1540"/>
<path opacity="0.3" fill-rule="evenodd" clip-rule="evenodd" d="M-239.98 352.001L1680.01 351.997C1680.01 351.997 1680.02 45.6737 1680.02 45.6764C1540.07 34.6575 1508.47 1.04449 1315.68 1.04449C1085.1 1.04449 1085.1 49.1283 854.516 49.1283C623.932 49.1283 623.932 1.04449 393.349 1.04449C162.766 1.04449 162.766 49.1283 -67.8178 49.1283C-125.207 49.1283 -182.596 46.8944 -239.985 42.4267C-239.987 42.4254 -239.98 352.001 -239.98 352.001Z" fill="#2D1540"/>
<path fill-rule="evenodd" clip-rule="evenodd" d="M-239.978 351.995L1680.02 351.997C1680.02 351.997 1680.02 89.7482 1680.02 89.7482C1672.63 89.8223 1665.24 89.8593 1657.85 89.8593C1427.27 89.8593 1427.27 41.7755 1196.68 41.7755C966.099 41.7755 966.099 89.8593 735.515 89.8593C504.932 89.8593 504.932 41.7755 274.349 41.7755C43.7654 41.7755 43.7654 89.8593 -186.818 89.8593C-204.5 89.8593 -222.31 89.65 -239.992 89.2259C-240.013 89.2324 -239.978 351.995 -239.978 351.995Z" fill="#2D1540"/>
<rect width="1920" height="232" transform="matrix(1 0 0 -1 -239.985 578)" fill="#2D1540"/>
</svg>
