<svg width="18" height="17" viewBox="0 0 18 17" fill="none" xmlns="http://www.w3.org/2000/svg">
<path fill-rule="evenodd" clip-rule="evenodd" d="M13.7594 4.58605L17.8531 8.69719C18.0559 8.90246 18.0419 9.24455 17.8531 9.43369C17.7493 9.51822 17.6267 9.56652 17.4853 9.56652C17.3249 9.56652 17.2019 9.51822 17.1174 9.43369L9.00539 1.24562L0.874471 9.35722C0.671029 9.56046 0.346233 9.57455 0.157674 9.35722C-0.0592393 9.17008 -0.0457686 8.84408 0.157674 8.64084L8.63754 0.161001C8.74119 0.0583532 8.86392 0 9.00539 0C9.12795 0 9.25087 0.0563532 9.35434 0.161001L12.7312 3.55778V1.78292C12.7312 1.49115 12.9575 1.26577 13.2312 1.26577C13.5236 1.26577 13.7594 1.49113 13.7594 1.78292V4.58605ZM14.514 8.81187C14.514 8.5181 14.7404 8.29272 15.0328 8.29272C15.3063 8.29272 15.5326 8.51813 15.5326 8.8119V16.4224C15.5326 16.6961 15.3063 16.9235 15.0328 16.9235H10.3353C10.0429 16.9235 9.81647 16.6961 9.81647 16.4224V13.5267H8.17526V16.4224C8.17526 16.6961 7.94887 16.9235 7.6754 16.9235H2.95897C2.68549 16.9235 2.45911 16.6961 2.45911 16.4224V9.04731C2.45911 8.7736 2.68549 8.54625 2.95897 8.54625C3.25156 8.54625 3.47773 8.7736 3.47773 9.04731V15.9032H7.14716V13.0075C7.14716 12.7359 7.38281 12.4984 7.6754 12.4984H10.3353C10.6089 12.4984 10.8353 12.7359 10.8353 13.0075V15.9032H14.514V8.81187Z" fill="white"/>
</svg>
