<svg width="13" height="25" viewBox="0 0 13 25" fill="none" xmlns="http://www.w3.org/2000/svg">
<path fill-rule="evenodd" clip-rule="evenodd" d="M12.6976 18.2171C12.499 18.0184 12.1767 18.0184 11.9782 18.2171L6.93214 23.2631V0.508749C6.93214 0.227835 6.7043 0 6.42339 0C6.14247 0 5.91464 0.227835 5.91464 0.508749V23.263L0.868445 18.2169C0.669864 18.0184 0.347656 18.0183 0.148989 18.217C-0.0496773 18.4157 -0.0496771 18.7378 0.149074 18.9365L6.0637 24.851C6.16299 24.9503 6.29323 25 6.42339 25C6.55354 25 6.68378 24.9503 6.78307 24.8509L12.6976 18.9364C12.8964 18.7378 12.8964 18.4157 12.6976 18.2171Z" fill="#7C6C8A"/>
</svg>
