<svg width="13" height="25" viewBox="0 0 13 25" fill="none" xmlns="http://www.w3.org/2000/svg">
<path fill-rule="evenodd" clip-rule="evenodd" d="M0.149063 6.78289C0.347644 6.98164 0.669937 6.98164 0.868434 6.78289L5.91454 1.73687L5.91454 24.4913C5.91454 24.7722 6.14238 25 6.42329 25C6.70421 25 6.93204 24.7722 6.93204 24.4913L6.93204 1.73695L11.9782 6.78306C12.1768 6.98164 12.499 6.98173 12.6977 6.78298C12.8964 6.58431 12.8964 6.26219 12.6976 6.06352L6.78298 0.148977C6.68369 0.0496859 6.55345 -5.50172e-07 6.42329 -5.6155e-07C6.29314 -5.72929e-07 6.1629 0.0496858 6.06361 0.149061L0.149063 6.06361C-0.0496886 6.26219 -0.0496886 6.58431 0.149063 6.78289Z" fill="#7C6C8A"/>
</svg>
