<svg width="30" height="30" viewBox="0 0 30 30" fill="none" xmlns="http://www.w3.org/2000/svg">
<path d="M20.7671 8.97352C20.469 8.67541 19.9856 8.67541 19.6875 8.97352L13.75 14.9111L19.6875 20.8487C19.9856 21.1468 20.469 21.1468 20.7671 20.8487C21.0652 20.5506 21.0652 20.0672 20.7671 19.7691L15.9091 14.9111L20.7671 10.0531C21.0652 9.75497 21.0652 9.27163 20.7671 8.97352Z" fill="#381451"/>
<path d="M8.97358 8.97352C9.2717 8.67541 9.75503 8.67541 10.0531 8.97352L15.9907 14.9111L10.0531 20.8487C9.75503 21.1468 9.2717 21.1468 8.97358 20.8487C8.67547 20.5506 8.67547 20.0672 8.97358 19.7691L13.8316 14.9111L8.97358 10.0531C8.67547 9.75497 8.67547 9.27163 8.97358 8.97352Z" fill="#381451"/>
</svg>
