<svg width="25" height="25" viewBox="0 0 25 25" fill="none" xmlns="http://www.w3.org/2000/svg">
<path fill-rule="evenodd" clip-rule="evenodd" d="M24.6888 18.2171C24.4902 18.0184 24.168 18.0184 23.9695 18.2171L18.9233 23.2631V0.508749C18.9233 0.227835 18.6955 0 18.4146 0C18.1337 0 17.9059 0.227835 17.9059 0.508749V23.263L12.8597 18.2169C12.6611 18.0184 12.3389 18.0183 12.1402 18.217C11.9415 18.4157 11.9415 18.7378 12.1403 18.9365L18.0549 24.851C18.1542 24.9503 18.2844 25 18.4146 25C18.5448 25 18.675 24.9503 18.7743 24.8509L24.6888 18.9364C24.8876 18.7378 24.8876 18.4157 24.6888 18.2171Z" fill="#7C6C8A"/>
<path fill-rule="evenodd" clip-rule="evenodd" d="M0.508749 1.0175H15.7828C16.0637 1.0175 16.2916 0.789663 16.2916 0.508749C16.2916 0.227835 16.0637 0 15.7828 0H0.508749C0.227835 0 0 0.227835 0 0.508749C0 0.789663 0.227835 1.0175 0.508749 1.0175Z" fill="#7C6C8A"/>
<path fill-rule="evenodd" clip-rule="evenodd" d="M0.508749 6.97233H15.7828C16.0637 6.97233 16.2916 6.7445 16.2916 6.46358C16.2916 6.18267 16.0637 5.95483 15.7828 5.95483H0.508749C0.227835 5.95483 0 6.18267 0 6.46358C0 6.7445 0.227835 6.97233 0.508749 6.97233Z" fill="#7C6C8A"/>
<path fill-rule="evenodd" clip-rule="evenodd" d="M0.508749 12.927H15.7828C16.0637 12.927 16.2916 12.6991 16.2916 12.4182C16.2916 12.1373 16.0637 11.9095 15.7828 11.9095H0.508749C0.227835 11.9095 0 12.1373 0 12.4182C0 12.6991 0.227835 12.927 0.508749 12.927Z" fill="#7C6C8A"/>
<path fill-rule="evenodd" clip-rule="evenodd" d="M10.4702 17.8643H0.508749C0.227835 17.8643 0 18.0922 0 18.3731C0 18.654 0.227835 18.8818 0.508749 18.8818H10.4702C10.7511 18.8818 10.979 18.654 10.979 18.3731C10.979 18.0922 10.7512 17.8643 10.4702 17.8643Z" fill="#7C6C8A"/>
<path fill-rule="evenodd" clip-rule="evenodd" d="M10.4702 23.8189H0.508749C0.227835 23.8189 0 24.0467 0 24.3277C0 24.6086 0.227835 24.8364 0.508749 24.8364H10.4702C10.7511 24.8364 10.979 24.6086 10.979 24.3277C10.979 24.0467 10.7512 23.8189 10.4702 23.8189Z" fill="#7C6C8A"/>
</svg>
