<svg width="21" height="21" viewBox="0 0 21 21" fill="none" xmlns="http://www.w3.org/2000/svg">
<path fill-rule="evenodd" clip-rule="evenodd" d="M14.25 9.17105C14.25 12.0728 11.7824 14.4342 8.75 14.4342C5.71763 14.4342 3.25 12.0728 3.25 9.17105C3.25 6.26927 5.71763 3.90789 8.75 3.90789C11.7824 3.90789 14.25 6.26927 14.25 9.17105ZM20.25 19.2115C20.25 18.8029 20.0817 18.4062 19.8053 18.1298L15.6827 14.0072C16.6562 12.601 17.1731 10.9183 17.1731 9.21154C17.1731 4.53606 13.387 0.75 8.71154 0.75C4.03606 0.75 0.25 4.53606 0.25 9.21154C0.25 13.887 4.03606 17.6731 8.71154 17.6731C10.4183 17.6731 12.101 17.1563 13.5072 16.1827L17.6298 20.2933C17.9062 20.5817 18.3029 20.75 18.7115 20.75C19.5529 20.75 20.25 20.0529 20.25 19.2115Z" fill="#887693"/>
</svg>
