<svg width="27" height="25" viewBox="0 0 27 25" fill="none" xmlns="http://www.w3.org/2000/svg">
<path fill-rule="evenodd" clip-rule="evenodd" d="M25.8205 0C26.2605 0 26.6712 0.238949 26.8765 0.657109C27.0819 1.07527 27.0232 1.55317 26.7592 1.91159L16.4334 15.1434V21.0275C16.4334 21.595 16.1694 22.1326 15.7001 22.491L12.444 24.7909C12.2386 24.9403 12.0039 25 11.7693 25C11.5639 25 11.3879 24.9403 11.2119 24.8507C10.8306 24.6416 10.5959 24.2533 10.5959 23.8053V15.1732L0.240816 1.91159C-0.0231943 1.55317 -0.0818632 1.07527 0.123478 0.657109C0.328819 0.268817 0.739502 0 1.17952 0H25.8205ZM25.8205 1.19474H1.17952L3.99563 4.77897H15.5534C15.8761 4.77897 16.1401 5.04779 16.1401 5.37634C16.1401 5.7049 15.8761 5.97372 15.5534 5.97372H4.905L11.5346 14.4564C11.6813 14.546 11.7693 14.7252 11.7693 14.9343V23.8053L15.0254 21.5054C15.1721 21.3859 15.2601 21.2067 15.2601 20.9976V14.9343C15.2601 14.7849 15.3187 14.6655 15.3774 14.5759L25.8205 1.19474ZM19.0736 4.77897C19.3962 4.77897 19.6602 5.04779 19.6602 5.37634C19.6602 5.7049 19.3962 5.97372 19.0736 5.97372H18.1935C17.8708 5.97372 17.6068 5.7049 17.6068 5.37634C17.6068 5.04779 17.8708 4.77897 18.1935 4.77897H19.0736Z" fill="#7C6C8A"/>
</svg>
