<svg width="22" height="30" viewBox="0 0 22 30" fill="none" xmlns="http://www.w3.org/2000/svg">
<path fill-rule="evenodd" clip-rule="evenodd" d="M12.8847 4.18758V6.18469H11.811V4.61707H0.966356V18.7903H8.24623V19.7566H0.966356V20.8303C0.966356 21.6893 1.61059 22.3336 2.46958 22.3336H8.24623V23.2999H2.46958C1.07373 23.2999 0 22.1188 0 20.723V19.2198V4.18758V2.46958C0 1.07373 1.07373 0 2.46958 0H10.3078C11.7036 0 12.7774 1.07373 12.7774 2.46958V3.93107C12.8462 4.0057 12.8847 4.09664 12.8847 4.18758ZM11.811 3.75809H0.966356V2.57695C0.966356 1.71797 1.61059 1.07373 2.46958 1.07373H10.3078C11.1668 1.07373 11.811 1.71797 11.811 2.57695V3.75809ZM5.15388 21.4746H7.62346C7.8382 21.4746 8.05295 21.2598 8.16032 20.9377C8.16032 20.6156 7.8382 20.4008 7.62346 20.4008H5.15388C4.93913 20.4008 4.72439 20.6156 4.72439 20.9377C4.72439 21.2598 4.93913 21.4746 5.15388 21.4746ZM11.2312 29.9999H19.0694C20.4653 29.9999 21.539 28.9262 21.539 27.4229V26.1073C21.5811 26.0426 21.6176 25.9773 21.6464 25.9198V10.8876C21.6464 10.7966 21.6079 10.7057 21.539 10.6311V9.16956C21.539 7.77371 20.4653 6.69998 19.0694 6.69998H11.2312C9.83536 6.69998 8.76163 7.77371 8.76163 9.16956V27.4229C8.76163 28.8188 9.83536 29.9999 11.2312 29.9999ZM20.5727 10.4581V9.27693C20.5727 8.41795 19.9284 7.77371 19.0694 7.77371H11.2312C10.3722 7.77371 9.72799 8.41795 9.72799 9.27693V10.4581H20.5727ZM20.5727 11.3171H9.728V25.4903H20.5727L20.5727 11.3171ZM20.5727 26.4567H9.72799V27.5303C9.72799 28.3893 10.3722 29.0335 11.2312 29.0335H19.0694C19.9284 29.0335 20.5727 28.2819 20.5727 27.5303V26.4567ZM16.3851 28.1747H13.9156C13.7008 28.1747 13.4861 27.96 13.4861 27.6379C13.4861 27.3158 13.7008 27.101 13.9156 27.101H16.3851C16.5999 27.101 16.922 27.3158 16.922 27.6379C16.8146 27.96 16.5999 28.1747 16.3851 28.1747ZM18.2099 3.02298C18.4114 2.99282 18.638 3.03412 18.8028 3.19894C18.9983 3.39444 18.9983 3.78542 18.7051 4.07866L18.1186 4.66514C17.8254 4.95838 17.4344 4.95838 17.2389 4.76289L16.6524 4.17641C16.4569 3.98092 16.4569 3.58993 16.6524 3.39444C16.7464 3.30048 16.8504 3.23662 16.9547 3.19966C16.6744 2.27756 15.7685 1.53734 14.7953 1.53734C14.4043 1.53734 14.111 1.2441 14.2088 0.950859C14.2088 0.559873 14.4043 0.36438 14.7953 0.36438C16.453 0.36438 17.8296 1.48899 18.2099 3.02298ZM3.07983 26.2482C2.86598 26.0912 2.80922 25.7202 3.04484 25.3995L3.51608 24.7579C3.75171 24.4372 4.12263 24.3804 4.33648 24.5375L4.97802 25.0087C5.29878 25.2443 5.35555 25.6153 5.11993 25.936C5.02152 26.07 4.80837 26.1843 4.584 26.193C4.73131 26.513 4.96059 26.8066 5.29024 27.0488C5.71794 27.3629 6.30271 27.4632 6.96602 27.4566C7.33695 27.3999 7.65772 27.6355 7.60756 27.9279C7.66432 28.2988 7.4287 28.6196 7.13632 28.5694C6.209 28.7113 5.41038 28.4539 4.66192 27.9041C4.11019 27.4989 3.70192 27.0201 3.46857 26.4249C3.34149 26.412 3.21311 26.3461 3.07983 26.2482Z" fill="#2D1441"/>
</svg>
