<svg width="1440" height="350" viewBox="0 0 1440 350" fill="none" xmlns="http://www.w3.org/2000/svg">
<path opacity="0.3" fill-rule="evenodd" clip-rule="evenodd" d="M1826.99 -2.00098L-93.0362 -2.00081C-93.0362 208.877 -93.0362 314.316 -93.0362 314.314C-14.9621 306.049 63.0946 301.916 141.151 301.916C371.735 301.916 371.735 350 602.318 350C832.901 350 832.901 301.916 1063.48 301.916C1294.07 301.916 1294.07 350 1524.65 350C1685.42 350 1734.1 326.626 1826.99 312.471C1826.99 312.468 1826.99 207.644 1826.99 -2.00098Z" fill="#2D1540"/>
<path opacity="0.3" fill-rule="evenodd" clip-rule="evenodd" d="M1826.99 -2.00195L-93.0195 -1.9966C-93.0195 202.219 -93.0195 304.326 -93.0195 304.324C46.9293 315.343 78.529 348.956 271.318 348.956C501.901 348.956 501.901 300.872 732.485 300.872C963.068 300.872 963.068 348.956 1193.65 348.956C1424.23 348.956 1424.23 300.872 1654.82 300.872C1712.21 300.872 1769.6 303.106 1826.99 307.573C1826.99 307.574 1826.99 204.383 1826.99 -2.00195Z" fill="#2D1540"/>
<path fill-rule="evenodd" clip-rule="evenodd" d="M1826.98 -1.99707L-93.0403 -1.9969C-93.0271 172.836 -93.0193 260.252 -93.017 260.252C-85.6276 260.178 -78.2383 260.141 -70.8489 260.141C159.734 260.141 166 308.225 390.318 308.225C620.901 308.225 620.901 260.141 851.485 260.141C1082.07 260.141 1082.07 308.225 1312.65 308.225C1543.23 308.225 1546.5 260.141 1773.82 260.141C1791.5 260.141 1809.31 260.35 1827 260.774C1827 260.77 1826.99 173.179 1826.98 -1.99707Z" fill="#2D1540"/>
</svg>
