<svg width="40" height="46" viewBox="0 0 40 46" fill="none" xmlns="http://www.w3.org/2000/svg">
<g filter="url(#filter0_d)">
<path d="M5 0L5 40L19.3929 31.3208L36 40L36 -1.35505e-06L5 0Z" fill="#E92070"/>
</g>
<path d="M5 10H0L5 0V10Z" fill="#A80948"/>
<path d="M16.9375 23.75C16.875 23.75 16.8125 23.75 16.75 23.6875C16.625 23.625 16.625 23.5 16.625 23.375L17.4375 18.75L14.125 15.5625C14 15.4375 14 15.3125 14 15.1875C14.0625 15.125 14.1875 15 14.25 15L18.875 14.3125L20.9375 10.125C21 10.0625 21.125 10 21.25 10C21.375 10 21.5 10.0625 21.5 10.1875L23.5625 14.375L28.25 15C28.375 15 28.4375 15.125 28.5 15.1875C28.5625 15.3125 28.5 15.4375 28.4375 15.5L25.0625 18.75L25.875 23.375C25.875 23.5 25.875 23.625 25.75 23.6875C25.625 23.75 25.5 23.75 25.4375 23.6875L21.25 21.5625L17.125 23.75C17.0625 23.75 17 23.75 16.9375 23.75Z" fill="white"/>
<defs>
<filter id="filter0_d" x="1" y="-2" width="39" height="48" filterUnits="userSpaceOnUse" color-interpolation-filters="sRGB">
<feFlood flood-opacity="0" result="BackgroundImageFix"/>
<feColorMatrix in="SourceAlpha" type="matrix" values="0 0 0 0 0 0 0 0 0 0 0 0 0 0 0 0 0 0 127 0"/>
<feOffset dy="2"/>
<feGaussianBlur stdDeviation="2"/>
<feColorMatrix type="matrix" values="0 0 0 0 0.176471 0 0 0 0 0.0784314 0 0 0 0 0.254902 0 0 0 0.2 0"/>
<feBlend mode="normal" in2="BackgroundImageFix" result="effect1_dropShadow"/>
<feBlend mode="normal" in="SourceGraphic" in2="effect1_dropShadow" result="shape"/>
</filter>
</defs>
</svg>
