<svg width="27" height="29" viewBox="0 0 27 29" fill="none" xmlns="http://www.w3.org/2000/svg">
<path d="M7.48129 19.3932H23.0454C24.8103 19.3932 26.25 17.9597 26.25 16.2025V9.68233C26.25 9.67655 26.25 9.66499 26.25 9.65921C26.25 9.64187 26.25 9.63031 26.25 9.61297C26.25 9.60141 26.25 9.58984 26.2442 9.57828C26.2442 9.56672 26.2384 9.54938 26.2384 9.53782C26.2384 9.52626 26.2326 9.5147 26.2326 9.50314C26.2268 9.49158 26.2268 9.48002 26.221 9.46268C26.2152 9.45112 26.2152 9.43956 26.2094 9.428C26.2036 9.41644 26.2036 9.40488 26.1978 9.39332C26.1919 9.38175 26.1861 9.37019 26.1803 9.35285C26.1745 9.34129 26.1687 9.32973 26.1629 9.32395C26.1571 9.31239 26.1513 9.30083 26.1455 9.28927C26.1397 9.27771 26.1339 9.27193 26.1281 9.26037C26.1223 9.24881 26.1107 9.23725 26.1049 9.22569C26.0991 9.21413 26.0933 9.20835 26.0816 9.19679C26.0758 9.18523 26.0642 9.17945 26.0584 9.16788C26.0526 9.15632 26.041 9.15054 26.0352 9.13898C26.0294 9.12742 26.0178 9.12164 26.012 9.11586C26.0004 9.1043 25.9946 9.09852 25.983 9.08696C25.9713 9.08118 25.9655 9.06962 25.9539 9.06384C25.9423 9.05806 25.9307 9.0465 25.9191 9.04072C25.9075 9.03494 25.9017 9.02916 25.8901 9.02338C25.8785 9.0176 25.8668 9.01182 25.8552 9.00026C25.8436 8.99448 25.832 8.9887 25.8204 8.98292C25.8088 8.97714 25.7972 8.97136 25.7856 8.96558C25.774 8.95979 25.7624 8.95401 25.7507 8.94823C25.7391 8.94245 25.7275 8.94245 25.7159 8.93667C25.7043 8.93089 25.6869 8.92511 25.6753 8.92511C25.6637 8.92511 25.652 8.91933 25.6462 8.91933C25.6288 8.91355 25.6172 8.91355 25.5998 8.91355C25.594 8.91355 25.5882 8.90777 25.5766 8.90777L5.84998 6.19682V3.45698C5.84998 3.42807 5.84998 3.39917 5.84418 3.37605C5.84418 3.37027 5.84418 3.36449 5.83837 3.35293C5.83837 3.33559 5.83257 3.31825 5.83257 3.30091C5.82676 3.28357 5.82676 3.27201 5.82096 3.25467C5.82096 3.24311 5.81515 3.23733 5.81515 3.22576C5.80935 3.20842 5.80354 3.19108 5.79774 3.17374C5.79774 3.16796 5.79193 3.1564 5.79193 3.15062C5.78612 3.13328 5.78032 3.12172 5.76871 3.10438C5.7629 3.0986 5.7629 3.08704 5.7571 3.08126C5.75129 3.0697 5.74549 3.05814 5.73388 3.04658C5.72807 3.03502 5.72227 3.02924 5.71646 3.01767C5.71066 3.00611 5.70485 3.00033 5.69904 2.98877C5.69324 2.97721 5.68163 2.96565 5.67582 2.95409C5.67002 2.94831 5.66421 2.94253 5.65841 2.93675C5.6468 2.92519 5.63519 2.91363 5.62357 2.90207C5.61777 2.89629 5.61196 2.89051 5.60616 2.88473C5.59455 2.87317 5.58294 2.86161 5.56552 2.85005C5.55972 2.84427 5.54811 2.83849 5.5423 2.83271C5.53069 2.82115 5.51908 2.81537 5.50747 2.8038C5.49005 2.79224 5.47264 2.78068 5.46103 2.7749C5.45522 2.76912 5.44941 2.76912 5.44361 2.76334C5.42039 2.75178 5.39136 2.74022 5.36814 2.72866L1.08959 0.936777C0.689023 0.769149 0.2304 0.954117 0.0620447 1.35296C-0.106311 1.7518 0.0794609 2.20844 0.48003 2.37606L4.27673 3.97142V7.50895V8.06963V12.3702V16.214V21.0695C4.27673 22.6879 5.49586 24.029 7.06911 24.2313C6.78465 24.7053 6.61629 25.2602 6.61629 25.8498C6.61629 27.5896 8.0386 29 9.78021 29C11.5218 29 12.9441 27.5838 12.9441 25.8498C12.9441 25.2717 12.7874 24.7226 12.5087 24.2602H19.5564C19.2778 24.7284 19.121 25.2717 19.121 25.8498C19.121 27.5896 20.5433 29 22.2849 29C24.0265 29 25.4489 27.5838 25.4489 25.8498C25.4489 24.1157 24.0265 22.6995 22.2849 22.6995H7.48129C6.57565 22.6995 5.84418 21.9654 5.84418 21.0695V18.9539C6.32022 19.2313 6.88334 19.3932 7.48129 19.3932ZM11.3825 25.844C11.3825 26.7226 10.6626 27.4335 9.78601 27.4335C8.9094 27.4335 8.18954 26.7168 8.18954 25.844C8.18954 24.9711 8.9094 24.2544 9.78601 24.2544C10.6626 24.2544 11.3825 24.9654 11.3825 25.844ZM23.8872 25.844C23.8872 26.7226 23.1674 27.4335 22.2907 27.4335C21.4141 27.4335 20.6943 26.7168 20.6943 25.844C20.6943 24.9711 21.4141 24.2544 22.2907 24.2544C23.1674 24.2544 23.8872 24.9654 23.8872 25.844ZM23.0454 17.8325H7.48129C6.57565 17.8325 5.84418 17.0984 5.84418 16.2025V12.3586V8.05807V7.76906L24.6826 10.3528V16.1967C24.6826 17.1042 23.9453 17.8325 23.0454 17.8325Z" fill="white"/>
</svg>
