<svg width="28" height="27" viewBox="0 0 28 27" fill="none" xmlns="http://www.w3.org/2000/svg">
<path fill-rule="evenodd" clip-rule="evenodd" d="M27.3334 13.3333C27.3334 20.6971 21.3638 26.6667 14 26.6667C6.63622 26.6667 0.666687 20.6971 0.666687 13.3333C0.666687 5.96954 6.63622 0 14 0C21.3638 0 27.3334 5.96954 27.3334 13.3333ZM5.20144 21.4934C7.39296 23.8553 10.5239 25.3333 14 25.3333C17.4762 25.3333 20.6071 23.8553 22.7986 21.4934C21.6714 20.4855 20.378 19.6775 18.9741 19.1064C17.3423 18.4426 15.5942 18.1121 13.8328 18.1344C12.0713 18.1567 10.3321 18.5314 8.71774 19.2363C7.43117 19.7981 6.24458 20.5606 5.20144 21.4934ZM4.27035 20.3586C2.84194 18.3838 2.00002 15.9569 2.00002 13.3333C2.00002 6.70592 7.3726 1.33333 14 1.33333C20.6274 1.33333 26 6.70592 26 13.3333C26 15.9569 25.1581 18.3838 23.7297 20.3586C22.4883 19.258 21.0674 18.3746 19.5268 17.7478C17.7137 17.0102 15.7714 16.643 13.8142 16.6678C11.857 16.6926 9.9246 17.1089 8.13082 17.8922C6.72039 18.5081 5.41811 19.3411 4.27035 20.3586ZM18.6667 10C18.6667 12.5773 16.5773 14.6667 14 14.6667C11.4227 14.6667 9.33335 12.5773 9.33335 10C9.33335 7.42267 11.4227 5.33333 14 5.33333C16.5773 5.33333 18.6667 7.42267 18.6667 10ZM10.64 10C10.64 11.8557 12.1443 13.36 14 13.36C15.8557 13.36 17.36 11.8557 17.36 10C17.36 8.14432 15.8557 6.64 14 6.64C12.1443 6.64 10.64 8.14432 10.64 10Z" fill="white"/>
</svg>
