<?xml version="1.0" encoding="UTF-8"?>
<svg width="280px" height="135px" viewBox="0 0 280 135" version="1.1" xmlns="http://www.w3.org/2000/svg" xmlns:xlink="http://www.w3.org/1999/xlink">
    <!-- Generator: Sketch 54.1 (76490) - https://sketchapp.com -->
    <title>Artboard</title>
    <desc>Created with Sketch.</desc>
    <g id="Artboard" stroke="none" stroke-width="1" fill="none" fill-rule="evenodd">
        <g id="wave-button-purple" transform="translate(-97.000000, 0.000000)" fill="#2D1441" fill-rule="nonzero">
            <g id="top-wave" transform="translate(306.500000, 67.500000) rotate(180.000000) translate(-306.500000, -67.500000) translate(0.000000, -0.000000)">
                <path d="M72,2.38742359e-12 L685,2.38742359e-12 L685,127.056923 C659.509014,132.352253 634.016037,135 608.520737,135 C570.270488,135 557.516203,127.056923 532.01377,127.056923 C493.760369,127.056923 493.760369,135 455.506968,135 C417.253401,135 417.253401,127.056923 379,127.056923 C340.746599,127.056923 340.746599,135 302.493032,135 C264.239631,135 264.239631,127.056923 225.98623,127.056923 C200.483797,127.056923 187.729014,135 149.479263,135 C123.983631,135 98.4906544,132.352253 73,127.056923 L72,2.38742359e-12 Z" id="Path"></path>
            </g>
        </g>
    </g>
</svg>