<svg width="184" height="80" viewBox="0 0 184 80" fill="none" xmlns="http://www.w3.org/2000/svg">
<path fill-rule="evenodd" clip-rule="evenodd" d="M182.127 57.3373C182.671 59.1251 181.944 60.2669 180.184 60.4837L170.238 61.6553C168.737 61.8246 167.555 61.1786 167.231 59.7155L158.517 23.892C158.259 23.0411 157.589 23.1237 157.518 24.0137L155.862 61.0523C155.779 62.5624 154.852 63.4741 153.346 63.6434L146.159 64.4897C144.653 64.6768 143.567 64.0037 143.159 62.5498L133.613 26.8388C133.351 25.9885 132.682 26.0705 132.602 26.9604L131.787 63.9039C131.779 65.3928 130.772 66.3125 129.271 66.4903L119.325 67.6665C117.561 67.8748 116.617 66.9201 116.755 65.0536L120.968 7.92043C121.059 6.40572 121.983 5.50324 123.485 5.3201L135.277 3.93564C136.779 3.75382 137.785 4.43481 138.281 5.87151L145.206 26.7998C145.464 27.6421 146.138 27.5641 146.204 26.6741L148.475 4.67812C148.654 3.15481 149.482 2.26027 150.996 2.08308L162.776 0.68936C164.282 0.511509 165.375 1.17597 165.779 2.62986L182.127 57.3373ZM0.171143 22.8029C-0.361125 21.0058 0.366941 19.8601 2.11772 19.6511L12.0635 18.4796C13.5773 18.3017 14.7464 18.9529 15.0746 20.4154L23.781 56.2343C24.0472 57.0898 24.7043 57.0118 24.7879 56.1133L26.443 19.0739C26.5342 17.5685 27.4619 16.6567 28.9554 16.4875L36.1518 15.6412C37.6574 15.4594 38.7428 16.1225 39.1547 17.5817L48.6969 53.2961C48.963 54.1556 49.6245 54.0776 49.7075 53.1791L50.523 16.2356C50.5351 14.7301 51.5255 13.823 53.0393 13.6445L62.9895 12.4643C64.7447 12.2607 65.6971 13.2154 65.5469 15.0812L61.3376 72.2151C61.2508 73.7298 60.3231 74.6329 58.8252 74.7936L47.0373 76.1953C45.5273 76.3771 44.5249 75.7007 44.0294 74.2501L37.1042 53.3358C36.8419 52.4934 36.1721 52.5675 36.1056 53.466L33.8307 75.4574C33.6559 76.9939 32.8239 77.8792 31.3139 78.061L19.5299 79.4462C18.0199 79.628 16.9344 78.9602 16.5225 77.5103L0.171143 22.8029ZM93.4711 7.28507C73.6587 9.60705 71.2837 25.535 70.8472 31.416L69.1376 53.7115C68.6927 59.5918 68.663 75.2428 88.4798 72.9036C108.292 70.5552 110.663 54.6404 111.108 48.7509L112.809 26.4685C113.258 20.5783 113.283 4.94523 93.4711 7.28507ZM89.6355 57.5568C83.4542 58.29 83.3503 54.1545 83.8788 47.2791L84.8521 34.45C85.3761 27.5793 86.1124 23.3432 92.3064 22.614C98.4959 21.8854 98.5916 26.0216 98.0713 32.8877L97.0854 45.7294C96.5778 52.5869 95.8339 56.8282 89.6355 57.5568Z" fill="#FEFEFE"/>
</svg>
