<svg width="59" height="26" viewBox="0 0 59 26" fill="none" xmlns="http://www.w3.org/2000/svg">
<path fill-rule="evenodd" clip-rule="evenodd" d="M58.3994 18.3852C58.5739 18.9585 58.3406 19.3246 57.7764 19.3942L54.5873 19.7698C54.1059 19.8241 53.727 19.617 53.623 19.1478L50.8288 7.66094C50.7461 7.3881 50.5313 7.4146 50.5086 7.69995L49.9777 19.5765C49.9511 20.0607 49.6538 20.353 49.1708 20.4073L46.8661 20.6787C46.3832 20.7387 46.0351 20.5229 45.9043 20.0567L42.8434 8.60583C42.7592 8.3332 42.5447 8.35949 42.5193 8.64484L42.2578 20.4908C42.2551 20.9683 41.9325 21.2632 41.4509 21.3202L38.2618 21.6973C37.6963 21.7641 37.3936 21.458 37.4377 20.8595L38.7887 2.53962C38.8179 2.05393 39.1142 1.76455 39.5957 1.70582L43.3769 1.26189C43.8584 1.20359 44.1811 1.42195 44.34 1.88263L46.5606 8.59333C46.6433 8.86341 46.8594 8.8384 46.8808 8.55305L47.609 1.49997C47.6663 1.01152 47.9316 0.724681 48.4172 0.667864L52.1946 0.220965C52.6774 0.163937 53.028 0.376998 53.1575 0.843189L58.3994 18.3852ZM0.054921 7.31171C-0.115752 6.73549 0.117704 6.36809 0.679096 6.3011L3.86824 5.92543C4.35364 5.8684 4.72851 6.07722 4.83376 6.54617L7.62548 18.0316C7.71082 18.3059 7.92152 18.2809 7.94834 17.9928L8.47905 6.11602C8.5083 5.63329 8.80576 5.34094 9.28466 5.28667L11.5922 5.01531C12.075 4.95701 12.423 5.16964 12.5551 5.63753L15.6148 17.0894C15.7001 17.365 15.9123 17.34 15.9389 17.0519L16.2004 5.2059C16.2042 4.72317 16.5218 4.4323 17.0072 4.37506L20.1978 3.99664C20.7606 3.93134 21.066 4.23747 21.0178 4.83574L19.6681 23.1558C19.6402 23.6415 19.3428 23.9311 18.8625 23.9827L15.0827 24.4321C14.5985 24.4904 14.277 24.2735 14.1182 23.8084L11.8976 17.1021C11.8135 16.8321 11.5987 16.8558 11.5774 17.1439L10.8479 24.1955C10.7919 24.6882 10.5251 24.9721 10.0409 25.0304L6.26233 25.4745C5.77815 25.5328 5.4301 25.3187 5.29803 24.8538L0.054921 7.31171ZM29.9717 2.33589C23.6189 3.08044 22.8573 8.18777 22.7173 10.0735L22.1692 17.2226C22.0265 19.1082 22.017 24.1267 28.3713 23.3766C34.724 22.6236 35.4843 17.5205 35.6269 15.632L36.1725 8.48711C36.3165 6.59839 36.3246 1.58562 29.9717 2.33589ZM28.7419 18.4556C26.7598 18.6907 26.7265 17.3647 26.896 15.1601L27.208 11.0464C27.3761 8.84328 27.6122 7.48498 29.5983 7.25115C31.583 7.01752 31.6136 8.3438 31.4468 10.5454L31.1307 14.6631C30.9679 16.862 30.7294 18.222 28.7419 18.4556Z" fill="#FEFEFE"/>
</svg>
