<svg width="16" height="28" viewBox="0 0 16 28" fill="none" xmlns="http://www.w3.org/2000/svg">
<path fill-rule="evenodd" clip-rule="evenodd" d="M1.29666 0.66658C1.17004 0.66658 1.04795 0.688303 0.930381 0.731749C0.81281 0.775194 0.708806 0.840363 0.618367 0.927254C0.437488 1.10103 0.34705 1.30957 0.34705 1.55286C0.34705 1.79616 0.437488 2.0047 0.618367 2.17848L13.0175 14.0912L0.808284 25.7953C0.627405 25.9691 0.536968 26.182 0.536967 26.4339C0.536967 26.6859 0.627405 26.8988 0.808284 27.0726C0.989162 27.2464 1.21073 27.3333 1.47301 27.3333C1.73528 27.3333 1.95685 27.2464 2.13773 27.0726L14.971 14.7168C15.1519 14.543 15.2423 14.3344 15.2423 14.0912C15.2423 13.8479 15.1519 13.6393 14.971 13.4655L1.94782 0.927254C1.85738 0.840363 1.75337 0.775194 1.6358 0.731749C1.51823 0.688303 1.40518 0.66658 1.29666 0.66658Z" fill="#E92070"/>
</svg>
