<svg width="23" height="17" xmlns="http://www.w3.org/2000/svg"><g fill="#BAB9C5" fill-rule="evenodd"><path d="M2.208 4.844c.29.178 1.168.709 2.63 1.59a653.5 653.5 0 0 1 3.363 2.037c.086.052.268.166.546.34.278.176.509.317.693.425.184.108.406.229.667.363.261.133.507.234.738.3.231.068.445.101.642.101h.026c.197 0 .41-.033.642-.1.23-.067.477-.168.738-.301.26-.134.483-.255.667-.363.184-.108.415-.25.693-.424.278-.175.46-.289.546-.34.787-.477 2.79-1.686 6.006-3.628a5.757 5.757 0 0 0 1.566-1.373c.42-.536.629-1.097.629-1.685 0-.491-.203-.912-.61-1.261A2.142 2.142 0 0 0 20.946 0H2.053C1.395 0 .888.193.533.58.178.967 0 1.45 0 2.031c0 .469.235.977.706 1.524.47.547.971.976 1.502 1.289z"/><path d="M21.716 7.003c-2.806 1.706-4.937 3.033-6.391 3.978-.488.323-.884.575-1.187.755-.304.181-.708.365-1.213.554-.505.188-.975.282-1.412.282h-.026c-.436 0-.907-.094-1.412-.282a7.672 7.672 0 0 1-1.213-.554c-.303-.18-.699-.432-1.187-.755-1.155-.76-3.281-2.087-6.379-3.978A6.652 6.652 0 0 1 0 6v9.155c0 .508.201.942.603 1.303.402.361.886.542 1.45.542h18.894c.564 0 1.048-.18 1.45-.542.402-.361.603-.795.603-1.303V6a6.914 6.914 0 0 1-1.284 1.003z"/></g></svg>