<svg width="50" height="51" viewBox="0 0 50 51" fill="none" xmlns="http://www.w3.org/2000/svg">
<path fill-rule="evenodd" clip-rule="evenodd" d="M5.84501 4.1958C4.91806 4.1958 4.16663 4.94724 4.16663 5.87419V44.477C4.16663 45.404 4.91807 46.1554 5.84501 46.1554H16.6666H18.75H31.2501H33.3334H44.1549C45.0819 46.1554 45.8333 45.404 45.8333 44.477V5.87419C45.8333 4.94724 45.0819 4.1958 44.1549 4.1958H33.3334H31.2501H18.75H16.6666H5.84501ZM16.6666 6.29378H6.24996V44.0575H16.6666V6.29378ZM18.75 44.0575H31.2501V6.29378H18.75V44.0575ZM43.75 44.0575H33.3334V6.29378H43.75V44.0575ZM8.33329 11.5387C8.33329 10.9594 8.80294 10.4897 9.38228 10.4897H13.5343C14.1136 10.4897 14.5833 10.9594 14.5833 11.5387C14.5833 12.1181 14.1136 12.5877 13.5343 12.5877H9.38228C8.80294 12.5877 8.33329 12.1181 8.33329 11.5387ZM9.38228 14.6857C8.80294 14.6857 8.33329 15.1554 8.33329 15.7347C8.33329 16.314 8.80294 16.7837 9.38228 16.7837H13.5343C14.1136 16.7837 14.5833 16.314 14.5833 15.7347C14.5833 15.1554 14.1136 14.6857 13.5343 14.6857H9.38228ZM8.33329 19.9307C8.33329 19.3513 8.80294 18.8817 9.38228 18.8817H13.5343C14.1136 18.8817 14.5833 19.3513 14.5833 19.9307C14.5833 20.51 14.1136 20.9797 13.5343 20.9797H9.38228C8.80294 20.9797 8.33329 20.51 8.33329 19.9307ZM9.37496 29.3716C8.79966 29.3716 8.33329 29.838 8.33329 30.4132V36.7218C8.33329 37.2971 8.79966 37.7635 9.37496 37.7635C9.95025 37.7635 10.4166 37.2971 10.4166 36.7218V30.4132C10.4166 29.838 9.95025 29.3716 9.37496 29.3716ZM20.8333 11.5387C20.8333 10.9594 21.3029 10.4897 21.8823 10.4897H28.1176C28.697 10.4897 29.1666 10.9594 29.1666 11.5387C29.1666 12.1181 28.697 12.5877 28.1176 12.5877H21.8823C21.3029 12.5877 20.8333 12.1181 20.8333 11.5387ZM21.8823 14.6857C21.3029 14.6857 20.8333 15.1554 20.8333 15.7347C20.8333 16.314 21.3029 16.7837 21.8823 16.7837H28.1176C28.697 16.7837 29.1666 16.314 29.1666 15.7347C29.1666 15.1554 28.697 14.6857 28.1176 14.6857H21.8823ZM20.8333 19.9307C20.8333 19.3513 21.3029 18.8817 21.8823 18.8817H28.1176C28.697 18.8817 29.1666 19.3513 29.1666 19.9307C29.1666 20.51 28.697 20.9797 28.1176 20.9797H21.8823C21.3029 20.9797 20.8333 20.51 20.8333 19.9307ZM21.875 29.3716C21.2997 29.3716 20.8333 29.838 20.8333 30.4132V36.7218C20.8333 37.2971 21.2997 37.7635 21.875 37.7635C22.4503 37.7635 22.9166 37.2971 22.9166 36.7218V30.4132C22.9166 29.838 22.4503 29.3716 21.875 29.3716ZM35.4167 11.5387C35.4167 10.9594 35.8864 10.4897 36.4657 10.4897H40.6177C41.1971 10.4897 41.6667 10.9594 41.6667 11.5387C41.6667 12.1181 41.1971 12.5877 40.6177 12.5877H36.4657C35.8864 12.5877 35.4167 12.1181 35.4167 11.5387ZM36.4657 14.6857C35.8864 14.6857 35.4167 15.1554 35.4167 15.7347C35.4167 16.314 35.8864 16.7837 36.4657 16.7837H40.6177C41.1971 16.7837 41.6667 16.314 41.6667 15.7347C41.6667 15.1554 41.1971 14.6857 40.6177 14.6857H36.4657ZM35.4167 19.9307C35.4167 19.3513 35.8864 18.8817 36.4657 18.8817H40.6177C41.1971 18.8817 41.6667 19.3513 41.6667 19.9307C41.6667 20.51 41.1971 20.9797 40.6177 20.9797H36.4657C35.8864 20.9797 35.4167 20.51 35.4167 19.9307ZM36.4584 29.3716C35.8831 29.3716 35.4167 29.838 35.4167 30.4132V36.7218C35.4167 37.2971 35.8831 37.7635 36.4584 37.7635C37.0337 37.7635 37.5001 37.2971 37.5001 36.7218V30.4132C37.5001 29.838 37.0337 29.3716 36.4584 29.3716Z" fill="#7C6C8A"/>
</svg>
