<svg width="66" height="67" viewBox="0 0 66 67" fill="none" xmlns="http://www.w3.org/2000/svg">
<path fill-rule="evenodd" clip-rule="evenodd" d="M3.77912 26.9618L38.3149 7.02255L40.5303 10.8599L40.5303 10.8599L5.99459 30.7991L3.77912 26.9618ZM5.19122 33.8385L12.9378 47.256C13.5496 48.3157 14.9046 48.6787 15.9642 48.0669L50.4999 28.1277C51.5596 27.5159 51.9226 26.161 51.3109 25.1013L40.2335 5.91482C39.6217 4.85517 38.2668 4.49212 37.2071 5.1039L2.67138 25.0431C1.61174 25.6549 1.24868 27.0099 1.86046 28.0695L5.17611 33.8124L5.18362 33.8255L5.19122 33.8385ZM8.21006 34.6364L42.7458 14.6972L42.7458 14.6972L49.3922 26.2091L14.8565 46.1483L8.21006 34.6364ZM39.502 26.8026C38.8902 25.743 39.2533 24.388 40.3129 23.7762L42.2316 22.6685C43.2912 22.0567 44.6462 22.4198 45.258 23.4794C45.8698 24.5391 45.5067 25.894 44.4471 26.5058L42.5284 27.6135C41.4688 28.2253 40.1138 27.8623 39.502 26.8026ZM13.3035 36.8116C12.7736 37.1175 12.5921 37.795 12.898 38.3248C13.2039 38.8546 13.8814 39.0361 14.4112 38.7302L29.7604 29.8684C30.2902 29.5625 30.4718 28.885 30.1659 28.3552C29.86 27.8254 29.1825 27.6438 28.6527 27.9497L13.3035 36.8116ZM15.1135 42.1629C14.8076 41.6331 14.9891 40.9556 15.5189 40.6497L25.1122 35.111C25.642 34.8052 26.3195 34.9867 26.6254 35.5165C26.9313 36.0463 26.7498 36.7238 26.2199 37.0297L16.6267 42.5684C16.0969 42.8743 15.4194 42.6927 15.1135 42.1629ZM28.9494 32.8956C28.4196 33.2015 28.2381 33.8789 28.5439 34.4088C28.8498 34.9386 29.5273 35.1201 30.0571 34.8142L31.9758 33.7065C32.5056 33.4006 32.6871 32.7231 32.3813 32.1933C32.0754 31.6635 31.3979 31.482 30.8681 31.7878L28.9494 32.8956Z" fill="#7C6C8A"/>
</svg>
