<svg width="52" height="52" viewBox="0 0 52 52" fill="none" xmlns="http://www.w3.org/2000/svg">
<path fill-rule="evenodd" clip-rule="evenodd" d="M45.7967 26.0003H41.1007L41.0985 26.0003H32.1837H30.4504H30.4503V24.267V14.7337V13.0003H30.4504V10.8337H6.7835V19.067H26V20.8003H6.7835V36.8337H11.4539C12.34 34.3091 14.7308 32.5003 17.5412 32.5003C20.3516 32.5003 22.7425 34.3091 23.6285 36.8337H32.9693C33.8553 34.3091 36.2462 32.5003 39.0566 32.5003C41.867 32.5003 44.2578 34.3091 45.1439 36.8337H47.3335L45.7967 26.0003ZM45.7967 23.8337H42.7768L42.7723 23.8168L40.2084 14.2835C40.0048 13.5265 39.3185 13.0003 38.5346 13.0003H32.602V10.8337C32.602 9.63704 31.6387 8.66699 30.4504 8.66699H6.7835C5.59525 8.66699 4.63197 9.63704 4.63197 10.8337V36.8337C4.63197 38.0303 5.59525 39.0003 6.7835 39.0003H11.0866C11.0866 42.5902 13.9764 45.5003 17.5412 45.5003C21.106 45.5003 23.9958 42.5902 23.9958 39.0003H32.602C32.602 42.5902 35.4918 45.5003 39.0566 45.5003C42.6214 45.5003 45.5112 42.5902 45.5112 39.0003H47.3335C48.6428 39.0003 49.6486 37.8325 49.4634 36.5272L47.9266 25.6939C47.7752 24.6265 46.8674 23.8337 45.7967 23.8337ZM32.602 23.8337V14.7337H38.5346L40.9819 23.8337H32.602ZM43.4457 39.0003C43.4457 41.4414 41.4806 43.4203 39.0566 43.4203C36.6325 43.4203 34.6675 41.4414 34.6675 39.0003C34.6675 36.5592 36.6325 34.5803 39.0566 34.5803C41.4806 34.5803 43.4457 36.5592 43.4457 39.0003ZM21.9303 39.0003C21.9303 41.4414 19.9653 43.4203 17.5412 43.4203C15.1172 43.4203 13.1521 41.4414 13.1521 39.0003C13.1521 36.5592 15.1172 34.5803 17.5412 34.5803C19.9653 34.5803 21.9303 36.5592 21.9303 39.0003ZM4.63188 33.5761C4.63188 32.982 4.15024 32.5003 3.55611 32.5003C2.96198 32.5003 2.48034 32.982 2.48034 33.5761V35.7579C2.48034 36.352 2.96198 36.8337 3.55611 36.8337C4.15024 36.8337 4.63188 36.352 4.63188 35.7579V33.5761ZM44.4354 28.167C45.0296 28.167 45.5112 28.6486 45.5112 29.2428V31.4246C45.5112 32.0187 45.0296 32.5003 44.4354 32.5003C43.8413 32.5003 43.3597 32.0187 43.3597 31.4246V29.2428C43.3597 28.6486 43.8413 28.167 44.4354 28.167ZM21.9316 12.1337C22.4102 12.1337 22.7982 12.5217 22.7982 13.0003C22.7982 13.479 22.4102 13.867 21.9316 13.867H8.0649C7.58625 13.867 7.19823 13.479 7.19823 13.0003C7.19823 12.5217 7.58625 12.1337 8.0649 12.1337H21.9316ZM22.7982 16.467C22.7982 15.9883 22.4102 15.6003 21.9316 15.6003H8.0649C7.58625 15.6003 7.19823 15.9883 7.19823 16.467C7.19823 16.9456 7.58625 17.3337 8.0649 17.3337H21.9316C22.4102 17.3337 22.7982 16.9456 22.7982 16.467Z" fill="#7C6C8A"/>
</svg>
