<svg width="31" height="26" viewBox="0 0 31 26" fill="none" xmlns="http://www.w3.org/2000/svg">
<path fill-rule="evenodd" clip-rule="evenodd" d="M20.4327 4.30114L19.8806 3.40393L19.0254 2.01428L19.0199 2.00526L19.0144 1.99617C18.9833 1.94429 18.9041 1.88528 18.7924 1.88528H12.2076C12.1086 1.88528 12.0251 1.93494 11.9784 2.01492L11.978 2.01563L11.1887 3.38083L10.6443 4.32252H9.55655H4.63931C3.12065 4.32252 1.88528 5.56797 1.88528 7.07655V21.0372C1.88528 22.5672 3.14201 23.8126 4.63931 23.8126H26.3393C27.8636 23.8126 29.1147 22.5615 29.1147 21.0372V7.05517C29.1147 5.55787 27.8693 4.30114 26.3393 4.30114H21.4862H20.4327ZM10.4449 0.916387C10.8446 0.344409 11.4989 0 12.2076 0H18.7924C19.5407 0 20.2462 0.384827 20.631 1.02621L21.4862 2.41586H26.3393C28.9048 2.41586 31 4.51103 31 7.05517V21.0372C31 23.6028 28.9048 25.6979 26.3393 25.6979H4.63931C2.09517 25.6979 0 23.6028 0 21.0372V7.07655C0 5.54025 0.756201 4.16766 1.92024 3.32127C2.46994 2.92158 3.1106 2.63923 3.80552 2.5124C4.07595 2.46304 4.3546 2.43724 4.63931 2.43724H8.68H9.55655L9.92735 1.79586L10.3476 1.06897C10.3781 1.01647 10.4106 0.965588 10.4449 0.916387ZM8.44714 1.79586H8.68C8.68 1.42631 8.53399 1.09326 8.29605 0.850793C8.17133 0.723696 8.02135 0.621489 7.8539 0.551962C7.69397 0.48556 7.51811 0.448966 7.3331 0.448966H5.15241C4.9674 0.448966 4.79154 0.485561 4.63161 0.551966C4.14471 0.754134 3.80552 1.2326 3.80552 1.79586H4.63931H5.15241H5.6908H6.79472H7.3331H8.44714ZM26.5533 7.22059C26.5533 8.37834 25.6148 9.31688 24.457 9.31688C23.2993 9.31688 22.3607 8.37834 22.3607 7.22059C22.3607 6.06283 23.2993 5.12429 24.457 5.12429C25.6148 5.12429 26.5533 6.06283 26.5533 7.22059ZM15.3729 21.4286C19.2321 21.4286 22.3606 18.3001 22.3606 14.441C22.3606 10.5818 19.2321 7.4533 15.3729 7.4533C11.5137 7.4533 8.38525 10.5818 8.38525 14.441C8.38525 18.3001 11.5137 21.4286 15.3729 21.4286Z" fill="#7C6C8A"/>
</svg>
