<svg width="27" height="27" viewBox="0 0 27 27" fill="none" xmlns="http://www.w3.org/2000/svg">
<path fill-rule="evenodd" clip-rule="evenodd" d="M16.1761 0C16.6766 0 17.0823 0.405742 17.0823 0.90625V4.62054H18.8224C20.3239 4.62054 21.5412 5.83776 21.5412 7.33929V9.07937H25.6682C26.1687 9.07937 26.5744 9.48511 26.5744 9.98562C26.5744 10.4861 26.1687 10.8919 25.6682 10.8919H21.5412V11.9683H25.6682C26.1687 11.9683 26.5744 12.374 26.5744 12.8745C26.5744 13.375 26.1687 13.7808 25.6682 13.7808H21.5412V14.8571H25.6682C26.1687 14.8571 26.5744 15.2629 26.5744 15.7634C26.5744 16.2639 26.1687 16.6696 25.6682 16.6696H21.5412V18.4097C21.5412 19.9112 20.3239 21.1285 18.8224 21.1285H17.0823V25.2555C17.0823 25.756 16.6766 26.1617 16.1761 26.1617C15.6756 26.1617 15.2698 25.756 15.2698 25.2555V21.1285H14.1935V25.2555C14.1935 25.756 13.7877 26.1617 13.2872 26.1617C12.7867 26.1617 12.381 25.756 12.381 25.2555V21.1285H11.3046V25.2555C11.3046 25.756 10.8988 26.1617 10.3983 26.1617C9.89781 26.1617 9.49206 25.756 9.49206 25.2555V21.1285H7.75198C6.25046 21.1285 5.03323 19.9112 5.03323 18.4097V16.6696H0.90625C0.405742 16.6696 0 16.2639 0 15.7634C0 15.2629 0.405742 14.8571 0.90625 14.8571H5.03323V13.7808H0.90625C0.405742 13.7808 0 13.375 0 12.8745C0 12.374 0.405742 11.9683 0.90625 11.9683H5.03323V10.8919H0.90625C0.405742 10.8919 0 10.4861 0 9.98562C0 9.48511 0.405742 9.07937 0.90625 9.07937H5.03323V7.33928C5.03323 5.83776 6.25046 4.62054 7.75198 4.62054H9.49206V0.90625C9.49206 0.405742 9.89781 0 10.3983 0C10.8988 0 11.3046 0.405742 11.3046 0.90625V4.62054H12.381V0.90625C12.381 0.405742 12.7867 0 13.2872 0C13.7877 0 14.1935 0.405742 14.1935 0.90625V4.62054H15.2698V0.90625C15.2698 0.405742 15.6756 0 16.1761 0ZM6.84573 7.33928C6.84573 6.83878 7.25148 6.43304 7.75198 6.43304H18.8224C19.3229 6.43304 19.7287 6.83878 19.7287 7.33929V18.4097C19.7287 18.9102 19.3229 19.316 18.8224 19.316H7.75198C7.25148 19.316 6.84573 18.9102 6.84573 18.4097V7.33928ZM9.57292 10.3837C9.57292 9.70797 10.1207 9.16022 10.7964 9.16022H15.7781C16.4537 9.16022 17.0015 9.70797 17.0015 10.3837V15.3654C17.0015 16.041 16.4537 16.5888 15.7781 16.5888H10.7964C10.1207 16.5888 9.57292 16.041 9.57292 15.3654V10.3837ZM11.3854 14.7763V10.9727H15.189V14.7763H11.3854Z" fill="#7C6C8A"/>
</svg>
