<svg width="37" height="26" viewBox="0 0 37 26" fill="none" xmlns="http://www.w3.org/2000/svg">
<path fill-rule="evenodd" clip-rule="evenodd" d="M36.2222 16.0845C36.6149 16.962 36.8333 17.9346 36.8333 18.9583C36.8333 22.8491 33.6838 26 29.7906 26H7.04276C3.15297 26 0 22.8479 0 18.9583C0 17.9296 0.220181 16.9526 0.616053 16.0719C0.623456 16.0531 0.631409 16.0344 0.639956 16.0157L6.77907 2.60419C7.45382 1.13012 9.20964 0 10.828 0H26.0053C27.6234 0 29.3794 1.12997 30.0543 2.60419L36.1934 16.0157C36.2038 16.0386 36.2134 16.0615 36.2222 16.0845ZM4.72008 12.3079C5.44712 12.0544 6.22868 11.9167 7.04276 11.9167H29.7906C30.6046 11.9167 31.3863 12.0547 32.1136 12.3086L28.0842 3.50599C27.7618 2.80166 26.775 2.16667 26.0053 2.16667H10.828C10.0582 2.16667 9.0715 2.8017 8.74912 3.50599L4.72008 12.3079ZM2.16667 18.9583C2.16667 21.6511 4.34946 23.8333 7.04276 23.8333H29.7906C32.487 23.8333 34.6667 21.6527 34.6667 18.9583C34.6667 16.2655 32.4839 14.0833 29.7906 14.0833H7.04276C4.34632 14.0833 2.16667 16.264 2.16667 18.9583ZM4.33333 18.9583C4.33333 17.1641 5.79019 15.7083 7.58333 15.7083C9.37761 15.7083 10.8333 17.1652 10.8333 18.9583C10.8333 20.7526 9.37648 22.2083 7.58333 22.2083C5.78906 22.2083 4.33333 20.7515 4.33333 18.9583ZM6.5 18.9583C6.5 19.5552 6.98605 20.0417 7.58333 20.0417C8.18023 20.0417 8.66667 19.5556 8.66667 18.9583C8.66667 18.3614 8.18061 17.875 7.58333 17.875C6.98643 17.875 6.5 18.3611 6.5 18.9583ZM28.1667 17.3333C28.1667 16.735 28.6517 16.25 29.25 16.25C29.8483 16.25 30.3333 16.735 30.3333 17.3333V20.5833C30.3333 21.1816 29.8483 21.6667 29.25 21.6667C28.6517 21.6667 28.1667 21.1816 28.1667 20.5833V17.3333ZM24.375 17.3333C24.375 16.735 24.86 16.25 25.4583 16.25C26.0566 16.25 26.5417 16.735 26.5417 17.3333V20.5833C26.5417 21.1816 26.0566 21.6667 25.4583 21.6667C24.86 21.6667 24.375 21.1816 24.375 20.5833V17.3333ZM20.5833 17.3333C20.5833 16.735 21.0684 16.25 21.6667 16.25C22.265 16.25 22.75 16.735 22.75 17.3333V20.5833C22.75 21.1816 22.265 21.6667 21.6667 21.6667C21.0684 21.6667 20.5833 21.1816 20.5833 20.5833V17.3333Z" fill="#7C6C8A"/>
</svg>
