<svg width="23" height="28" viewBox="0 0 23 28" fill="none" xmlns="http://www.w3.org/2000/svg">
<path fill-rule="evenodd" clip-rule="evenodd" d="M4.85535 2.54545V6.36364H7.4008V3.81818H20.1281V24.1818H7.4008V21.6364H4.85535V25.4545C4.85535 26.8545 6.0008 28 7.4008 28H20.1281C21.5281 28 22.6735 26.8545 22.6735 25.4545V2.54545C22.6735 1.14545 21.5281 0 20.1281 0H7.4008C6.0008 0 4.85535 1.14545 4.85535 2.54545ZM8.03716 18.4545C8.40625 18.3018 8.73716 18.0855 9.05534 17.8436L9.02989 17.8818L10.3153 18.3782C10.6081 18.4927 10.939 18.3782 11.0917 18.0982L12.1608 16.24C12.3135 15.9727 12.2499 15.6164 12.0081 15.4255L10.9263 14.56L10.9008 14.5982C10.9072 14.5473 10.9143 14.4964 10.9215 14.4455C10.943 14.2927 10.9644 14.14 10.9644 13.9873C10.9644 13.8345 10.943 13.6818 10.9215 13.5291C10.9143 13.4782 10.9072 13.4273 10.9008 13.3764L10.9263 13.4145L12.0081 12.5491C12.2499 12.3582 12.3135 12.0018 12.1608 11.7345L11.0917 9.87636C10.939 9.60909 10.6081 9.48182 10.3153 9.59636L9.02989 10.0927L9.05534 10.1309C8.73716 9.91455 8.40625 9.69818 8.03716 9.54545L7.8208 8.17091C7.78262 7.86545 7.51534 7.63636 7.19716 7.63636H5.05898C4.7408 7.63636 4.47353 7.86545 4.43535 8.17091L4.21898 9.54545C3.84989 9.69818 3.51898 9.91455 3.2008 10.1564L3.22625 10.1182L1.92807 9.62182C1.63535 9.50727 1.30444 9.62182 1.15171 9.90182L0.082618 11.76C-0.0701093 12.0273 -0.00647295 12.3836 0.235345 12.5745L1.31716 13.44L1.34262 13.4018C1.33698 13.4441 1.33071 13.4871 1.32438 13.5305C1.30212 13.683 1.27898 13.8415 1.27898 14C1.27898 14.1527 1.30046 14.3055 1.32194 14.4582C1.3291 14.5091 1.33625 14.56 1.34262 14.6109L1.31716 14.5727L0.235345 15.4382C-0.00647295 15.6291 -0.0701093 15.9855 0.082618 16.2527L1.15171 18.1109C1.30444 18.3782 1.63535 18.5055 1.92807 18.3909L3.21353 17.8945L3.2008 17.8436C3.51898 18.0855 3.84989 18.3018 4.21898 18.4545L4.43535 19.8164C4.47353 20.1345 4.7408 20.3636 5.05898 20.3636H7.19716C7.51534 20.3636 7.78262 20.1345 7.8208 19.8291L8.03716 18.4545ZM6.12807 11.4545C4.72807 11.4545 3.58262 12.6 3.58262 14C3.58262 15.4 4.72807 16.5455 6.12807 16.5455C7.52807 16.5455 8.67353 15.4 8.67353 14C8.67353 12.6 7.52807 11.4545 6.12807 11.4545Z" fill="#7C6C8A"/>
</svg>
