<svg width="16" height="28" viewBox="0 0 16 28" fill="none" xmlns="http://www.w3.org/2000/svg">
<path d="M9.56909 5.93835C9.17553 5.93835 8.85649 6.2574 8.85649 6.65096C8.85649 7.04452 9.17553 7.36356 9.56909 7.36356H12.1141V9.97644C12.1141 10.37 12.4331 10.689 12.8267 10.689C13.2203 10.689 13.5393 10.37 13.5393 9.97644V6.65096C13.5393 6.2574 13.2203 5.93835 12.8267 5.93835H9.56909Z" fill="#7C6C8A"/>
<path d="M3.63107 18.0526C3.63107 17.659 3.31203 17.34 2.91847 17.34C2.52491 17.34 2.20586 17.659 2.20586 18.0526V21.3781C2.20586 21.7716 2.52491 22.0907 2.91847 22.0907H6.17608C6.56964 22.0907 6.88868 21.7716 6.88868 21.3781C6.88868 20.9845 6.56964 20.6655 6.17608 20.6655H3.63107V18.0526Z" fill="#7C6C8A"/>
<path fill-rule="evenodd" clip-rule="evenodd" d="M2.24014 0H13.4408C14.6774 0 15.681 0.896 15.681 2V26C15.681 27.104 14.6774 28 13.4408 28H2.24014C1.00358 28 0 27.104 0 26V2C0 0.896 1.00358 0 2.24014 0ZM11.2007 2H6.72041V3H11.2007V2ZM5.60034 2H4.48027V3H5.60034V2ZM6.72041 26C6.72041 26.553 7.22108 27 7.84048 27C8.45987 27 8.96054 26.553 8.96054 26C8.96054 25.448 8.45987 25 7.84048 25C7.22108 25 6.72041 25.448 6.72041 26ZM1.12007 23H14.5609V5H1.12007V23Z" fill="#7C6C8A"/>
</svg>
