<svg width="36" height="44" viewBox="0 0 36 44" fill="none" xmlns="http://www.w3.org/2000/svg">
<g filter="url(#filter0_d)">
<path d="M4 2L4 38L16.9536 30.1887L31.9 38L31.9 2L4 2Z" fill="#E92070"/>
</g>
<path d="M13.8437 23.375C13.7875 23.375 13.7312 23.375 13.675 23.3187C13.5625 23.2625 13.5625 23.15 13.5625 23.0375L14.2937 18.875L11.3125 16.0062C11.2 15.8937 11.2 15.7812 11.2 15.6687C11.2562 15.6125 11.3687 15.5 11.425 15.5L15.5875 14.8812L17.4437 11.1125C17.5 11.0563 17.6125 11 17.725 11C17.8375 11 17.95 11.0562 17.95 11.1687L19.8062 14.9375L24.025 15.5C24.1375 15.5 24.1937 15.6125 24.25 15.6687C24.3062 15.7812 24.25 15.8937 24.1937 15.95L21.1562 18.875L21.8875 23.0375C21.8875 23.15 21.8875 23.2625 21.775 23.3187C21.6625 23.375 21.55 23.375 21.4937 23.3187L17.725 21.4062L14.0125 23.375C13.9562 23.375 13.9 23.375 13.8437 23.375Z" fill="white"/>
<defs>
<filter id="filter0_d" x="0" y="0" width="35.9" height="44" filterUnits="userSpaceOnUse" color-interpolation-filters="sRGB">
<feFlood flood-opacity="0" result="BackgroundImageFix"/>
<feColorMatrix in="SourceAlpha" type="matrix" values="0 0 0 0 0 0 0 0 0 0 0 0 0 0 0 0 0 0 127 0"/>
<feOffset dy="2"/>
<feGaussianBlur stdDeviation="2"/>
<feColorMatrix type="matrix" values="0 0 0 0 0.176471 0 0 0 0 0.0784314 0 0 0 0 0.254902 0 0 0 0.2 0"/>
<feBlend mode="normal" in2="BackgroundImageFix" result="effect1_dropShadow"/>
<feBlend mode="normal" in="SourceGraphic" in2="effect1_dropShadow" result="shape"/>
</filter>
</defs>
</svg>
