<svg width="23" height="19" xmlns="http://www.w3.org/2000/svg"><path d="M21.945 15.345l-8.62-13.824c-.38-.61-1.063-.976-1.825-.976s-1.444.365-1.825.976l-8.62 13.824a1.809 1.809 0 0 0 0 1.952c.381.611 1.063.976 1.825.976h17.24c.762 0 1.444-.365 1.825-.976a1.81 1.81 0 0 0 0-1.952zm-10.445.679c-.756 0-1.372-.57-1.372-1.27 0-.701.616-1.27 1.372-1.27.757 0 1.372.569 1.372 1.27 0 .7-.616 1.27-1.372 1.27zm1.381-5.43c0 .705-.62 1.279-1.38 1.279-.762 0-1.382-.574-1.382-1.28V4.725c0-.334.293-.606.654-.606h1.454c.361 0 .654.272.654.606v5.87z" fill="#E92070" fill-rule="nonzero"/></svg>