<?xml version="1.0" encoding="UTF-8"?>
<svg width="23px" height="19px" viewBox="0 0 23 19" version="1.1" xmlns="http://www.w3.org/2000/svg" xmlns:xlink="http://www.w3.org/1999/xlink">
    <!-- Generator: Sketch 54.1 (76490) - https://sketchapp.com -->
    <title>attention-icon</title>
    <desc>Created with Sketch.</desc>
    <g id="Page-1" stroke="none" stroke-width="1" fill="none" fill-rule="evenodd">
        <g id="attention-icon" fill="#FFFFFF" fill-rule="nonzero">
            <path d="M21.945,15.345 L13.325,1.521 C12.945,0.911 12.262,0.545 11.5,0.545 C10.738,0.545 10.056,0.91 9.675,1.521 L1.055,15.345 C0.673831247,15.9398433 0.673831247,16.7021567 1.055,17.297 C1.436,17.908 2.118,18.273 2.88,18.273 L20.12,18.273 C20.882,18.273 21.564,17.908 21.945,17.297 C22.3259187,16.7020835 22.3259187,15.9399165 21.945,15.345 Z M11.5,16.024 C10.744,16.024 10.128,15.454 10.128,14.754 C10.128,14.053 10.744,13.484 11.5,13.484 C12.257,13.484 12.872,14.053 12.872,14.754 C12.872,15.454 12.256,16.024 11.5,16.024 Z M12.881,10.594 C12.881,11.299 12.261,11.873 11.501,11.873 C10.739,11.873 10.119,11.299 10.119,10.593 L10.119,4.725 C10.119,4.391 10.412,4.119 10.773,4.119 L12.227,4.119 C12.588,4.119 12.881,4.391 12.881,4.725 L12.881,10.595 L12.881,10.594 Z" id="Shape"></path>
        </g>
    </g>
</svg>