<svg width="115" height="115" viewBox="0 0 115 115" fill="none" xmlns="http://www.w3.org/2000/svg">
<g clip-path="url(#clip0)">
<path fill-rule="evenodd" clip-rule="evenodd" d="M61.7604 43.9911H52.5292C52.2139 44.0108 51.8897 43.9679 51.5746 43.8541C27.9129 35.3266 18.7605 52.2932 17.7659 54.333L6.34475 91.4715C10.0036 92.8117 18.0419 95.3969 24.4426 96.2803C25.7438 96.463 26.657 97.6615 26.4743 98.9627C26.3145 100.15 25.2872 101.017 24.123 101.017C24.0184 101.017 23.9234 101.008 23.8204 100.997H23.8203L23.7919 100.994C17.2953 100.095 9.2777 97.5955 5.0257 96.0503C4.54949 98.5693 4.57998 101.182 6.37359 102.113C17.3999 107.854 43.4703 109.384 57.1448 109.384C70.8078 109.384 96.8783 107.854 107.905 102.113C109.666 101.195 109.718 98.6431 109.262 96.1576C105.05 97.7008 97.2486 100.117 90.8743 100.994C90.7716 101.006 90.6575 101.017 90.5547 101.017C89.3905 101.017 88.3632 100.161 88.2034 98.9627C88.0207 97.6615 88.9339 96.463 90.2351 96.2803C96.5927 95.3991 104.367 92.8885 107.949 91.5669L107.916 91.4749L96.4136 54.1231C94.9603 51.3486 85.5672 35.6217 62.715 43.8541C62.3999 43.9679 62.0758 44.0108 61.7604 43.9911ZM101.114 53.1854C101.11 53.1595 101.106 53.1337 101.102 53.1079L101.147 47.4952L101.102 46.3652C101.102 24.7006 85.4207 6.39707 64.2788 2.94938V2.3742C64.2788 1.06154 63.2173 0 61.9046 0H52.3964C51.0838 0 50.0222 1.06154 50.0222 2.3742V2.96521C28.868 6.43174 13.1652 24.7301 13.1652 46.3766V53.1567L1.83066 90.0138C1.58795 90.6677 1.37221 91.2971 1.1818 91.9028C1.11527 92.0589 1.06679 92.2188 1.03556 92.38C-1.57205 101.117 1.21788 104.791 4.18203 106.336C16.0302 112.5 43.048 114.144 57.1448 114.144C71.2416 114.144 98.2594 112.5 110.119 106.325C113.326 104.658 116.34 100.469 112.459 90.0024L101.114 53.1854ZM54.7706 4.76007V4.7598H59.5304V39.2313H54.7706V35.67C54.7706 34.3573 53.7091 33.2958 52.3964 33.2958C51.0838 33.2958 50.0222 34.3573 50.0222 35.67V38.3499C33.4055 33.5647 23.2046 40.3782 17.9144 46.1094C18.0356 27.1814 31.607 11.1742 50.0222 7.79229V10.6425C42.3606 12.1691 35.4234 15.9822 30.321 21.5046C29.4307 22.4634 29.4992 23.9701 30.458 24.8604C30.9145 25.2827 31.4853 25.4882 32.0674 25.4882C32.7066 25.4882 33.3458 25.2257 33.8138 24.7234C38.0353 20.1618 43.7122 16.9415 50.0222 15.5006V23.7876C50.0222 25.1002 51.0838 26.1618 52.3964 26.1618C53.7091 26.1618 54.7706 25.1002 54.7706 23.7876V5.30138C54.7909 5.12495 54.7915 4.94364 54.7706 4.76007ZM64.2788 7.77807C82.6083 11.1462 96.1562 27.0943 96.3399 46.0657C91.0391 40.3449 80.8471 33.58 64.2788 38.3466V7.77807ZM77.9761 79.7181C73.7694 79.7181 68.9856 79.2978 65.4659 78.3709V78.9439L76.3709 95.1985C76.6947 95.144 77.0252 95.1161 77.3597 95.1161C77.92 95.1161 78.4688 95.1929 78.9937 95.3421L86.9934 81.5444C87.6554 80.4143 89.1051 80.0262 90.2465 80.6769C91.3765 81.3389 91.7646 82.7885 91.114 83.93L82.6978 98.4462C83.0947 99.2503 83.3066 100.141 83.3066 101.063C83.3066 102.65 82.6902 104.145 81.5602 105.263C80.4416 106.393 78.9463 107.01 77.3597 107.01C75.7731 107.01 74.2778 106.393 73.1592 105.263C72.6258 104.73 72.204 104.111 71.9087 103.437H42.3854C42.0913 104.111 41.6692 104.73 41.1304 105.263C40.0118 106.393 38.5165 107.01 36.9299 107.01C35.3433 107.01 33.848 106.393 32.7294 105.263C31.6108 104.145 30.983 102.65 30.983 101.063C30.983 100.135 31.1937 99.2391 31.5945 98.431L23.187 83.93C22.525 82.7886 22.9131 81.3389 24.0545 80.6769C25.1845 80.0149 26.6456 80.4029 27.3076 81.5444L35.3071 95.3417C35.8286 95.1933 36.3736 95.1161 36.9299 95.1161C37.2647 95.1161 37.5954 95.1435 37.9194 95.1975L48.8237 78.9439V78.3738C45.3076 79.2975 40.5218 79.7181 36.3136 79.7181H35.72C34.4074 79.7066 33.3572 78.6337 33.3687 77.321C33.3801 76.0198 34.4416 74.9697 35.7428 74.9697H35.7657C41.4751 75.0182 46.5567 74.249 48.9168 73.3858C49.5134 69.4918 52.9114 66.5916 57.1448 66.5916C61.3751 66.5916 64.7712 69.4876 65.3715 73.3772C67.7379 74.2367 72.8204 74.997 78.5126 74.9583C79.8024 74.8898 80.8982 75.997 80.9096 77.3096C80.921 78.6223 79.8709 79.6953 78.5582 79.7067C78.3756 79.7181 78.1815 79.7181 77.9761 79.7181ZM35.7314 101.074C35.7314 100.908 35.7691 100.601 36.0071 100.315C36.0674 100.261 36.1244 100.205 36.1781 100.146C36.4619 99.9129 36.7654 99.8759 36.9299 99.8759C37.1125 99.8759 37.4664 99.9215 37.7746 100.23C38.0828 100.538 38.1284 100.892 38.1284 101.074C38.1284 101.268 38.0828 101.622 37.7746 101.919C37.4664 102.227 37.1125 102.273 36.9299 102.273C36.7473 102.273 36.3934 102.227 36.0852 101.919C35.7771 101.611 35.7314 101.257 35.7314 101.074ZM69.0386 92.8041L66.653 89.2483V98.6888H69.0386V92.8041ZM61.9046 98.6888V83.2337H59.519V98.6888H61.9046ZM54.7706 98.6888V83.2337H52.3851V98.6888H54.7706ZM47.6366 98.6888H45.251V92.8042L47.6366 89.2483V98.6888ZM60.7175 78.4739H57.1448H53.5949V74.6045C53.5949 72.7097 55.0902 71.34 57.1562 71.34C59.2222 71.34 60.7175 72.7097 60.7175 74.6045V74.7735C60.713 74.858 60.7131 74.9425 60.7175 75.0266V78.4739ZM76.1685 101.204C76.1712 101.157 76.1726 101.11 76.1726 101.063C76.1726 101.021 76.1715 100.979 76.1694 100.938C76.1922 100.744 76.272 100.473 76.515 100.23C76.8232 99.9215 77.1771 99.8759 77.3597 99.8759C77.5423 99.8759 77.8962 99.9215 78.2044 100.23C78.5126 100.538 78.5582 100.892 78.5582 101.074C78.5582 101.257 78.5126 101.611 78.2044 101.919C77.8962 102.227 77.5423 102.273 77.3597 102.273C77.1771 102.273 76.8232 102.227 76.515 101.919C76.2688 101.673 76.1902 101.397 76.1685 101.204ZM23.5523 66.8084C25.8237 69.1141 31.0401 70.0729 36.4277 70.0729C42.3403 70.0729 48.4699 68.92 51.1865 67.1166C51.8029 66.7171 53.6863 65.4615 53.4808 57.8139C53.4922 56.056 53.3438 51.7414 51.6317 49.858C47.1116 44.8814 34.2475 45.4178 28.6088 49.5384C25.2872 51.9697 21.7716 56.3756 21.4178 60.7473C21.2237 63.0987 21.9657 65.199 23.5523 66.8084ZM31.4168 53.3737C33.5627 51.8099 37.3066 51.0109 40.7652 51.0109C43.9041 51.0109 46.8148 51.6729 48.0704 53.0084C48.4242 53.5905 48.7324 55.8392 48.721 57.8481C48.7781 60.0054 48.5726 62.4595 48.2644 63.327C43.8927 65.7811 29.3736 65.9409 26.9309 63.464C26.326 62.8476 26.0748 62.1057 26.1547 61.124C26.3488 58.7156 28.5632 55.4625 31.4168 53.3737ZM77.7934 70.0387C77.4282 70.0387 77.0857 70.0387 76.7661 70.0273C72.052 69.9246 65.9453 69.1141 62.9319 67.1166L62.9292 67.1148C62.3101 66.7021 60.4324 65.4504 60.6376 57.7226C60.6262 56.0332 60.7746 51.73 62.4867 49.8466C67.0068 44.8699 79.8594 45.395 85.5096 49.527C88.8312 51.9583 92.3468 56.3642 92.7006 60.736C92.8947 63.0987 92.1527 65.1876 90.5661 66.797C87.8609 69.5479 81.7771 70.0387 77.7934 70.0387ZM65.8426 63.3385C70.2143 65.7925 84.7334 65.9523 87.1761 63.4754C87.781 62.859 88.0321 62.1171 87.9522 61.1355C87.7582 58.727 85.5438 55.4625 82.6902 53.3851C78.6039 50.3945 68.6848 50.2005 66.0252 53.0312C65.6714 53.6134 65.3632 55.8962 65.3746 57.791C65.3289 60.0054 65.5458 62.471 65.8426 63.3385ZM25.1503 34.5627C25.4471 34.6997 25.7667 34.7568 26.0748 34.7568C27.0108 34.7568 27.8897 34.2089 28.2664 33.2957C28.7001 32.2684 29.2024 31.2526 29.7503 30.2823C30.3895 29.1409 29.99 27.6913 28.8485 27.0406C27.7071 26.39 26.2575 26.8009 25.6069 27.9424C24.9677 29.0724 24.3855 30.2481 23.8833 31.4466C23.3811 32.6565 23.9404 34.0491 25.1503 34.5627Z" fill="#553E65"/>
<path d="M74.9213 13.2801L73.8539 18.6801L73 23.6647L75.7753 28.2339L80.8989 30.5186H86.0225L92 25.3262V18.6801L88.3708 10.1647L81.9663 3.51855L74.9213 13.2801Z" fill="white"/>
<path d="M90.7559 20.5946C90.7559 21.0281 90.727 21.4583 90.6692 21.8886C90.6885 21.7473 90.7077 21.6028 90.727 21.4615C90.6114 22.3221 90.3802 23.1634 90.0431 23.9661C90.0977 23.8377 90.1522 23.7092 90.2036 23.584C89.8761 24.3547 89.4522 25.0771 88.9417 25.7386C89.0252 25.6294 89.1087 25.5235 89.1922 25.4143C88.6752 26.0822 88.0747 26.6826 87.4068 27.1996C87.516 27.1161 87.622 27.0326 87.7312 26.9491C87.0665 27.4597 86.344 27.8835 85.5766 28.2111C85.705 28.1565 85.8335 28.1019 85.9587 28.0505C85.1559 28.3877 84.3179 28.6188 83.4541 28.7344C83.5954 28.7152 83.7399 28.6959 83.8812 28.6766C83.0078 28.7922 82.1216 28.789 81.2482 28.6702C81.3894 28.6895 81.5339 28.7088 81.6752 28.728C80.8307 28.6092 80.0023 28.3844 79.2156 28.0537C79.344 28.1083 79.4725 28.1629 79.5977 28.2143C78.8174 27.8835 78.0821 27.4533 77.4078 26.9363C77.517 27.0198 77.623 27.1033 77.7321 27.1867C77.0771 26.6794 76.4895 26.0918 75.9789 25.4368C76.0624 25.5459 76.1459 25.6519 76.2294 25.7611C75.7124 25.09 75.2821 24.3547 74.9514 23.5744C75.006 23.7028 75.0606 23.8313 75.112 23.9565C74.7844 23.1698 74.5597 22.3414 74.4441 21.4969C74.4633 21.6382 74.4826 21.7826 74.5019 21.9239C74.3799 20.996 74.3959 20.0583 74.5179 19.1304C74.4987 19.2717 74.4794 19.4161 74.4601 19.5574C74.6528 18.1157 75.0927 16.7221 75.6546 15.3864C75.6 15.5148 75.5454 15.6432 75.4941 15.7685C76.7367 12.8336 78.5285 10.146 80.3973 7.58044C81.0073 6.74558 81.6303 5.92036 82.2628 5.10156C82.1794 5.21073 82.0959 5.31669 82.0124 5.42587C82.5743 4.69697 83.1459 3.9745 83.7174 3.25524C82.9596 3.25524 82.2051 3.25524 81.4473 3.25524C82.035 3.99055 82.6161 4.72908 83.1909 5.47403C83.1074 5.36486 83.0238 5.2589 82.9404 5.14972C85.005 7.82448 87.0247 10.5763 88.6206 13.5625C89.0027 14.2754 89.3559 15.001 89.6706 15.746C89.616 15.6175 89.5614 15.4891 89.51 15.3639C90.072 16.6964 90.5119 18.09 90.7045 19.5253C90.6853 19.384 90.666 19.2395 90.6467 19.0983C90.7206 19.5928 90.7559 20.0905 90.7559 20.5946C90.7559 21.0056 90.9357 21.4391 91.2247 21.7313C91.5041 22.0106 91.9601 22.2193 92.3615 22.2001C92.7757 22.1808 93.2059 22.046 93.4981 21.7313C93.7871 21.4166 93.9701 21.0313 93.9669 20.5946C93.9637 18.0065 93.1352 15.5244 92.0403 13.2093C90.7976 10.5827 89.1568 8.15521 87.4454 5.81761C86.2445 4.17679 84.9954 2.57451 83.727 0.988278C83.4959 0.699289 82.9468 0.503419 82.5904 0.519473C82.1922 0.538739 81.7138 0.663968 81.4537 0.988278C79.967 2.85065 78.4996 4.7355 77.1156 6.68136C75.9661 8.29649 74.8711 9.95978 73.9207 11.7001C73.0569 13.2896 72.2927 14.9657 71.795 16.7093C71.5542 17.5602 71.4001 18.424 71.2941 19.3038C71.2042 20.0712 71.1849 20.845 71.2652 21.6157C71.3615 22.5565 71.5317 23.4813 71.8528 24.3739C72.1675 25.2409 72.5656 26.0854 73.0826 26.8528C74.1037 28.3684 75.4587 29.6592 77.0642 30.5422C78.7115 31.4509 80.5739 31.9422 82.4555 31.9679C84.3532 31.9936 86.2348 31.5216 87.9142 30.645C89.5454 29.7909 90.9132 28.5161 91.9697 27.0198C92.5059 26.2588 92.9074 25.4271 93.2477 24.5634C93.5944 23.6771 93.7742 22.7652 93.893 21.8244C93.9444 21.4166 93.9701 21.0056 93.9701 20.5946C93.9701 20.1836 93.7903 19.7501 93.5014 19.4579C93.222 19.1785 92.766 18.9698 92.3646 18.9891C91.9504 19.0084 91.5201 19.1432 91.2279 19.4579C90.9389 19.7726 90.7559 20.1579 90.7559 20.5946Z" fill="#E92070"/>
<path d="M80.1984 23.4331C80.147 23.3946 80.0957 23.3593 80.0443 23.3207C80.1535 23.4042 80.2594 23.4877 80.3686 23.5712C80.0057 23.2886 79.6782 22.9643 79.3925 22.6015C79.4759 22.7106 79.5594 22.8166 79.6429 22.9258C79.3603 22.5597 79.1291 22.1648 78.9461 21.7409C79.0007 21.8694 79.0553 21.9978 79.1067 22.123C78.9333 21.7056 78.8145 21.2689 78.7503 20.8226C78.7695 20.9639 78.7888 21.1084 78.8081 21.2496C78.7278 20.6428 78.7567 20.023 78.8369 19.4162C78.8177 19.5575 78.7984 19.7019 78.7792 19.8432C78.8915 19.002 79.1291 18.1831 79.4567 17.4029C79.4021 17.5313 79.3475 17.6598 79.2961 17.785C79.5466 17.1974 79.8484 16.6387 80.1856 16.096C80.4039 15.7492 80.4553 15.2483 80.3461 14.8598C80.2434 14.4873 79.9544 14.0827 79.6076 13.8997C78.8209 13.4823 77.8865 13.7134 77.4113 14.4745C75.6773 17.2552 74.7012 21.0987 76.5411 24.0753C77.0709 24.9327 77.7581 25.6134 78.5704 26.201C78.8883 26.4322 79.4438 26.4643 79.8067 26.3615C80.1791 26.2588 80.5837 25.9698 80.7668 25.623C80.9626 25.2505 81.0622 24.7978 80.9273 24.3868C80.8727 24.2583 80.8181 24.1299 80.7668 24.0047C80.6319 23.7671 80.4392 23.5744 80.1984 23.4331Z" fill="#E92070"/>
</g>
<defs>
<clipPath id="clip0">
<rect width="115" height="115" fill="white"/>
</clipPath>
</defs>
</svg>
