<svg width="14" height="22" xmlns="http://www.w3.org/2000/svg"><path d="M12.425 0c.438 0 .81.15 1.116.451.306.301.459.666.459 1.096v18.906c0 .43-.153.795-.46 1.096-.306.3-.677.451-1.115.451H1.575c-.438 0-.81-.15-1.116-.451C.153 21.248 0 20.883 0 20.453V1.547C0 1.117.153.752.46.45.765.151 1.136 0 1.574 0h10.85zM7.656 20.453c.219 0 .398-.06.536-.178a.542.542 0 0 0 .208-.423.542.542 0 0 0-.208-.423.793.793 0 0 0-.536-.179H6.344a.793.793 0 0 0-.536.179.542.542 0 0 0-.208.423c0 .162.07.303.208.423.138.119.317.178.536.178h1.312zm4.944-2.578V2.75H1.4v15.125h11.2z" fill="#8C6796" fill-rule="evenodd"/></svg>