<?xml version="1.0" encoding="UTF-8"?>
<svg width="66px" height="54px" viewBox="0 0 66 54" version="1.1" xmlns="http://www.w3.org/2000/svg" xmlns:xlink="http://www.w3.org/1999/xlink">
    <!-- Generator: Sketch 54.1 (76490) - https://sketchapp.com -->
    <title>ico_idcard</title>
    <desc>Created with Sketch.</desc>
    <g id="Page-1" stroke="none" stroke-width="1" fill="none" fill-rule="evenodd">
        <g id="rut_active-copy" transform="translate(-148.000000, -275.000000)" fill-rule="nonzero" stroke="#F4F1F5">
            <g id="ico_idcard" transform="translate(146.000000, 275.000000)">
                <path d="M14,9 L62.783,9 C65.108,9 67,10.892 67,13.217 L67,48.783 C67,51.108 65.108,53 62.783,53 L11.217,53 C8.892,53 7,51.108 7,48.783 L7,30 L9,30 L9,48.783 C9,50.006 9.994,51 11.217,51 L62.783,51 C64.006,51 65,50.006 65,48.783 L65,13.217 C65,11.994 64.006,11 62.783,11 L14,11 L14,9 Z" id="Combined-Shape" stroke-width="0.3" fill="#7C6C8A"></path>
                <path d="M32.638,37.246 L29,35.388 L29,35.001 C30.628,34.112 31.773,32.648 32.412,30.637 C33.381,30.123 34,29.122 34,28 L34,27 C34,26.074 33.569,25.215 32.849,24.651 C32.225,20.871 29.587,18.955 25,18.955 C24.783,18.955 24.571,18.963 24.364,18.979 C23.5,19.05 22.235,18.975 21.14,18.239 C20.731,17.963 20.422,17.695 20.225,17.446 C19.889,17.017 19.324,16.867 18.823,17.073 C18.321,17.279 18.026,17.781 18.089,18.32 C18.131,18.694 18.194,19.129 18.289,19.606 C18.482,20.581 18.482,20.581 18.211,21.164 C18.109,21.385 17.983,21.654 17.835,22.017 C17.504,22.828 17.269,23.716 17.134,24.664 C16.424,25.229 16,26.083 16,27 L16,28 C16,29.122 16.619,30.123 17.588,30.637 C18.227,32.649 19.372,34.113 21,35.001 L21,35.377 L17.231,37.235 C15.855,37.985 15,39.425 15,40.993 L15,42.318 C15,43.121 15,45 25,45 C35,45 35,43.121 35,42.318 L35,41.073 C35,39.442 34.095,37.977 32.638,37.246 Z M33,42.092 C32.376,42.472 29.838,43 25,43 C20.162,43 17.624,42.472 17,42.092 L17,40.993 C17,40.158 17.455,39.39 18.152,39.011 L22.009,37.11 C22.611,36.816 22.999,36.193 22.999,35.522 L22.999,33.719 L22.395,33.459 C20.878,32.805 19.892,31.558 19.38,29.645 L19.237,29.112 L18.711,28.948 C18.293,28.817 18,28.428 18,28 L18,27 C18,26.638 18.207,26.302 18.541,26.124 L19.01,25.874 L19.065,25.345 C19.164,24.407 19.373,23.542 19.687,22.775 C19.82,22.45 19.933,22.207 20.025,22.008 C20.364,21.28 20.487,20.904 20.402,20.133 C21.578,20.805 22.991,21.091 24.524,20.974 C24.679,20.961 24.838,20.955 25.001,20.955 C28.745,20.955 30.573,22.311 30.93,25.353 L30.992,25.875 L31.457,26.121 C31.791,26.299 32,26.636 32,27 L32,28 C32,28.428 31.707,28.817 31.288,28.947 L30.762,29.111 L30.619,29.644 C30.107,31.557 29.121,32.804 27.604,33.458 L27,33.719 L27,35.53 C27,36.199 27.37,36.802 27.964,37.105 L31.739,39.034 C32.517,39.422 33,40.204 33,41.073 L33,42.092 Z" id="Shape" stroke-width="0.3" fill="#7C6C8A"></path>
                <path d="M40,24 L50,24 C50.553,24 51,23.553 51,23 C51,22.447 50.553,22 50,22 L40,22 C39.447,22 39,22.447 39,23 C39,23.553 39.447,24 40,24 Z" id="Path" stroke-width="0.3" fill="#7C6C8A"></path>
                <path d="M54,24 L55,24 C55.553,24 56,23.553 56,23 C56,22.447 55.553,22 55,22 L54,22 C53.447,22 53,22.447 53,23 C53,23.553 53.447,24 54,24 Z" id="Path" stroke-width="0.3" fill="#7C6C8A"></path>
                <path d="M47,39 L45,39 C44.447,39 44,39.447 44,40 C44,40.553 44.447,41 45,41 L47,41 C47.553,41 48,40.553 48,40 C48,39.447 47.553,39 47,39 Z" id="Path" stroke-width="0.3" fill="#7C6C8A"></path>
                <path d="M52,39 L51,39 C50.447,39 50,39.447 50,40 C50,40.553 50.447,41 51,41 L52,41 C52.553,41 53,40.553 53,40 C53,39.447 52.553,39 52,39 Z" id="Path" stroke-width="0.3" fill="#7C6C8A"></path>
                <path d="M58,39 L56,39 C55.447,39 55,39.447 55,40 C55,40.553 55.447,41 56,41 L58,41 C58.553,41 59,40.553 59,40 C59,39.447 58.553,39 58,39 Z" id="Path" stroke-width="0.3" fill="#7C6C8A"></path>
                <path d="M61.29,39.29 C61.109,39.479 61,39.74 61,40 C61,40.26 61.109,40.52 61.29,40.71 C61.479,40.89 61.74,41 62,41 C62.26,41 62.52,40.89 62.71,40.71 C62.89,40.52 63,40.26 63,40 C63,39.74 62.89,39.479 62.71,39.29 C62.33,38.92 61.66,38.92 61.29,39.29 Z" id="Path" stroke-width="0.3" fill="#7C6C8A"></path>
                <path d="M62,28 L40,28 C39.447,28 39,28.447 39,29 C39,29.553 39.447,30 40,30 L62,30 C62.553,30 63,29.553 63,29 C63,28.447 62.553,28 62,28 Z" id="Path" stroke-width="0.3" fill="#7C6C8A"></path>
                <path d="M62,34 L40,34 C39.447,34 39,34.447 39,35 C39,35.553 39.447,36 40,36 L62,36 C62.553,36 63,35.553 63,35 C63,34.447 62.553,34 62,34 Z" id="Path" stroke-width="0.3" fill="#7C6C8A"></path>
                <g id="Group-5" transform="translate(8.572289, 14.036808) rotate(-21.000000) translate(-8.572289, -14.036808) translate(4.572289, 0.536808)" fill="#E92070">
                    <path d="M3.88521334,-0.342711979 L4.81763624,-0.342711979 C5.92220574,-0.342711979 6.81763624,0.552718522 6.81763624,1.65728802 C6.81763624,1.72046187 6.81464304,1.78360025 6.80866671,1.84649078 L5.46802059,15.9544632 C5.37627768,16.919898 4.56549336,17.657288 3.59570932,17.657288 L3.59570932,17.657288 C2.65102848,17.657288 1.88521334,16.8914729 1.88521334,15.946792 L1.88521334,1.65728802 C1.88521334,0.552718522 2.78064384,-0.342711979 3.88521334,-0.342711979 Z" id="Rectangle" stroke-width="0.3"></path>
                    <circle id="Oval" stroke-width="0.6" cx="3.75291733" cy="23.3374722" r="3.5"></circle>
                </g>
            </g>
        </g>
    </g>
</svg>