<svg width="98" height="93" viewBox="0 0 98 93" fill="none" xmlns="http://www.w3.org/2000/svg">
<path d="M39.8125 19.8199V13.7215C39.8125 12.9129 39.4898 12.1373 38.9155 11.5654C38.3412 10.9936 37.5622 10.6724 36.75 10.6724C35.9378 10.6724 35.1588 10.9936 34.5845 11.5654C34.0102 12.1373 33.6875 12.9129 33.6875 13.7215V19.8199C33.6875 20.6286 34.0102 21.4042 34.5845 21.976C35.1588 22.5478 35.9378 22.8691 36.75 22.8691C37.5622 22.8691 38.3412 22.5478 38.9155 21.976C39.4898 21.4042 39.8125 20.6286 39.8125 19.8199Z" fill="#7C6C8A"/>
<path d="M15.3125 38.115H21.4375C22.2497 38.115 23.0287 37.7937 23.603 37.2219C24.1773 36.65 24.5 35.8745 24.5 35.0658C24.5 34.2571 24.1773 33.4815 23.603 32.9097C23.0287 32.3379 22.2497 32.0166 21.4375 32.0166H15.3125C14.5003 32.0166 13.7213 32.3379 13.147 32.9097C12.5727 33.4815 12.25 34.2571 12.25 35.0658C12.25 35.8745 12.5727 36.65 13.147 37.2219C13.7213 37.7937 14.5003 38.115 15.3125 38.115Z" fill="#7C6C8A"/>
<path d="M26.6591 20.7189L23.5966 17.6697C23.0108 17.1702 22.2572 16.9092 21.4864 16.9388C20.7157 16.9684 19.9845 17.2866 19.4391 17.8296C18.8937 18.3727 18.5742 19.1006 18.5444 19.868C18.5146 20.6354 18.7768 21.3858 19.2785 21.9691L22.341 25.0182C22.9269 25.5178 23.6805 25.7788 24.4512 25.7492C25.222 25.7195 25.9531 25.4014 26.4986 24.8584C27.044 24.3153 27.3635 23.5874 27.3933 22.8199C27.423 22.0525 27.1609 21.3022 26.6591 20.7189Z" fill="#7C6C8A"/>
<path d="M61.25 83.8525C62.0622 83.8525 62.8412 83.5312 63.4155 82.9594C63.9898 82.3876 64.3125 81.612 64.3125 80.8033V74.7049C64.3125 73.8962 63.9898 73.1207 63.4155 72.5488C62.8412 71.977 62.0622 71.6558 61.25 71.6558C60.4378 71.6558 59.6588 71.977 59.0845 72.5488C58.5102 73.1207 58.1875 73.8962 58.1875 74.7049V80.8033C58.1875 81.612 58.5102 82.3876 59.0845 82.9594C59.6588 83.5312 60.4378 83.8525 61.25 83.8525Z" fill="#7C6C8A"/>
<path d="M85.75 59.4588C85.75 58.6502 85.4273 57.8746 84.853 57.3027C84.2787 56.7309 83.4997 56.4097 82.6875 56.4097H76.5625C75.7503 56.4097 74.9713 56.7309 74.397 57.3027C73.8227 57.8746 73.5 58.6502 73.5 59.4588C73.5 60.2675 73.8227 61.0431 74.397 61.6149C74.9713 62.1868 75.7503 62.508 76.5625 62.508H82.6875C83.4997 62.508 84.2787 62.1868 84.853 61.6149C85.4273 61.0431 85.75 60.2675 85.75 59.4588Z" fill="#7C6C8A"/>
<path d="M74.4034 76.8542C74.9892 77.3537 75.7429 77.6147 76.5136 77.5851C77.2844 77.5555 78.0155 77.2373 78.5609 76.6943C79.1063 76.1513 79.4259 75.4233 79.4556 74.6559C79.4854 73.8885 79.2232 73.1381 78.7215 72.5548L75.659 69.5056C75.0732 69.0061 74.3195 68.7451 73.5488 68.7747C72.778 68.8044 72.0469 69.1225 71.5015 69.6655C70.9561 70.2086 70.6365 70.9365 70.6068 71.7039C70.577 72.4714 70.8392 73.2217 71.3409 73.805L74.4034 76.8542Z" fill="#7C6C8A"/>
<path d="M15.3126 62.6609C15.3207 67.4701 17.2431 72.0801 20.6586 75.4807C24.0741 78.8814 28.7042 80.7954 33.5345 80.8035C35.9281 80.8109 38.2993 80.3442 40.5101 79.4308C42.7209 78.5173 44.7272 77.1753 46.4123 75.4827L55.906 66.0302C57.5978 64.3468 58.9399 62.348 59.8555 60.1479C60.7711 57.9479 61.2424 55.5898 61.2424 53.2084C61.2424 50.827 60.7711 48.4689 59.8555 46.2689C58.9399 44.0688 57.5978 42.07 55.906 40.3866C55.628 40.08 55.2903 39.8329 54.9135 39.6602C54.5366 39.4875 54.1285 39.3928 53.7137 39.3819C53.299 39.371 52.8864 39.4441 52.5009 39.5968C52.1155 39.7495 51.7652 39.9786 51.4713 40.2701C51.1774 40.5617 50.9461 40.9096 50.7914 41.2929C50.6367 41.6762 50.5618 42.0867 50.5713 42.4996C50.5808 42.9126 50.6744 43.3193 50.8465 43.6951C51.0186 44.071 51.2657 44.408 51.5726 44.6859C53.8373 46.9491 55.1089 50.0137 55.1089 53.2084C55.1089 56.4031 53.8373 59.4677 51.5726 61.7309L42.0788 71.1833C39.7761 73.2757 36.7516 74.4035 33.6349 74.332C30.5181 74.2604 27.5491 72.9951 25.3456 70.7992C23.1421 68.6034 21.8739 65.6461 21.8048 62.5428C21.7357 59.4396 22.8712 56.4293 24.9748 54.1384L29.7216 49.4122C30.2234 48.8289 30.4855 48.0785 30.4558 47.3111C30.426 46.5437 30.1065 45.8158 29.5611 45.2727C29.0156 44.7297 28.2845 44.4115 27.5137 44.3819C26.743 44.3523 25.9894 44.6133 25.4035 45.1128L20.6566 49.8391C18.9567 51.5168 17.6087 53.5144 16.6913 55.7156C15.7738 57.9168 15.3052 60.2777 15.3126 62.6609Z" fill="#7C6C8A"/>
<path d="M68.2785 45.1126C67.7768 45.6959 67.5146 46.4462 67.5444 47.2136C67.5741 47.981 67.8937 48.709 68.4391 49.252C68.9845 49.7951 69.7156 50.1132 70.4864 50.1429C71.2571 50.1725 72.0108 49.9115 72.5966 49.4119L77.3435 44.6857C79.0435 43.008 80.3914 41.0104 81.3089 38.8092C82.2263 36.608 82.695 34.2471 82.6875 31.8639C82.6794 27.0547 80.757 22.4447 77.3415 19.044C73.926 15.6434 69.2959 13.7293 64.4657 13.7213C62.0721 13.7139 59.7009 14.1805 57.49 15.094C55.2792 16.0074 53.2729 17.3495 51.5879 19.0421L42.0941 28.4946C40.4005 30.177 39.0568 32.1755 38.14 34.3756C37.2232 36.5758 36.7513 38.9344 36.7513 41.3164C36.7513 43.6983 37.2232 46.0569 38.14 48.2571C39.0568 50.4573 40.4005 52.4558 42.0941 54.1382C42.6679 54.7061 43.4441 55.0248 44.2532 55.0248C45.0622 55.0248 45.8384 54.7061 46.4122 54.1382C46.9826 53.5669 47.3028 52.794 47.3028 51.9885C47.3028 51.1829 46.9826 50.4101 46.4122 49.8388C44.1475 47.5756 42.8759 44.5111 42.8759 41.3164C42.8759 38.1216 44.1475 35.0571 46.4122 32.7939L55.906 23.3414C58.2012 21.2061 61.2399 20.0422 64.3807 20.0952C67.5215 20.1482 70.5187 21.4141 72.7399 23.6256C74.9612 25.8372 76.2325 28.8214 76.2858 31.9485C76.339 35.0757 75.17 38.1011 73.0254 40.3864L68.2785 45.1126Z" fill="#7C6C8A"/>
</svg>
