<?xml version="1.0" encoding="UTF-8"?>
<svg width="32px" height="6px" viewBox="0 0 32 6" version="1.1" xmlns="http://www.w3.org/2000/svg" xmlns:xlink="http://www.w3.org/1999/xlink">
    <!-- Generator: Sketch 50.2 (55047) - http://www.bohemiancoding.com/sketch -->
    <title>Shape</title>
    <desc>Created with Sketch.</desc>
    <defs></defs>
    <g id="Page-1" stroke="none" stroke-width="1" fill="none" fill-rule="evenodd">
        <g id="Catalogo-Equipo-01-Copy-4" transform="translate(-554.000000, -802.000000)" fill="#A2AAB4" fill-rule="nonzero">
            <path d="M555.540805,807.933444 L554,807.933444 L554,802.693725 L556.664792,802.693725 L559.721866,806.605495 L559.721866,802.693725 L561.262671,802.693725 L561.262671,807.933444 L558.651859,807.933444 L555.540805,803.954914 L555.540805,807.933444 Z M568.634837,806.313304 C568.634837,807.041636 568.506121,807.292626 568.292754,807.533597 C567.965802,807.892243 567.490403,808 566.573853,808 L563.943105,808 C563.026556,808 562.550543,807.892141 562.223898,807.533597 C562.010939,807.292831 561.881917,807.041636 561.881917,806.313304 L561.881917,804.293419 C561.881917,803.565188 562.010939,803.3143 562.223898,803.073125 C562.550543,802.714173 563.026658,802.606415 563.943105,802.606415 L566.573955,802.606415 C567.490403,802.606415 567.965904,802.714275 568.292754,803.073125 C568.506019,803.314198 568.634837,803.565086 568.634837,804.293419 L568.634837,806.313304 Z M566.509137,806.672256 C566.861035,806.672256 566.98515,806.651706 567.069393,806.574927 C567.148524,806.503157 567.183387,806.410837 567.183387,806.103003 L567.183387,804.503514 C567.183387,804.195783 567.148524,804.103974 567.069393,804.031898 C566.98515,803.954914 566.861035,803.934569 566.509137,803.934569 L564.007617,803.934569 C563.655719,803.934569 563.531706,803.954914 563.447668,804.031898 C563.368332,804.103974 563.333674,804.195885 563.333674,804.503514 L563.333674,806.103003 C563.333674,806.410735 563.36823,806.503157 563.447668,806.574927 C563.531706,806.651706 563.655719,806.672256 564.007617,806.672256 L566.509137,806.672256 Z M570.874019,802.693725 L570.874019,807.933444 L569.264102,807.933444 L569.264102,802.693725 L570.874019,802.693725 Z M573.594019,802.693725 L575.719412,802.693725 L572.850965,805.144639 L576.086236,807.933444 L573.811885,807.933444 L570.874019,805.200767 L573.594019,802.693725 Z M576.383233,802.693725 L577.993661,802.693725 L577.993661,807.933444 L576.383233,807.933444 L576.383233,802.693725 Z M584.132345,807.933444 L583.655923,807.020677 L580.540371,807.020677 L580.069674,807.933444 L578.290965,807.933444 L581.144895,802.693623 L583.146173,802.693623 L586,807.933444 L584.132345,807.933444 Z M581.099808,805.882581 L583.101802,805.882581 L582.100601,803.985585 L581.099808,805.882581 Z" id="Shape"></path>
        </g>
    </g>
</svg>