<?xml version="1.0" encoding="UTF-8"?>
<svg width="29px" height="23px" viewBox="0 0 29 23" version="1.1" xmlns="http://www.w3.org/2000/svg" xmlns:xlink="http://www.w3.org/1999/xlink">
    <!-- Generator: Sketch 50.2 (55047) - http://www.bohemiancoding.com/sketch -->
    <title>Page 1</title>
    <desc>Created with Sketch.</desc>
    <defs></defs>
    <g id="Page-1" stroke="none" stroke-width="1" fill="none" fill-rule="evenodd">
        <g id="Catalogo-Equipo-01-Copy-4" transform="translate(-414.000000, -723.000000)" fill="#A2AAB4">
            <g id="Page-1" transform="translate(414.000000, 723.000000)">
                <path d="M14.9699946,16.5961582 C15.052533,16.6310598 15.0965534,16.5472265 15.0965534,16.5472265 L15.0991362,16.5472265 C15.9310328,15.298307 19.6920857,9.53572225 20.4603099,6.02272314 C20.4603099,6.02272314 20.873563,4.31903975 20.4719888,3.16879546 C20.4719888,3.16879546 19.9039903,0.974055153 17.5952751,0.39325136 C17.5952751,0.39325136 16.9318242,0.219439245 16.2270478,0.115894069 C16.2270478,0.115894069 13.6482583,3.54935007 14.9020549,16.497599 L14.9038517,16.497599 C14.9124985,16.5814323 14.9699946,16.5961582 14.9699946,16.5961582" id="Fill-26"></path>
                <path d="M12.1872512,17.3165567 C12.1872512,17.3165567 12.2361004,17.2762054 12.2098229,17.209417 L12.2120688,17.209417 C8.88493169,9.69862327 4.33499195,4.00201526 4.33499195,4.00201526 C4.33499195,4.00201526 1.85839272,6.43005108 2.03503598,8.86260903 C2.1295901,10.7041594 3.46817099,11.7937608 3.46817099,11.7937608 C5.62955239,13.9704126 10.856868,16.7152294 12.0707991,17.337544 C12.086633,17.3453128 12.1508669,17.3650246 12.1872512,17.3165567" id="Fill-1"></path>
                <path d="M11.5084155,18.3682765 C11.5523236,18.2982415 11.4776461,18.2355114 11.4776461,18.2355114 L11.4794428,18.2348157 C7.65752489,15.5686144 0.248502151,11.4795655 0.248502151,11.4795655 C-0.424718688,13.6336067 0.4829784,15.3676695 0.4829784,15.3676695 C1.42638595,17.4318478 3.22819218,18.0555538 3.22819218,18.0555538 C4.06031335,18.4101352 4.89243453,18.4336735 4.89243453,18.4336735 C5.02393438,18.456632 10.0702271,18.4361085 11.4219467,18.429847 C11.4794428,18.4290354 11.5084155,18.3682765 11.5084155,18.3682765" id="Fill-10"></path>
                <path d="M12.1872512,17.3165567 C12.1872512,17.3165567 12.2361004,17.2762054 12.2098229,17.209417 L12.2120688,17.209417 C8.88493169,9.69862327 4.33499195,4.00201526 4.33499195,4.00201526 C4.33499195,4.00201526 1.85839272,6.43005108 2.03503598,8.86260903 C2.1295901,10.7041594 3.46817099,11.7937608 3.46817099,11.7937608 C5.62955239,13.9704126 10.856868,16.7152294 12.0707991,17.337544 C12.086633,17.3453128 12.1508669,17.3650246 12.1872512,17.3165567" id="Fill-3"></path>
                <path d="M11.3806551,19.1770072 C11.3577465,19.0959568 11.2656629,19.0959568 11.2656629,19.0959568 L11.2656629,19.0924782 L2.56511177,19.4062444 C3.50807013,21.1461049 5.09909479,22.4963664 6.75446567,22.0828814 C7.89798657,21.788827 10.4843,19.9237384 11.3396667,19.2906402 L11.3377576,19.2879733 C11.4027776,19.2266347 11.3806551,19.1770072 11.3806551,19.1770072" id="Fill-6"></path>
                <path d="M11.3806551,19.1770072 C11.3577465,19.0959568 11.2656629,19.0959568 11.2656629,19.0959568 L11.2656629,19.0924782 L2.56511177,19.4062444 C3.50807013,21.1461049 5.09909479,22.4963664 6.75446567,22.0828814 C7.89798657,21.788827 10.4843,19.9237384 11.3396667,19.2906402 L11.3377576,19.2879733 C11.4027776,19.2266347 11.3806551,19.1770072 11.3806551,19.1770072" id="Fill-8"></path>
                <path d="M11.5084155,18.3682765 C11.5523236,18.2982415 11.4776461,18.2355114 11.4776461,18.2355114 L11.4794428,18.2348157 C7.65752489,15.5686144 0.248502151,11.4795655 0.248502151,11.4795655 C-0.424718688,13.6336067 0.4829784,15.3676695 0.4829784,15.3676695 C1.42638595,17.4318478 3.22819218,18.0555538 3.22819218,18.0555538 C4.06031335,18.4101352 4.89243453,18.4336735 4.89243453,18.4336735 C5.02393438,18.456632 10.0702271,18.4361085 11.4219467,18.429847 C11.4794428,18.4290354 11.5084155,18.3682765 11.5084155,18.3682765" id="Fill-14"></path>
                <path d="M12.0887666,0.115917259 C11.708978,0.151978345 10.6874117,0.393274551 10.6874117,0.393274551 C8.38262697,1.00770444 7.83854774,3.16881865 7.83854774,3.16881865 C7.41743379,4.52893614 7.84955285,6.02274633 7.84955285,6.02274633 C8.6178893,9.54896397 12.4028615,15.3444791 13.217352,16.560816 C13.2733883,16.6218068 13.3199915,16.6000078 13.3199915,16.6000078 C13.408257,16.5755419 13.402193,16.4891577 13.402193,16.4891577 C14.6536314,3.54821374 12.0887666,0.115917259 12.0887666,0.115917259" id="Fill-17"></path>
                <path d="M12.0887666,0.115917259 C11.708978,0.151978345 10.6874117,0.393274551 10.6874117,0.393274551 C8.38262697,1.00770444 7.83854774,3.16881865 7.83854774,3.16881865 C7.41743379,4.52893614 7.84955285,6.02274633 7.84955285,6.02274633 C8.6178893,9.54896397 12.4028615,15.3444791 13.217352,16.560816 C13.2733883,16.6218068 13.3199915,16.6000078 13.3199915,16.6000078 C13.408257,16.5755419 13.402193,16.4891577 13.402193,16.4891577 C14.6536314,3.54821374 12.0887666,0.115917259 12.0887666,0.115917259" id="Fill-20"></path>
                <path d="M17.0310386,19.100676 C17.0310386,19.100676 16.9528799,19.1106479 16.931768,19.1704791 C16.931768,19.1704791 16.9138005,19.2510658 16.9648956,19.2914171 L16.9648956,19.2933883 C17.7965676,19.9112968 20.3224653,21.7349905 21.5399899,22.0918909 C21.5399899,22.0918909 23.788963,22.8815243 25.7451777,19.4140944 L17.0310386,19.0990527 L17.0310386,19.100676" id="Fill-29"></path>
                <path d="M17.0310386,19.100676 C17.0310386,19.100676 16.9528799,19.1106479 16.931768,19.1704791 C16.931768,19.1704791 16.9138005,19.2510658 16.9648956,19.2914171 L16.9648956,19.2933883 C17.7965676,19.9112968 20.3224653,21.7349905 21.5399899,22.0918909 C21.5399899,22.0918909 23.788963,22.8815243 25.7451777,19.4140944 L17.0310386,19.0990527 L17.0310386,19.100676" id="Fill-31"></path>
                <path d="M28.0589687,11.4582072 C28.0589687,11.4582072 20.662074,15.5619819 16.836338,18.226328 L16.8386962,18.2293428 C16.8386962,18.2293428 16.7695212,18.2758395 16.7920929,18.3588612 C16.7920929,18.3588612 16.8296001,18.4283165 16.8827167,18.4283165 L16.8827167,18.4299398 C18.2504948,18.4314472 23.4358112,18.4360853 23.5673111,18.4131268 C23.5673111,18.4131268 24.238286,18.3844866 25.0632202,18.0555307 C25.0632202,18.0555307 26.9079239,17.4499131 27.8658177,15.2865958 C27.8658177,15.2865958 28.7198368,13.5219216 28.0589687,11.4582072" id="Fill-36"></path>
                <path d="M16.1391417,17.3165567 C16.1391417,17.3165567 16.1976485,17.3630534 16.2551446,17.3269924 C17.5017542,16.6885604 22.6899904,13.9591652 24.8390191,11.7937608 C24.8390191,11.7937608 26.1973642,10.6661271 26.2695713,8.85147763 C26.4247658,6.33381088 23.9744441,4.00201526 23.9744441,4.00201526 C23.9744441,4.00201526 19.4384292,9.67647643 16.1109551,17.1739357 L16.1132011,17.1739357 C16.1132011,17.1739357 16.0752447,17.2604359 16.1391417,17.3165567" id="Fill-39"></path>
                <path d="M16.1391417,17.3165567 C16.1391417,17.3165567 16.1976485,17.3630534 16.2551446,17.3269924 C17.5017542,16.6885604 22.6899904,13.9591652 24.8390191,11.7937608 C24.8390191,11.7937608 26.1973642,10.6661271 26.2695713,8.85147763 C26.4247658,6.33381088 23.9744441,4.00201526 23.9744441,4.00201526 C23.9744441,4.00201526 19.4384292,9.67647643 16.1109551,17.1739357 L16.1132011,17.1739357 C16.1132011,17.1739357 16.0752447,17.2604359 16.1391417,17.3165567" id="Fill-41"></path>
            </g>
        </g>
    </g>
</svg>