<?xml version="1.0" encoding="UTF-8"?>
<svg width="25px" height="25px" viewBox="0 0 25 25" version="1.1" xmlns="http://www.w3.org/2000/svg" xmlns:xlink="http://www.w3.org/1999/xlink">
    <!-- Generator: Sketch 50.2 (55047) - http://www.bohemiancoding.com/sketch -->
    <title>Page 1</title>
    <desc>Created with Sketch.</desc>
    <defs></defs>
    <g id="Page-1" stroke="none" stroke-width="1" fill="none" fill-rule="evenodd">
        <g id="Catalogo-Equipo-01-Copy-4" transform="translate(-556.000000, -722.000000)" fill="#A2AAB4">
            <g id="Page-1" transform="translate(556.000000, 722.000000)">
                <path d="M9.91814206,8.62078708 C9.91814206,9.43818953 9.2492542,10.0980548 8.43326398,10.0980548 C7.61462511,10.0980548 6.94573725,9.43818953 6.94573725,8.62078708 C6.94573725,7.79727853 7.61462511,7.13497086 8.43326398,7.13497086 C9.2492542,7.13497086 9.91814206,7.79727853 9.91814206,8.62078708 Z M19.7151182,19.888973 C17.7567417,21.8465867 15.1533153,22.9243123 12.379356,22.9243123 C9.61680635,22.9243123 7.01195368,21.8465867 5.05602208,19.888973 C3.10110919,17.9325805 2.0224944,15.3354551 2.0224944,12.5675627 C2.0224944,6.85449761 6.67211057,2.20816713 12.379356,2.20816713 C12.5032317,2.20816713 12.7503718,2.21060957 12.879341,2.21427323 L12.879341,3.18351389 C12.7613739,3.17985023 12.4924333,3.17985023 12.3828196,3.17985023 C9.8784122,3.17985023 7.51825473,4.15743588 5.73815323,5.927389 C3.96701641,7.69856334 2.99149552,10.0559227 2.99149552,12.5675627 C2.99149552,15.0741143 3.96701641,17.4341196 5.73815323,19.2038692 C7.51825473,20.9799284 9.8784122,21.9585318 12.3828196,21.9585318 C17.3529233,21.9585318 21.4290033,18.0817727 21.7592705,13.2007647 C21.7617154,13.1816322 21.7629379,13.0802711 21.7641603,13.0586962 L15.3499271,13.0586962 L15.3499271,12.0967829 L22.338919,12.0967829 L22.7486459,12.0943404 L22.7486459,12.5675627 C22.7486459,15.3354551 21.6700311,17.9325805 19.7151182,19.888973 Z M15.3425924,17.0174805 L15.3425924,17.9842787 L11.8911881,17.9842787 L11.8911881,7.14107696 L12.879341,7.14107696 L12.879341,17.0174805 L15.3425924,17.0174805 Z M12.3791523,-1.42108547e-14 C5.54643118,-1.42108547e-14 -6.11228627e-05,5.53843081 -6.11228627e-05,12.3735925 C-6.11228627e-05,19.2077364 5.54643118,24.7459637 12.3791523,24.7459637 C19.2245054,24.7459637 24.7709977,19.2077364 24.7709977,12.3735925 C24.7709977,5.53843081 19.2245054,-1.42108547e-14 12.3791523,-1.42108547e-14 Z" id="Fill-1"></path>
            </g>
        </g>
    </g>
</svg>