<?xml version="1.0" encoding="UTF-8"?>
<svg width="24px" height="10px" viewBox="0 0 24 10" version="1.1" xmlns="http://www.w3.org/2000/svg" xmlns:xlink="http://www.w3.org/1999/xlink">
    <!-- Generator: Sketch 50.2 (55047) - http://www.bohemiancoding.com/sketch -->
    <title>ZTE</title>
    <desc>Created with Sketch.</desc>
    <defs></defs>
    <g id="Page-1" stroke="none" stroke-width="1" fill="none" fill-rule="evenodd">
        <g id="Catalogo-Equipo-01-Copy-4" transform="translate(-556.000000, -801.000000)" fill="#7A7A7A">
            <path d="M558.66,809.67 L563.812,809.67 L563.812,811 L556.364,811 L556.364,810.594 L561.474,803.09 L556.966,803.09 L556.966,801.76 L563.798,801.76 L563.798,802.166 L558.66,809.67 Z M572.17,801.76 L572.17,803.09 L569.048,803.09 L569.048,811 L567.564,811 L567.564,803.09 L564.456,803.09 L564.456,801.76 L572.17,801.76 Z M579.632,801.76 L579.632,803.09 L575.04,803.09 L575.04,805.456 L578.498,805.456 L578.498,806.744 L575.04,806.744 L575.04,809.67 L579.8,809.67 L579.8,811 L573.556,811 L573.556,801.76 L579.632,801.76 Z" id="ZTE"></path>
        </g>
    </g>
</svg>