<?xml version="1.0" encoding="UTF-8"?>
<svg width="25px" height="25px" viewBox="0 0 25 25" version="1.1" xmlns="http://www.w3.org/2000/svg" xmlns:xlink="http://www.w3.org/1999/xlink">
    <!-- Generator: Sketch 50.2 (55047) - http://www.bohemiancoding.com/sketch -->
    <title>Page 1</title>
    <desc>Created with Sketch.</desc>
    <defs></defs>
    <g id="Page-1" stroke="none" stroke-width="1" fill="none" fill-rule="evenodd">
        <g id="Catalogo-Equipo-01-Copy-4" transform="translate(-344.000000, -792.000000)" fill="#A2AAB4">
            <path d="M364.509948,810.373923 L360.005198,795.515446 L356.531163,807.116006 L356.499706,807.143346 L356.470601,807.116006 L352.992156,795.515446 L348.487994,810.373923 L349.331146,810.373923 C349.331146,810.373923 349.902067,807.789226 350.827242,806.245817 C351.328194,805.408554 352.107258,804.720634 353.143853,804.739743 C353.867941,804.756794 354.499424,805.15955 355.292011,806.267277 C355.765916,806.93256 356.496472,808.624431 356.496472,808.624431 C356.496472,808.624431 357.231732,806.93256 357.705343,806.267277 C358.50087,805.15955 359.126767,804.756794 359.858793,804.739743 C360.892154,804.720634 361.670924,805.408554 362.16629,806.245817 C363.092053,807.789226 363.66562,810.373923 363.66562,810.373923 L364.509948,810.373923 Z M369,804.500147 C369,811.40345 363.403678,817 356.500294,817 C349.596322,817 344,811.40345 344,804.500147 C344,797.596256 349.596322,792 356.500294,792 C363.403678,792 369,797.596256 369,804.500147 Z" id="Page-1"></path>
        </g>
    </g>
</svg>