<?xml version="1.0" encoding="UTF-8"?>
<svg width="19px" height="24px" viewBox="0 0 19 24" version="1.1" xmlns="http://www.w3.org/2000/svg" xmlns:xlink="http://www.w3.org/1999/xlink">
    <!-- Generator: Sketch 50.2 (55047) - http://www.bohemiancoding.com/sketch -->
    <title>Page 1</title>
    <desc>Created with Sketch.</desc>
    <defs>
        <polygon id="path-1" points="0 23.1867425 0 0.37191535 18.1745476 0.37191535 18.1745476 23.1867425 0.000178250708 23.1867425 18.1745929 23.1870107 18.1745929 5.87099637 0.000178250708 5.87099637 0.000178250708 23.1867425"></polygon>
        <polygon id="path-3" points="9.81781954 0.37191535 14.3415965 0.37191535 14.3415965 5.63842258 9.81781954 5.63842258 9.81781954 0.37191535"></polygon>
    </defs>
    <g id="Page-1" stroke="none" stroke-width="1" fill="none" fill-rule="evenodd">
        <g id="Catalogo-Equipo-01-Copy-4" transform="translate(-347.000000, -723.000000)">
            <g id="Page-1" transform="translate(347.000000, 723.000000)">
                <g id="Group-3" transform="translate(1.000000, 0.000000)">
                    <mask id="mask-2" fill="white">
                        <use xlink:href="#path-1"></use>
                    </mask>
                    <g id="Clip-2"></g>
                </g>
                <g id="Group-6">
                    <mask id="mask-4" fill="white">
                        <use xlink:href="#path-3"></use>
                    </mask>
                    <g id="Clip-5"></g>
                    <path d="M12.3857182,4.01441348 C11.6049879,4.9780545 10.3275118,5.72884122 9.07498637,5.62960196 C8.90577522,4.31815981 9.5372549,2.95524308 10.2594644,2.09918855 C11.065599,1.13462006 12.424732,0.418149715 13.5475138,0.37177623 C13.6908669,1.7073326 13.1637265,3.04891752 12.3857182,4.01441348 Z M15.1962564,12.4950109 C15.2261972,15.945662 18.1572246,17.0934057 18.1907947,17.1091727 C18.164483,17.1880076 17.7208141,18.745693 16.6443046,20.3543892 C15.7147774,21.7446663 14.7507729,23.1279873 13.2301408,23.1558114 C11.7344594,23.1854904 11.2544985,22.2501372 9.54514839,22.2501372 C7.83534459,22.2501372 7.30230679,23.128451 5.88782861,23.1854904 C4.42118077,23.2425298 3.30293552,21.683917 2.36524264,20.2992047 C0.447213854,17.4667123 -1.01761939,12.2932863 0.950764457,8.80321778 C1.92611022,7.06838571 3.67311326,5.97026158 5.56845958,5.94151002 C7.00924941,5.91554087 8.37110428,6.93529381 9.25073007,6.93529381 C10.1321704,6.93529381 11.7861754,5.70871513 13.5236518,5.88910799 C14.2513051,5.91971449 16.2945411,6.1886807 17.6060409,8.14888791 C17.5017016,8.21891187 15.1681301,9.60547908 15.1962564,12.4950109 Z" id="Fill-4" fill="#A2AAB4"></path>
                </g>
            </g>
        </g>
    </g>
</svg>