<?xml version="1.0" encoding="UTF-8"?>
<svg width="42px" height="14px" viewBox="0 0 42 14" version="1.1" xmlns="http://www.w3.org/2000/svg" xmlns:xlink="http://www.w3.org/1999/xlink">
    <!-- Generator: Sketch 50.2 (55047) - http://www.bohemiancoding.com/sketch -->
    <title>Page 1</title>
    <desc>Created with Sketch.</desc>
    <defs>
        <polygon id="path-1" points="42 14 42 0 0 0 0 14"></polygon>
    </defs>
    <g id="Page-1" stroke="none" stroke-width="1" fill="none" fill-rule="evenodd">
        <g id="Catalogo-Equipo-01-Copy-4" transform="translate(-407.000000, -798.000000)">
            <g id="Page-1" transform="translate(407.000000, 798.000000)">
                <mask id="mask-2" fill="white">
                    <use xlink:href="#path-1"></use>
                </mask>
                <g id="Clip-2"></g>
                <path d="M32.3175814,9.1226621 L30.7160486,9.1226621 L29.6410385,5.57640097 L29.6230485,5.57640097 L29.6826667,9.1226621 L28.5664468,9.1226621 L28.5664468,4.69114834 L30.2351286,4.69114834 L31.228765,8.09774328 L31.2519847,8.09774328 L31.1932033,4.69114834 L32.3175814,4.69114834 L32.3175814,9.1226621 Z M27.3588124,7.89401966 C27.3604859,7.9780294 27.3523277,8.14562883 27.3477255,8.18868382 C27.2791123,8.92628933 26.7536355,9.30139282 25.7899127,9.30139282 C24.8224246,9.30139282 24.2965294,8.92628933 24.2283346,8.18868382 C24.2237325,8.14562883 24.215365,7.9780294 24.2172477,7.89464973 L24.2172477,4.69009822 L25.3681925,4.69009822 L25.3681925,7.99567145 C25.3669374,8.06960002 25.3707027,8.12441637 25.3780243,8.16243078 C25.3924582,8.2359393 25.4650459,8.47452696 25.7899127,8.47452696 C26.1137336,8.47452696 26.1865306,8.2359393 26.2018012,8.16306085 C26.208286,8.12441637 26.2120514,8.06665967 26.2120514,7.99567145 L26.2120514,4.69009822 L27.3588124,4.69009822 L27.3588124,7.89401966 Z M23.1922332,8.3006268 C23.0696499,9.16781733 22.2234899,9.31924489 21.6254254,9.31924489 C20.6326257,9.31924489 20.0184537,8.89331551 20.0184537,8.02591495 L20.0190813,7.67223395 L21.2219044,7.67223395 L21.2229503,8.11286503 C21.2229503,8.35208276 21.3909272,8.49867976 21.6503186,8.49867976 C21.881679,8.49867976 22.0172319,8.40521892 22.0640897,8.21367672 C22.0858451,8.12441637 22.0952585,7.99399125 22.0563498,7.89590988 C21.8350304,7.33913533 20.2719879,7.0663137 20.0820465,6.16299898 C20.0385356,5.95822524 20.035607,5.78411505 20.0713779,5.56463961 C20.2033747,4.74575467 20.9863602,4.57563495 21.6162212,4.57563495 C22.1797699,4.57563495 22.5899849,4.69912927 22.8359884,4.9461179 C23.0194451,5.13051928 23.1123239,5.38359862 23.1123239,5.6982151 L23.1123239,6.02123254 L21.9873182,6.02123254 L21.9873182,5.7362295 C21.9873182,5.49239123 21.8364947,5.35104485 21.5940474,5.35104485 C21.3790035,5.35104485 21.2488895,5.44702597 21.2066338,5.63583786 C21.1978479,5.67574249 21.1892713,5.76836323 21.2120726,5.86098397 C21.3323549,6.35748153 23.0043836,6.66096671 23.1874219,7.57310246 C23.2106416,7.68966597 23.2430656,7.93959494 23.1922332,8.3006268 Z M17.8284789,9.16823738 L17.8014939,5.28047667 L17.7820395,5.28047667 L17.0609732,9.16823738 L15.9117019,9.16823738 L15.1946101,5.28047667 L15.1741098,5.28047667 L15.1481707,9.16823738 L14.0089403,9.16823738 L14.1074672,4.69114834 L15.9397329,4.69114834 L16.4731588,8.01709393 L16.4990979,8.01709393 L17.0337789,4.69114834 L18.8649987,4.69114834 L18.9635256,9.16823738 L17.8284789,9.16823738 Z M11.9373652,9.16823738 L11.3562447,5.20360775 L11.335326,5.20360775 L10.7395625,9.16823738 L9.51456564,9.16823738 L10.3381334,4.69114834 L12.336284,4.69114834 L13.1550405,9.16823738 L11.9373652,9.16823738 Z M41.9740545,3.3331309 C41.402975,0.0407892155 31.5500757,-0.986649898 19.9661571,1.03819485 C15.1013129,1.88900348 10.7086029,3.14389897 7.28777401,4.55568264 C7.81304162,4.567444 8.2029655,4.68841803 8.43955557,4.92553552 C8.62468574,5.11140707 8.71819216,5.36679667 8.71819216,5.68519359 L8.71819216,6.01157142 L7.58251796,6.01157142 L7.58251796,5.72320799 C7.58251796,5.48294014 7.43901594,5.33403287 7.184645,5.33403287 C6.97106545,5.33403287 6.83927788,5.4308541 6.79702218,5.62155621 C6.78509854,5.67469237 6.78196074,5.76605296 6.80183347,5.8492226 C6.9233709,6.34824045 8.60983348,6.65781634 8.79370853,7.57856309 C8.81776499,7.69701682 8.85039811,7.95030619 8.79914738,8.31322826 C8.69392651,9.05566433 8.04398366,9.34234757 7.21685974,9.34234757 C6.06256793,9.34234757 5.59357152,8.7931339 5.59357152,8.03641617 L5.59419908,7.67832465 L6.81208362,7.67832465 L6.81271118,8.12441637 C6.81271118,8.37497542 6.99407598,8.51359149 7.24133457,8.51359149 C7.4756236,8.51359149 7.61243165,8.41887051 7.65970783,8.22501803 C7.68188161,8.13575769 7.69129501,8.00491252 7.65154955,7.90452088 C7.42625555,7.33682506 5.85108026,7.07156431 5.65737344,6.15396793 C5.61407181,5.94772402 5.61051563,5.77214367 5.64628655,5.55014793 C5.66595009,5.42980398 5.70276694,5.32710207 5.7471145,5.23280114 C1.95225991,7.01443769 -0.267419381,8.97480496 0.025860269,10.6671812 C0.597776506,13.9597329 10.4504666,14.9865419 22.0339669,12.9614871 C27.1259877,12.071614 31.7034095,10.7394295 35.1878311,9.24657647 C35.137208,9.24909676 35.0884675,9.25455739 35.0361708,9.25455739 C34.2433535,9.25455739 33.535466,8.95632282 33.4620415,8.14268849 C33.4488627,7.99462132 33.4463525,7.93266414 33.4461433,7.84802433 L33.4463525,5.9777575 C33.4463525,5.89731818 33.4557659,5.75576177 33.4647609,5.68246327 C33.5588949,4.89613211 34.1780873,4.57206454 35.0361708,4.57206454 C35.7003384,4.57206454 36.5147019,4.76339672 36.6042338,5.68309334 C36.6161574,5.79860673 36.6149023,5.92189103 36.6146931,5.96242573 L36.6146931,5.96347585 L36.6146931,6.1390562 L35.4673045,6.1390562 L35.4673045,5.87631574 L35.4673045,5.87547565 C35.4673045,5.86980499 35.4658401,5.77130357 35.4528706,5.70976643 C35.4340438,5.61588555 35.3545529,5.39830033 35.0275942,5.39830033 C34.7048192,5.39830033 34.6211445,5.6163056 34.6002259,5.70997646 C34.5883022,5.76164245 34.5826542,5.83536099 34.5826542,5.91727049 L34.5826542,7.95009616 C34.5816083,8.02066434 34.5851644,8.07569072 34.5922768,8.11643545 C34.5979248,8.14856917 34.6558695,8.42853163 35.0313595,8.42853163 C35.4045485,8.42853163 35.4618656,8.14856917 35.4673045,8.11643545 C35.4771362,8.06140907 35.4781822,7.99567145 35.4777638,7.95009616 L35.4777638,7.32023314 L35.026339,7.32023314 L35.026339,6.64185449 L36.6226422,6.64185449 L36.6226422,7.84844438 C36.6222238,7.93035387 36.6209687,7.99147096 36.6071624,8.14268849 C36.5879172,8.35607323 36.5209775,8.53669417 36.4159658,8.69106206 C40.1122935,6.92979788 42.2635688,5.00114428 41.9740545,3.3331309 Z" id="Fill-1" fill="#A2AAB4" mask="url(#mask-2)"></path>
            </g>
        </g>
    </g>
</svg>